M48
; DRILL file KiCad 10.0.3 date 2026-06-19T17:24:35
; FORMAT={-:-/ absolute / metric / decimal}
; #@! TF.CreationDate,2026-06-19T17:24:35+05:30
; #@! TF.GenerationSoftware,Kicad,Pcbnew,10.0.3
; #@! TF.FileFunction,Plated,1,4,PTH
FMAT,2
METRIC
; #@! TA.AperFunction,Plated,PTH,ViaDrill
T1C0.100
; #@! TA.AperFunction,Plated,PTH,ComponentDrill
T2C0.200
; #@! TA.AperFunction,Plated,PTH,ViaDrill
T3C0.250
; #@! TA.AperFunction,Plated,PTH,ViaDrill
T4C0.300
; #@! TA.AperFunction,Plated,PTH,ComponentDrill
T5C0.600
; #@! TA.AperFunction,Plated,PTH,ComponentDrill
T6C0.750
; #@! TA.AperFunction,Plated,PTH,ComponentDrill
T7C0.890
; #@! TA.AperFunction,Plated,PTH,ComponentDrill
T8C1.000
; #@! TA.AperFunction,Plated,PTH,ComponentDrill
T9C1.100
; #@! TA.AperFunction,Plated,PTH,ComponentDrill
T10C1.200
; #@! TA.AperFunction,Plated,PTH,ComponentDrill
T11C1.300
; #@! TA.AperFunction,Plated,PTH,ComponentDrill
T12C1.500
; #@! TA.AperFunction,Plated,PTH,ComponentDrill
T13C2.010
; #@! TA.AperFunction,Plated,PTH,ComponentDrill
T14C2.200
%
G90
G05
T1
X148.0Y-72.0
X150.5Y-75.5
X151.0Y-83.5
X151.5Y-75.425
X153.0Y-88.5
X154.5Y-73.0
X155.237Y-78.263
X156.0Y-76.0
X156.0Y-80.5
X156.367Y-79.09
X160.5Y-90.5
X163.0Y-82.75
X166.429Y-69.917
X168.5Y-75.688
X169.0Y-73.0
X169.0Y-79.5
X169.932Y-75.932
X170.399Y-76.899
X170.761Y-76.376
X171.2Y-52.755
X171.25Y-72.25
X172.754Y-74.45
X173.5Y-45.75
X174.5Y-77.0
X175.064Y-76.432
X175.49Y-67.581
X175.5Y-74.5
X175.611Y-76.5
X176.75Y-76.25
X178.0Y-72.35
X178.925Y-51.335
X190.0Y-95.0
X194.75Y-79.25
X200.0Y-94.5
X203.0Y-92.0
T2
X152.275Y-77.037
X152.275Y-78.013
X152.275Y-78.987
X153.25Y-77.037
X153.25Y-78.013
X153.25Y-78.987
X154.225Y-77.037
X154.225Y-78.013
X154.225Y-78.987
X175.75Y-49.5
X175.75Y-50.7
X175.75Y-51.9
X177.15Y-49.5
X177.15Y-50.7
X177.15Y-51.9
T3
X148.5Y-46.5
X150.5Y-46.5
X153.5Y-81.0
X154.0Y-64.45
X158.711Y-70.35
X163.0Y-64.0
X165.0Y-62.9
X165.361Y-67.861
X165.8Y-66.5
X166.5Y-66.5
X168.5Y-69.0
X168.5Y-70.0
X168.5Y-72.0
X170.0Y-55.25
X171.186Y-69.45
X171.211Y-70.25
X171.361Y-71.0
X173.211Y-69.3
X173.75Y-59.75
X173.761Y-76.5
X174.011Y-74.4
X175.75Y-59.75
X181.5Y-65.0
X190.711Y-90.6
X206.5Y-120.0
T4
X132.0Y-94.5
X136.5Y-41.0
X137.0Y-74.0
X144.4Y-44.2
X145.2Y-42.38
X147.994Y-40.494
X150.5Y-64.5
X150.5Y-67.25
X151.5Y-41.25
X152.0Y-81.5
X153.0Y-109.5
X153.5Y-75.0
X154.5Y-75.0
X154.5Y-81.0
X154.5Y-84.5
X155.135Y-83.031
X157.5Y-58.0
X157.5Y-67.5
X158.211Y-73.0
X158.8Y-74.4
X159.0Y-85.0
X159.211Y-71.75
X159.75Y-42.25
X160.4Y-65.0
X161.0Y-54.75
X161.5Y-82.5
X161.663Y-70.981
X162.0Y-59.0
X162.059Y-71.718
X162.461Y-71.027
X164.0Y-83.5
X165.0Y-65.063
X165.5Y-73.0
X166.5Y-72.0
X168.349Y-73.0
X168.4Y-45.4
X168.686Y-85.639
X169.0Y-74.238
X169.011Y-84.8
X169.211Y-63.5
X170.922Y-71.608
X171.0Y-50.65
X171.638Y-89.0
X171.886Y-79.925
X172.2Y-57.8
X172.25Y-73.9
X173.0Y-93.0
X174.695Y-50.485
X175.0Y-70.0
X176.5Y-79.0
X177.0Y-84.839
X177.25Y-54.05
X178.0Y-78.0
X178.5Y-45.5
X179.0Y-59.5
X181.211Y-73.5
X181.5Y-64.0
X182.362Y-55.15
X183.0Y-44.6
X184.5Y-50.5
X188.0Y-85.5
X190.0Y-55.5
X190.0Y-71.0
X190.362Y-56.65
X191.75Y-85.5
X193.3Y-75.0
X194.062Y-66.6
X195.0Y-82.0
X195.5Y-84.5
X198.0Y-75.5
X199.15Y-67.5
X202.5Y-53.25
X207.581Y-106.4
X208.0Y-74.0
T6
X151.86Y-70.23
X151.86Y-71.5
X151.86Y-72.77
X154.75Y-42.25
X156.75Y-42.25
T7
X198.17Y-52.54
X198.17Y-55.08
T8
X133.5Y-105.5
X133.5Y-110.5
X148.0Y-105.5
X148.0Y-108.0
X148.0Y-110.5
X157.631Y-88.5
X160.171Y-88.5
X162.711Y-88.5
X165.251Y-88.5
X167.791Y-88.5
X170.331Y-88.5
X172.871Y-88.5
X175.411Y-88.5
X177.951Y-88.5
X180.491Y-88.5
X183.031Y-88.5
X185.571Y-88.5
X188.111Y-88.5
X190.651Y-88.5
X198.0Y-79.46
X198.0Y-82.0
X198.0Y-84.54
X201.1Y-77.65
X201.1Y-80.25
T9
X206.46Y-78.0
X206.46Y-80.54
X206.46Y-83.08
T10
X135.25Y-91.0
X135.25Y-96.0
X147.75Y-91.0
X147.75Y-96.0
T11
X206.0Y-89.5
X206.0Y-94.5
X206.0Y-99.5
T13
X203.25Y-50.0
X203.25Y-60.16
T14
X136.25Y-65.25
X154.75Y-148.75
X181.25Y-41.5
X197.25Y-148.75
T5
G00X138.3Y-41.11
M15
G01X137.7Y-41.11
M16
G05
G00X138.3Y-49.75
M15
G01X137.7Y-49.75
M16
G05
G00X142.73Y-41.11
M15
G01X141.63Y-41.11
M16
G05
G00X142.73Y-49.75
M15
G01X141.63Y-49.75
M16
G05
T12
G00X141.15Y-102.4
M15
G01X139.85Y-102.4
M16
G05
G00X141.15Y-113.6
M15
G01X139.85Y-113.6
M16
G05
M30
