%TF.GenerationSoftware,KiCad,Pcbnew,10.0.3*%
%TF.CreationDate,2026-06-19T17:22:03+05:30*%
%TF.ProjectId,Auralab_Workstation_Vishal,41757261-6c61-4625-9f57-6f726b737461,rev?*%
%TF.SameCoordinates,Original*%
%TF.FileFunction,Copper,L4,Bot*%
%TF.FilePolarity,Positive*%
%FSLAX46Y46*%
G04 Gerber Fmt 4.6, Leading zero omitted, Abs format (unit mm)*
G04 Created by KiCad (PCBNEW 10.0.3) date 2026-06-19 17:22:03*
%MOMM*%
%LPD*%
G01*
G04 APERTURE LIST*
G04 Aperture macros list*
%AMRoundRect*
0 Rectangle with rounded corners*
0 $1 Rounding radius*
0 $2 $3 $4 $5 $6 $7 $8 $9 X,Y pos of 4 corners*
0 Add a 4 corners polygon primitive as box body*
4,1,4,$2,$3,$4,$5,$6,$7,$8,$9,$2,$3,0*
0 Add four circle primitives for the rounded corners*
1,1,$1+$1,$2,$3*
1,1,$1+$1,$4,$5*
1,1,$1+$1,$6,$7*
1,1,$1+$1,$8,$9*
0 Add four rect primitives between the rounded corners*
20,1,$1+$1,$2,$3,$4,$5,0*
20,1,$1+$1,$4,$5,$6,$7,0*
20,1,$1+$1,$6,$7,$8,$9,0*
20,1,$1+$1,$8,$9,$2,$3,0*%
G04 Aperture macros list end*
%TA.AperFunction,EtchedComponent*%
%ADD10C,0.000000*%
%TD*%
%TA.AperFunction,HeatsinkPad*%
%ADD11C,0.500000*%
%TD*%
%TA.AperFunction,HeatsinkPad*%
%ADD12R,2.450000X2.450000*%
%TD*%
%TA.AperFunction,ComponentPad*%
%ADD13C,1.300000*%
%TD*%
%TA.AperFunction,ComponentPad*%
%ADD14RoundRect,0.250000X-0.350000X-0.625000X0.350000X-0.625000X0.350000X0.625000X-0.350000X0.625000X0*%
%TD*%
%TA.AperFunction,ComponentPad*%
%ADD15O,1.200000X1.750000*%
%TD*%
%TA.AperFunction,ComponentPad*%
%ADD16O,3.000000X2.500000*%
%TD*%
%TA.AperFunction,ComponentPad*%
%ADD17O,2.500000X1.600000*%
%TD*%
%TA.AperFunction,ComponentPad*%
%ADD18O,7.000000X3.500000*%
%TD*%
%TA.AperFunction,ComponentPad*%
%ADD19C,2.600000*%
%TD*%
%TA.AperFunction,ConnectorPad*%
%ADD20C,3.800000*%
%TD*%
%TA.AperFunction,ComponentPad*%
%ADD21R,1.500000X1.050000*%
%TD*%
%TA.AperFunction,ComponentPad*%
%ADD22O,1.500000X1.050000*%
%TD*%
%TA.AperFunction,ComponentPad*%
%ADD23RoundRect,0.249999X0.850001X-0.850001X0.850001X0.850001X-0.850001X0.850001X-0.850001X-0.850001X0*%
%TD*%
%TA.AperFunction,ComponentPad*%
%ADD24C,2.200000*%
%TD*%
%TA.AperFunction,ComponentPad*%
%ADD25RoundRect,0.250001X-1.149999X1.149999X-1.149999X-1.149999X1.149999X-1.149999X1.149999X1.149999X0*%
%TD*%
%TA.AperFunction,ComponentPad*%
%ADD26C,2.800000*%
%TD*%
%TA.AperFunction,ComponentPad*%
%ADD27R,1.700000X1.700000*%
%TD*%
%TA.AperFunction,ComponentPad*%
%ADD28C,1.700000*%
%TD*%
%TA.AperFunction,HeatsinkPad*%
%ADD29R,1.900000X2.900000*%
%TD*%
%TA.AperFunction,ComponentPad*%
%ADD30R,2.000000X2.000000*%
%TD*%
%TA.AperFunction,ComponentPad*%
%ADD31C,2.000000*%
%TD*%
%TA.AperFunction,ComponentPad*%
%ADD32R,3.200000X2.000000*%
%TD*%
%TA.AperFunction,ComponentPad*%
%ADD33O,2.100000X1.000000*%
%TD*%
%TA.AperFunction,ComponentPad*%
%ADD34O,1.600000X1.000000*%
%TD*%
%TA.AperFunction,ViaPad*%
%ADD35C,0.500000*%
%TD*%
%TA.AperFunction,ViaPad*%
%ADD36C,0.600000*%
%TD*%
%TA.AperFunction,ViaPad*%
%ADD37C,0.300000*%
%TD*%
%TA.AperFunction,Conductor*%
%ADD38C,0.200000*%
%TD*%
%TA.AperFunction,Conductor*%
%ADD39C,0.600000*%
%TD*%
%TA.AperFunction,Conductor*%
%ADD40C,0.250000*%
%TD*%
%TA.AperFunction,Conductor*%
%ADD41C,0.400000*%
%TD*%
G04 APERTURE END LIST*
D10*
%TA.AperFunction,EtchedComponent*%
%TO.C,NT1*%
G36*
X201750000Y-80250000D02*
G01*
X200450000Y-80250000D01*
X200450000Y-77650000D01*
X201750000Y-77650000D01*
X201750000Y-80250000D01*
G37*
%TD.AperFunction*%
%TD*%
D11*
%TO.P,U4,25,EP_25*%
%TO.N,GND*%
X152275000Y-77037500D03*
X152275000Y-78012500D03*
X152275000Y-78987500D03*
X153250000Y-77037500D03*
X153250000Y-78012500D03*
D12*
X153250000Y-78012500D03*
D11*
X153250000Y-78987500D03*
X154225000Y-77037500D03*
X154225000Y-78012500D03*
X154225000Y-78987500D03*
%TD*%
D13*
%TO.P,NT1,1,1_1*%
%TO.N,GND*%
X201100000Y-77650000D03*
%TO.P,NT1,2,2_2*%
%TO.N,GNDA*%
X201100000Y-80250000D03*
%TD*%
D14*
%TO.P,J5,1,Pin_1_1*%
%TO.N,VBUS_SYSTEM*%
X154750000Y-42250000D03*
D15*
%TO.P,J5,2,Pin_2_2*%
%TO.N,GND*%
X156750000Y-42250000D03*
%TD*%
D16*
%TO.P,SW3,1,1_1*%
%TO.N,Net-(U8-RUN)*%
X135250000Y-91000000D03*
X147750000Y-91000000D03*
%TO.P,SW3,2,2_2*%
%TO.N,GND*%
X135250000Y-96000000D03*
X147750000Y-96000000D03*
%TD*%
D17*
%TO.P,J1,1,In_1*%
%TO.N,Net-(J1-In)*%
X198170000Y-55080000D03*
D18*
%TO.P,J1,2,Ext_2*%
%TO.N,GNDA*%
X203250000Y-50000000D03*
D17*
X198170000Y-52540000D03*
D18*
X203250000Y-60160000D03*
%TD*%
D19*
%TO.P,M3,1*%
%TO.N,N/C*%
X136250000Y-65250000D03*
D20*
X136250000Y-65250000D03*
%TD*%
D21*
%TO.P,Q1,1,D_1*%
%TO.N,Net-(Q1-D)*%
X151860000Y-72770000D03*
D22*
%TO.P,Q1,2,G_2*%
%TO.N,RANGE_SELECT*%
X151860000Y-71500000D03*
%TO.P,Q1,3,S_3*%
%TO.N,GNDA*%
X151860000Y-70230000D03*
%TD*%
D23*
%TO.P,J2,1,Pin_1_1*%
%TO.N,V_SWEEP*%
X206460000Y-83080000D03*
D24*
%TO.P,J2,2,Pin_2_2*%
%TO.N,CURRENT_IN*%
X206460000Y-80540000D03*
%TO.P,J2,3,Pin_3_3*%
%TO.N,GNDA*%
X206460000Y-78000000D03*
%TD*%
D19*
%TO.P,M4,1*%
%TO.N,N/C*%
X181250000Y-41500000D03*
D20*
X181250000Y-41500000D03*
%TD*%
D19*
%TO.P,M2,1*%
%TO.N,N/C*%
X197250000Y-148750000D03*
D20*
X197250000Y-148750000D03*
%TD*%
D25*
%TO.P,J4,1,Pin_1_1*%
%TO.N,+Vout*%
X206000000Y-89500000D03*
D26*
%TO.P,J4,2,Pin_2_2*%
%TO.N,GNDA*%
X206000000Y-94500000D03*
%TO.P,J4,3,Pin_3_3*%
%TO.N,-Vout*%
X206000000Y-99500000D03*
%TD*%
D27*
%TO.P,J7,1,Pin_1_1*%
%TO.N,+3V3_DIGITAL*%
X190650547Y-88500001D03*
D28*
%TO.P,J7,2,Pin_2_2*%
%TO.N,GND*%
X188110547Y-88500001D03*
%TO.P,J7,3,Pin_3_3*%
%TO.N,TFT_CS*%
X185570547Y-88500001D03*
%TO.P,J7,4,Pin_4_4*%
%TO.N,TFT_RST*%
X183030547Y-88500001D03*
%TO.P,J7,5,Pin_5_5*%
%TO.N,TFT_DC*%
X180490547Y-88500001D03*
%TO.P,J7,6,Pin_6_6*%
%TO.N,TFT_MOSI*%
X177950547Y-88500001D03*
%TO.P,J7,7,Pin_7_7*%
%TO.N,TFT_SCLK*%
X175410547Y-88500001D03*
%TO.P,J7,8,Pin_8_8*%
%TO.N,Net-(J7-Pin_8)*%
X172870547Y-88500001D03*
%TO.P,J7,9,Pin_9_9*%
%TO.N,TFT_MISO*%
X170330547Y-88500001D03*
%TO.P,J7,10,Pin_10_10*%
%TO.N,unconnected-(J7-Pin_10-Pad10)*%
X167790547Y-88500001D03*
%TO.P,J7,11,Pin_11_11*%
%TO.N,unconnected-(J7-Pin_11-Pad11)*%
X165250547Y-88500001D03*
%TO.P,J7,12,Pin_12_12*%
%TO.N,unconnected-(J7-Pin_12-Pad12)*%
X162710547Y-88500001D03*
%TO.P,J7,13,Pin_13_13*%
%TO.N,unconnected-(J7-Pin_13-Pad13)*%
X160170547Y-88500001D03*
%TO.P,J7,14,Pin_14_14*%
%TO.N,unconnected-(J7-Pin_14-Pad14)*%
X157630547Y-88500001D03*
%TD*%
D19*
%TO.P,M1,1*%
%TO.N,N/C*%
X154750000Y-148750000D03*
D20*
X154750000Y-148750000D03*
%TD*%
D11*
%TO.P,U10,9,EPAD_9*%
%TO.N,GND*%
X175750000Y-49500000D03*
X175750000Y-50700000D03*
X175750000Y-51900000D03*
D29*
X176450000Y-50700000D03*
D11*
X177150000Y-49500000D03*
X177150000Y-50700000D03*
X177150000Y-51900000D03*
%TD*%
D30*
%TO.P,SW2,A,A_A*%
%TO.N,ROT_A*%
X148000000Y-110500000D03*
D31*
%TO.P,SW2,B,B_B*%
%TO.N,ROT_B*%
X148000000Y-105500000D03*
%TO.P,SW2,C,C_C*%
%TO.N,GND*%
X148000000Y-108000000D03*
D32*
%TO.P,SW2,MP*%
X140500000Y-113600000D03*
X140500000Y-102400000D03*
D31*
%TO.P,SW2,S1,S1_S1*%
%TO.N,ROT_SW*%
X133500000Y-105500000D03*
%TO.P,SW2,S2,S2_S2*%
%TO.N,GND*%
X133500000Y-110500000D03*
%TD*%
D27*
%TO.P,J6,1,Pin_1_1*%
%TO.N,SWCLK*%
X198000000Y-79460000D03*
D28*
%TO.P,J6,2,Pin_2_2*%
%TO.N,SWD*%
X198000000Y-82000000D03*
%TO.P,J6,3,Pin_3_3*%
%TO.N,GND*%
X198000000Y-84540000D03*
%TD*%
D33*
%TO.P,J3,SH*%
%TO.N,GND*%
X142180000Y-41110000D03*
D34*
X138000000Y-41110000D03*
D33*
X142180000Y-49750000D03*
D34*
X138000000Y-49750000D03*
%TD*%
D35*
%TO.N,+3V3_DIGITAL*%
X170000000Y-55250000D03*
X165361091Y-67861091D03*
D36*
X190362500Y-56650000D03*
X132000000Y-94500000D03*
D37*
X171250000Y-72250000D03*
D35*
X190710547Y-90600001D03*
X181500000Y-65000000D03*
X173760547Y-76500000D03*
X153500000Y-81000000D03*
X168500000Y-69000000D03*
X154000000Y-64450000D03*
X206500000Y-120000000D03*
D36*
X164000000Y-83500000D03*
D35*
X165000000Y-62900000D03*
D36*
%TO.N,GND*%
X195500000Y-84500000D03*
X169210547Y-63500001D03*
X181500000Y-64000000D03*
X159750000Y-42250000D03*
X191750000Y-85500000D03*
X183000000Y-44600000D03*
X188000000Y-85500000D03*
X147993511Y-40493511D03*
X169010547Y-84800001D03*
X154500000Y-81000000D03*
X178500000Y-45500000D03*
X171885547Y-79925001D03*
X181210547Y-73500001D03*
X182362500Y-55150000D03*
X207581055Y-106400016D03*
X153500000Y-75000000D03*
X165000000Y-65062501D03*
X151500000Y-41250000D03*
X175000000Y-70000000D03*
X157500000Y-67500000D03*
X179000000Y-59500000D03*
X158210547Y-73000001D03*
X137000000Y-74000000D03*
X177000000Y-84839274D03*
X136500000Y-41000000D03*
X177250000Y-54050000D03*
X198000000Y-75500000D03*
D35*
%TO.N,USB_DP*%
X148500000Y-46500000D03*
X173750000Y-59750000D03*
%TO.N,USB_DM*%
X150500000Y-46500000D03*
X175750000Y-59750000D03*
D37*
%TO.N,VBUS_SYSTEM*%
X150500000Y-75500000D03*
X148000000Y-72000000D03*
D36*
%TO.N,Net-(D2-A)*%
X152000000Y-81500000D03*
D37*
X151000000Y-83500000D03*
%TO.N,Net-(D3-K)*%
X156367028Y-79090283D03*
X156000000Y-76000000D03*
D36*
%TO.N,-Vout*%
X159000000Y-85000000D03*
X154500000Y-84500000D03*
D37*
X156000000Y-80500000D03*
D36*
X193300000Y-75000000D03*
D37*
X155237500Y-78262500D03*
D36*
X155135156Y-83030881D03*
X168685547Y-85639274D03*
X176500000Y-79000000D03*
%TO.N,/Vref*%
X160400000Y-65000000D03*
X158800000Y-74400000D03*
%TO.N,GNDA*%
X157500000Y-58000000D03*
X154500000Y-75000000D03*
X208000000Y-74000000D03*
X162000000Y-59000000D03*
X161500000Y-82500000D03*
X161000000Y-54750000D03*
X150500000Y-67250000D03*
X190000000Y-71000000D03*
X190000000Y-55500000D03*
X202500000Y-53250000D03*
D37*
%TO.N,+Vout*%
X153000000Y-88500000D03*
X190000000Y-95000000D03*
X151500000Y-75425000D03*
X203000000Y-92000000D03*
X200000000Y-94500000D03*
X160500000Y-90500000D03*
D36*
%TO.N,Net-(J7-Pin_8)*%
X171638219Y-89000002D03*
X184500000Y-50500000D03*
D37*
%TO.N,Net-(D8-K)*%
X178925000Y-51335000D03*
X171200000Y-52755000D03*
D36*
%TO.N,Net-(U8-RUN)*%
X173000000Y-93000000D03*
D37*
X175063531Y-76432159D03*
%TO.N,BUZZER_CTRL*%
X172753791Y-74450005D03*
X170760547Y-76375849D03*
X163000000Y-82750000D03*
X169931801Y-75931801D03*
%TO.N,SWEEP_PWM*%
X169000000Y-79500000D03*
X168500000Y-75687501D03*
X170398958Y-76898958D03*
D36*
X169000000Y-74237501D03*
D35*
%TO.N,ADC_SCLK*%
X163000000Y-64000000D03*
X171360545Y-71000000D03*
%TO.N,ADC_MISO*%
X166500000Y-66500000D03*
X168500000Y-70000000D03*
D36*
%TO.N,I2C_SDA*%
X161662522Y-70980532D03*
D37*
X166429481Y-69916728D03*
D36*
X168348528Y-73000002D03*
X170921878Y-71608338D03*
%TO.N,I2C_SCL*%
X166500000Y-72000000D03*
X162461197Y-71026605D03*
D35*
%TO.N,ADC_CS*%
X168500000Y-72000000D03*
X165799997Y-66500000D03*
D37*
%TO.N,RANGE_SELECT*%
X169000000Y-73000000D03*
X154500000Y-73000000D03*
D36*
%TO.N,CURRENT_ALERT*%
X165500000Y-73000000D03*
X162059435Y-71718408D03*
D37*
%TO.N,+1.1V*%
X175490340Y-67581142D03*
D35*
X174010547Y-74400001D03*
X173210547Y-69300001D03*
D37*
%TO.N,SWCLK*%
X176750000Y-76250000D03*
X194750000Y-79250000D03*
%TO.N,SWD*%
X174500000Y-77000000D03*
X175500000Y-74500000D03*
D36*
X178000000Y-78000000D03*
X195000000Y-82000000D03*
D37*
%TO.N,TFT_SCLK*%
X175610547Y-76500000D03*
D36*
%TO.N,ROT_A*%
X153000000Y-109500000D03*
X172250000Y-73900003D03*
D37*
%TO.N,ROT_SW*%
X178000000Y-72350001D03*
D35*
%TO.N,QSPI_IO2*%
X171210547Y-70250001D03*
D36*
X159210547Y-71750001D03*
D35*
%TO.N,QSPI_IO1*%
X171185547Y-69450001D03*
X158710547Y-70350001D03*
D36*
%TO.N,Net-(U1A--)*%
X172200000Y-57800000D03*
X194062500Y-66600000D03*
%TO.N,CURRENT_IN*%
X150500000Y-64500000D03*
%TO.N,Net-(D7-A)*%
X171000000Y-50650000D03*
X168400000Y-45400000D03*
%TO.N,V_SWEEP*%
X199150000Y-67500000D03*
%TO.N,Net-(J3-CC1)*%
X145200000Y-42380000D03*
X144400000Y-44200000D03*
%TO.N,Net-(U10-PROG)*%
X174694998Y-50485000D03*
D37*
X173500000Y-45750000D03*
%TD*%
%TO.N,USB_DP*%
D38*
X161750000Y-59750000D02*
X148500000Y-46500000D01*
X173750000Y-59750000D02*
X161750000Y-59750000D01*
%TO.N,USB_DM*%
X175000000Y-59000000D02*
X175750000Y-59750000D01*
X163000000Y-59000000D02*
X175000000Y-59000000D01*
X150500000Y-46500000D02*
X163000000Y-59000000D01*
%TO.N,VBUS_SYSTEM*%
D39*
X148000000Y-72000000D02*
X148000000Y-73000000D01*
X148000000Y-73000000D02*
X150500000Y-75500000D01*
%TO.N,Net-(D2-A)*%
D40*
X151000000Y-83500000D02*
X151000000Y-82500000D01*
X151000000Y-82500000D02*
X152000000Y-81500000D01*
%TO.N,Net-(D3-K)*%
X156000000Y-78723255D02*
X156367028Y-79090283D01*
X156000000Y-76000000D02*
X156000000Y-78723255D01*
%TO.N,-Vout*%
D41*
X194480761Y-79900000D02*
X191780761Y-77200000D01*
X168685547Y-85639274D02*
X159639274Y-85639274D01*
X195019239Y-79900000D02*
X194480761Y-79900000D01*
X193300000Y-75000000D02*
X195400000Y-77100000D01*
X177668629Y-77200000D02*
X176500000Y-78368629D01*
D38*
X155237500Y-79737500D02*
X155237500Y-78262500D01*
D41*
X176500000Y-78368629D02*
X176500000Y-79000000D01*
D38*
X156000000Y-80500000D02*
X155237500Y-79737500D01*
D41*
X154500000Y-83666037D02*
X155135156Y-83030881D01*
X154500000Y-84500000D02*
X154500000Y-83666037D01*
X191780761Y-77200000D02*
X177668629Y-77200000D01*
X195400000Y-77100000D02*
X195400000Y-79519239D01*
X159639274Y-85639274D02*
X159000000Y-85000000D01*
X195400000Y-79519239D02*
X195019239Y-79900000D01*
%TO.N,/Vref*%
D38*
X158762017Y-74400000D02*
X158800000Y-74400000D01*
X157610547Y-73248530D02*
X158762017Y-74400000D01*
X160400000Y-66463603D02*
X157610547Y-69253056D01*
X160400000Y-65000000D02*
X160400000Y-66463603D01*
X157610547Y-69253056D02*
X157610547Y-73248530D01*
%TO.N,+Vout*%
X153000000Y-81500000D02*
X153000000Y-88500000D01*
X200000000Y-94500000D02*
X202500000Y-92000000D01*
X151500000Y-80000000D02*
X153000000Y-81500000D01*
X202500000Y-92000000D02*
X203000000Y-92000000D01*
X160500000Y-90500000D02*
X165000000Y-95000000D01*
X165000000Y-95000000D02*
X190000000Y-95000000D01*
X151500000Y-75425000D02*
X151500000Y-80000000D01*
%TO.N,Net-(J7-Pin_8)*%
D40*
X207935000Y-82276752D02*
X207935000Y-84195810D01*
X208335000Y-81876752D02*
X207935000Y-82276752D01*
X172720405Y-93675000D02*
X171638219Y-92592814D01*
X209925000Y-80923148D02*
X208971396Y-81876752D01*
X184500000Y-50500000D02*
X187000000Y-50500000D01*
X198455810Y-93675000D02*
X172720405Y-93675000D01*
X187000000Y-50500000D02*
X209925000Y-73425000D01*
X208971396Y-81876752D02*
X208335000Y-81876752D01*
X209925000Y-73425000D02*
X209925000Y-80923148D01*
X207935000Y-84195810D02*
X198455810Y-93675000D01*
X171638219Y-92592814D02*
X171638219Y-89000002D01*
%TO.N,Net-(D8-K)*%
X177505000Y-52755000D02*
X178925000Y-51335000D01*
X171200000Y-52755000D02*
X177505000Y-52755000D01*
%TO.N,Net-(U8-RUN)*%
D38*
X175135547Y-76504175D02*
X175135547Y-85364453D01*
D40*
X175000000Y-85500000D02*
X175135547Y-85364453D01*
X174185547Y-91814453D02*
X174185547Y-86314453D01*
X175000000Y-85500000D02*
X175025000Y-85475000D01*
X174185547Y-86314453D02*
X175000000Y-85500000D01*
D38*
X175063531Y-76432159D02*
X175135547Y-76504175D01*
D40*
X173000000Y-93000000D02*
X174185547Y-91814453D01*
%TO.N,BUZZER_CTRL*%
D38*
X171112836Y-76235693D02*
X172799265Y-74549264D01*
X163000000Y-82750000D02*
X169818199Y-75931801D01*
X170760547Y-76375849D02*
X171112836Y-76375849D01*
X169818199Y-75931801D02*
X169931801Y-75931801D01*
X171112836Y-76375849D02*
X171112836Y-76235693D01*
%TO.N,SWEEP_PWM*%
X168500000Y-75687501D02*
X168500000Y-74737501D01*
X170398958Y-78101042D02*
X170398958Y-76898958D01*
X168500000Y-74737501D02*
X169000000Y-74237501D01*
X169000000Y-79500000D02*
X170398958Y-78101042D01*
%TO.N,ADC_SCLK*%
X166513364Y-64000000D02*
X163000000Y-64000000D01*
X171360545Y-71000000D02*
X171760547Y-70599998D01*
X171760547Y-69247183D02*
X166513364Y-64000000D01*
X171760547Y-70599998D02*
X171760547Y-69247183D01*
%TO.N,ADC_MISO*%
X167500000Y-69000000D02*
X167500000Y-67500000D01*
X167500000Y-67500000D02*
X166500000Y-66500000D01*
X168500000Y-70000000D02*
X167500000Y-69000000D01*
%TO.N,I2C_SDA*%
X169348529Y-72000000D02*
X168348528Y-73000002D01*
X170921878Y-71608338D02*
X170530216Y-72000000D01*
X170530216Y-72000000D02*
X169348529Y-72000000D01*
X161662522Y-70976751D02*
X161662522Y-70980532D01*
X166388488Y-69875735D02*
X162763538Y-69875735D01*
X162763538Y-69875735D02*
X161662522Y-70976751D01*
%TO.N,I2C_SCL*%
X166500000Y-72000000D02*
X165526605Y-71026605D01*
X165526605Y-71026605D02*
X162461197Y-71026605D01*
%TO.N,ADC_CS*%
X158160547Y-70122183D02*
X158160547Y-71548530D01*
X165799997Y-66500000D02*
X161782730Y-66500000D01*
X165599999Y-74900001D02*
X168500000Y-72000000D01*
X161512018Y-74900001D02*
X165599999Y-74900001D01*
X158160547Y-71548530D02*
X161512018Y-74900001D01*
X161782730Y-66500000D02*
X158160547Y-70122183D01*
%TO.N,RANGE_SELECT*%
X156800001Y-75300001D02*
X154500000Y-73000000D01*
X168099998Y-73600001D02*
X167782841Y-73282844D01*
X168597056Y-73600001D02*
X168099998Y-73600001D01*
X169000000Y-73000000D02*
X168948527Y-73000000D01*
X168948527Y-73248530D02*
X168597056Y-73600001D01*
X168948527Y-73000000D02*
X168948527Y-73248530D01*
X167782841Y-73282844D02*
X165765684Y-75300001D01*
X165765684Y-75300001D02*
X156800001Y-75300001D01*
%TO.N,CURRENT_ALERT*%
X164218408Y-71718408D02*
X165500000Y-73000000D01*
X162059435Y-71718408D02*
X164218408Y-71718408D01*
%TO.N,+1.1V*%
X175490340Y-68082708D02*
X175490340Y-67581142D01*
X173210547Y-69300001D02*
X174273047Y-69300001D01*
X173210547Y-69300001D02*
X174010547Y-70100001D01*
X174273047Y-69300001D02*
X175490340Y-68082708D01*
X174010547Y-70100001D02*
X174010547Y-74400001D01*
%TO.N,SWCLK*%
X176750000Y-76250000D02*
X191750000Y-76250000D01*
X191750000Y-76250000D02*
X194750000Y-79250000D01*
%TO.N,SWD*%
X174650000Y-75033340D02*
X175183340Y-74500000D01*
X175183340Y-74500000D02*
X175500000Y-74500000D01*
X182000000Y-82000000D02*
X178000000Y-78000000D01*
X174000000Y-77000000D02*
X174650000Y-76350000D01*
X174650000Y-76350000D02*
X174650000Y-75033340D01*
X195000000Y-82000000D02*
X182000000Y-82000000D01*
X174500000Y-77000000D02*
X174000000Y-77000000D01*
%TO.N,TFT_SCLK*%
X175610547Y-88300001D02*
X175410547Y-88500001D01*
X175610547Y-76500000D02*
X175610547Y-88300001D01*
%TO.N,ROT_A*%
X153000000Y-90000000D02*
X153000000Y-109500000D01*
X172250000Y-74250000D02*
X163000000Y-83500000D01*
X172250000Y-73900003D02*
X172250000Y-74250000D01*
X163000000Y-83500000D02*
X159500000Y-83500000D01*
X159500000Y-83500000D02*
X153000000Y-90000000D01*
%TO.N,ROT_SW*%
X176188366Y-73000000D02*
X178000000Y-73000000D01*
X152600000Y-90400000D02*
X152600000Y-89834314D01*
X174238365Y-74950001D02*
X176188366Y-73000000D01*
X170450000Y-73772182D02*
X170772182Y-73450000D01*
X168500000Y-76500000D02*
X170611091Y-74388909D01*
X144550000Y-94450000D02*
X148550000Y-94450000D01*
X152600000Y-89834314D02*
X159334315Y-83100000D01*
X171227818Y-73450000D02*
X171388909Y-73611091D01*
X166500000Y-76500000D02*
X168500000Y-76500000D01*
X173460547Y-73526233D02*
X173460547Y-74627819D01*
X133500000Y-105500000D02*
X144550000Y-94450000D01*
X148550000Y-94450000D02*
X152600000Y-90400000D01*
X171388909Y-73611091D02*
X172467157Y-72532843D01*
X170450000Y-74227818D02*
X170450000Y-73772182D01*
X159334315Y-83100000D02*
X159900000Y-83100000D01*
X170611091Y-74388909D02*
X170450000Y-74227818D01*
X173782729Y-74950001D02*
X174238365Y-74950001D01*
X159900000Y-83100000D02*
X166500000Y-76500000D01*
X173460547Y-74627819D02*
X173782729Y-74950001D01*
X172467157Y-72532843D02*
X173460547Y-73526233D01*
X170772182Y-73450000D02*
X171227818Y-73450000D01*
X178000000Y-73000000D02*
X178000000Y-72350001D01*
%TO.N,QSPI_IO2*%
X168530274Y-71450000D02*
X170130273Y-69850001D01*
X170960547Y-70000001D02*
X171210547Y-70250001D01*
X167950000Y-71984314D02*
X167950000Y-71772182D01*
X159210547Y-71750001D02*
X161960547Y-74500001D01*
X165434313Y-74500001D02*
X167950000Y-71984314D01*
X167950000Y-71772182D02*
X168272182Y-71450000D01*
X161960547Y-74500001D02*
X165434313Y-74500001D01*
X170957729Y-70000001D02*
X170960547Y-70000001D01*
X170130273Y-69850001D02*
X170807729Y-69850001D01*
X170807729Y-69850001D02*
X170957729Y-70000001D01*
X168272182Y-71450000D02*
X168530274Y-71450000D01*
%TO.N,QSPI_IO1*%
X167550000Y-71818628D02*
X167550000Y-71606496D01*
X168106497Y-71050000D02*
X168364588Y-71050000D01*
X160535547Y-72200001D02*
X162410547Y-74075001D01*
X165293627Y-74075001D02*
X167550000Y-71818628D01*
X169964588Y-69450001D02*
X171185547Y-69450001D01*
X160510547Y-72200001D02*
X160535547Y-72200001D01*
X162410547Y-74075001D02*
X165293627Y-74075001D01*
X167550000Y-71606496D02*
X168106497Y-71050000D01*
X168364588Y-71050000D02*
X169964588Y-69450001D01*
X158660547Y-70350001D02*
X160510547Y-72200001D01*
%TO.N,Net-(U1A--)*%
D40*
X185262500Y-57800000D02*
X172200000Y-57800000D01*
X194062500Y-66600000D02*
X185262500Y-57800000D01*
%TO.N,CURRENT_IN*%
D38*
X151550000Y-63450000D02*
X150500000Y-64500000D01*
X206460000Y-80540000D02*
X192920000Y-67000000D01*
X167038364Y-63450000D02*
X151550000Y-63450000D01*
X170588364Y-67000000D02*
X167038364Y-63450000D01*
X192920000Y-67000000D02*
X170588364Y-67000000D01*
%TO.N,Net-(D7-A)*%
D40*
X171000000Y-48000000D02*
X171000000Y-50650000D01*
X168400000Y-45400000D02*
X171000000Y-48000000D01*
%TO.N,V_SWEEP*%
D38*
X199150000Y-67500000D02*
X200000000Y-67500000D01*
X207860000Y-75360000D02*
X200000000Y-67500000D01*
X207860000Y-75360000D02*
X207860000Y-81680000D01*
X207860000Y-81680000D02*
X206460000Y-83080000D01*
%TO.N,Net-(J3-CC1)*%
D40*
X145200000Y-43400000D02*
X144400000Y-44200000D01*
X145200000Y-42380000D02*
X145200000Y-43400000D01*
%TO.N,Net-(U10-PROG)*%
X174694998Y-46944998D02*
X173500000Y-45750000D01*
X174694998Y-50485000D02*
X174694998Y-46944998D01*
%TD*%
M02*
