%TF.GenerationSoftware,KiCad,Pcbnew,10.0.3*%
%TF.CreationDate,2026-06-19T17:22:03+05:30*%
%TF.ProjectId,Auralab_Workstation_Vishal,41757261-6c61-4625-9f57-6f726b737461,rev?*%
%TF.SameCoordinates,Original*%
%TF.FileFunction,Legend,Top*%
%TF.FilePolarity,Positive*%
%FSLAX46Y46*%
G04 Gerber Fmt 4.6, Leading zero omitted, Abs format (unit mm)*
G04 Created by KiCad (PCBNEW 10.0.3) date 2026-06-19 17:22:03*
%MOMM*%
%LPD*%
G01*
G04 APERTURE LIST*
%ADD10C,0.100000*%
%ADD11C,0.200000*%
%ADD12C,0.150000*%
%ADD13C,0.120000*%
G04 APERTURE END LIST*
D10*
X134000000Y-52750000D02*
X147250000Y-52750000D01*
X147250000Y-59000000D01*
X134000000Y-59000000D01*
X134000000Y-52750000D01*
X152250000Y-86335001D02*
X200400274Y-86335001D01*
X200400274Y-151665000D01*
X152250000Y-151665000D01*
X152250000Y-86335001D01*
X134256265Y-55771895D02*
X134256265Y-54971895D01*
X134256265Y-54971895D02*
X134561027Y-54971895D01*
X134561027Y-54971895D02*
X134637217Y-55009990D01*
X134637217Y-55009990D02*
X134675312Y-55048085D01*
X134675312Y-55048085D02*
X134713408Y-55124276D01*
X134713408Y-55124276D02*
X134713408Y-55238561D01*
X134713408Y-55238561D02*
X134675312Y-55314752D01*
X134675312Y-55314752D02*
X134637217Y-55352847D01*
X134637217Y-55352847D02*
X134561027Y-55390942D01*
X134561027Y-55390942D02*
X134256265Y-55390942D01*
X135437217Y-55771895D02*
X135056265Y-55771895D01*
X135056265Y-55771895D02*
X135056265Y-54971895D01*
X135665788Y-55543323D02*
X136046741Y-55543323D01*
X135589598Y-55771895D02*
X135856265Y-54971895D01*
X135856265Y-54971895D02*
X136122931Y-55771895D01*
X136846741Y-55695704D02*
X136808645Y-55733800D01*
X136808645Y-55733800D02*
X136694360Y-55771895D01*
X136694360Y-55771895D02*
X136618169Y-55771895D01*
X136618169Y-55771895D02*
X136503883Y-55733800D01*
X136503883Y-55733800D02*
X136427693Y-55657609D01*
X136427693Y-55657609D02*
X136389598Y-55581419D01*
X136389598Y-55581419D02*
X136351502Y-55429038D01*
X136351502Y-55429038D02*
X136351502Y-55314752D01*
X136351502Y-55314752D02*
X136389598Y-55162371D01*
X136389598Y-55162371D02*
X136427693Y-55086180D01*
X136427693Y-55086180D02*
X136503883Y-55009990D01*
X136503883Y-55009990D02*
X136618169Y-54971895D01*
X136618169Y-54971895D02*
X136694360Y-54971895D01*
X136694360Y-54971895D02*
X136808645Y-55009990D01*
X136808645Y-55009990D02*
X136846741Y-55048085D01*
X137189598Y-55352847D02*
X137456264Y-55352847D01*
X137570550Y-55771895D02*
X137189598Y-55771895D01*
X137189598Y-55771895D02*
X137189598Y-54971895D01*
X137189598Y-54971895D02*
X137570550Y-54971895D01*
X138789598Y-55352847D02*
X138903884Y-55390942D01*
X138903884Y-55390942D02*
X138941979Y-55429038D01*
X138941979Y-55429038D02*
X138980075Y-55505228D01*
X138980075Y-55505228D02*
X138980075Y-55619514D01*
X138980075Y-55619514D02*
X138941979Y-55695704D01*
X138941979Y-55695704D02*
X138903884Y-55733800D01*
X138903884Y-55733800D02*
X138827694Y-55771895D01*
X138827694Y-55771895D02*
X138522932Y-55771895D01*
X138522932Y-55771895D02*
X138522932Y-54971895D01*
X138522932Y-54971895D02*
X138789598Y-54971895D01*
X138789598Y-54971895D02*
X138865789Y-55009990D01*
X138865789Y-55009990D02*
X138903884Y-55048085D01*
X138903884Y-55048085D02*
X138941979Y-55124276D01*
X138941979Y-55124276D02*
X138941979Y-55200466D01*
X138941979Y-55200466D02*
X138903884Y-55276657D01*
X138903884Y-55276657D02*
X138865789Y-55314752D01*
X138865789Y-55314752D02*
X138789598Y-55352847D01*
X138789598Y-55352847D02*
X138522932Y-55352847D01*
X139284836Y-55543323D02*
X139665789Y-55543323D01*
X139208646Y-55771895D02*
X139475313Y-54971895D01*
X139475313Y-54971895D02*
X139741979Y-55771895D01*
X139894360Y-54971895D02*
X140351503Y-54971895D01*
X140122931Y-55771895D02*
X140122931Y-54971895D01*
X140503884Y-54971895D02*
X140961027Y-54971895D01*
X140732455Y-55771895D02*
X140732455Y-54971895D01*
X141227694Y-55352847D02*
X141494360Y-55352847D01*
X141608646Y-55771895D02*
X141227694Y-55771895D01*
X141227694Y-55771895D02*
X141227694Y-54971895D01*
X141227694Y-54971895D02*
X141608646Y-54971895D01*
X142408647Y-55771895D02*
X142141980Y-55390942D01*
X141951504Y-55771895D02*
X141951504Y-54971895D01*
X141951504Y-54971895D02*
X142256266Y-54971895D01*
X142256266Y-54971895D02*
X142332456Y-55009990D01*
X142332456Y-55009990D02*
X142370551Y-55048085D01*
X142370551Y-55048085D02*
X142408647Y-55124276D01*
X142408647Y-55124276D02*
X142408647Y-55238561D01*
X142408647Y-55238561D02*
X142370551Y-55314752D01*
X142370551Y-55314752D02*
X142332456Y-55352847D01*
X142332456Y-55352847D02*
X142256266Y-55390942D01*
X142256266Y-55390942D02*
X141951504Y-55390942D01*
X142903885Y-55390942D02*
X142903885Y-55771895D01*
X142637218Y-54971895D02*
X142903885Y-55390942D01*
X142903885Y-55390942D02*
X143170551Y-54971895D01*
X144046742Y-55771895D02*
X144046742Y-54971895D01*
X144046742Y-55352847D02*
X144503885Y-55352847D01*
X144503885Y-55771895D02*
X144503885Y-54971895D01*
X144884837Y-55352847D02*
X145151503Y-55352847D01*
X145265789Y-55771895D02*
X144884837Y-55771895D01*
X144884837Y-55771895D02*
X144884837Y-54971895D01*
X144884837Y-54971895D02*
X145265789Y-54971895D01*
X146065790Y-55771895D02*
X145799123Y-55390942D01*
X145608647Y-55771895D02*
X145608647Y-54971895D01*
X145608647Y-54971895D02*
X145913409Y-54971895D01*
X145913409Y-54971895D02*
X145989599Y-55009990D01*
X145989599Y-55009990D02*
X146027694Y-55048085D01*
X146027694Y-55048085D02*
X146065790Y-55124276D01*
X146065790Y-55124276D02*
X146065790Y-55238561D01*
X146065790Y-55238561D02*
X146027694Y-55314752D01*
X146027694Y-55314752D02*
X145989599Y-55352847D01*
X145989599Y-55352847D02*
X145913409Y-55390942D01*
X145913409Y-55390942D02*
X145608647Y-55390942D01*
X146408647Y-55352847D02*
X146675313Y-55352847D01*
X146789599Y-55771895D02*
X146408647Y-55771895D01*
X146408647Y-55771895D02*
X146408647Y-54971895D01*
X146408647Y-54971895D02*
X146789599Y-54971895D01*
D11*
X167547619Y-118367219D02*
X168119047Y-118367219D01*
X167833333Y-119367219D02*
X167833333Y-118367219D01*
X168785714Y-118843409D02*
X168452381Y-118843409D01*
X168452381Y-119367219D02*
X168452381Y-118367219D01*
X168452381Y-118367219D02*
X168928571Y-118367219D01*
X169166667Y-118367219D02*
X169738095Y-118367219D01*
X169452381Y-119367219D02*
X169452381Y-118367219D01*
X170833334Y-119367219D02*
X170833334Y-118367219D01*
X170833334Y-118367219D02*
X171071429Y-118367219D01*
X171071429Y-118367219D02*
X171214286Y-118414838D01*
X171214286Y-118414838D02*
X171309524Y-118510076D01*
X171309524Y-118510076D02*
X171357143Y-118605314D01*
X171357143Y-118605314D02*
X171404762Y-118795790D01*
X171404762Y-118795790D02*
X171404762Y-118938647D01*
X171404762Y-118938647D02*
X171357143Y-119129123D01*
X171357143Y-119129123D02*
X171309524Y-119224361D01*
X171309524Y-119224361D02*
X171214286Y-119319600D01*
X171214286Y-119319600D02*
X171071429Y-119367219D01*
X171071429Y-119367219D02*
X170833334Y-119367219D01*
X171833334Y-119367219D02*
X171833334Y-118367219D01*
X172261905Y-119319600D02*
X172404762Y-119367219D01*
X172404762Y-119367219D02*
X172642857Y-119367219D01*
X172642857Y-119367219D02*
X172738095Y-119319600D01*
X172738095Y-119319600D02*
X172785714Y-119271980D01*
X172785714Y-119271980D02*
X172833333Y-119176742D01*
X172833333Y-119176742D02*
X172833333Y-119081504D01*
X172833333Y-119081504D02*
X172785714Y-118986266D01*
X172785714Y-118986266D02*
X172738095Y-118938647D01*
X172738095Y-118938647D02*
X172642857Y-118891028D01*
X172642857Y-118891028D02*
X172452381Y-118843409D01*
X172452381Y-118843409D02*
X172357143Y-118795790D01*
X172357143Y-118795790D02*
X172309524Y-118748171D01*
X172309524Y-118748171D02*
X172261905Y-118652933D01*
X172261905Y-118652933D02*
X172261905Y-118557695D01*
X172261905Y-118557695D02*
X172309524Y-118462457D01*
X172309524Y-118462457D02*
X172357143Y-118414838D01*
X172357143Y-118414838D02*
X172452381Y-118367219D01*
X172452381Y-118367219D02*
X172690476Y-118367219D01*
X172690476Y-118367219D02*
X172833333Y-118414838D01*
X173261905Y-119367219D02*
X173261905Y-118367219D01*
X173261905Y-118367219D02*
X173642857Y-118367219D01*
X173642857Y-118367219D02*
X173738095Y-118414838D01*
X173738095Y-118414838D02*
X173785714Y-118462457D01*
X173785714Y-118462457D02*
X173833333Y-118557695D01*
X173833333Y-118557695D02*
X173833333Y-118700552D01*
X173833333Y-118700552D02*
X173785714Y-118795790D01*
X173785714Y-118795790D02*
X173738095Y-118843409D01*
X173738095Y-118843409D02*
X173642857Y-118891028D01*
X173642857Y-118891028D02*
X173261905Y-118891028D01*
X174738095Y-119367219D02*
X174261905Y-119367219D01*
X174261905Y-119367219D02*
X174261905Y-118367219D01*
X175023810Y-119081504D02*
X175500000Y-119081504D01*
X174928572Y-119367219D02*
X175261905Y-118367219D01*
X175261905Y-118367219D02*
X175595238Y-119367219D01*
X176119048Y-118891028D02*
X176119048Y-119367219D01*
X175785715Y-118367219D02*
X176119048Y-118891028D01*
X176119048Y-118891028D02*
X176452381Y-118367219D01*
D12*
X193357142Y-84109580D02*
X193309523Y-84157200D01*
X193309523Y-84157200D02*
X193166666Y-84204819D01*
X193166666Y-84204819D02*
X193071428Y-84204819D01*
X193071428Y-84204819D02*
X192928571Y-84157200D01*
X192928571Y-84157200D02*
X192833333Y-84061961D01*
X192833333Y-84061961D02*
X192785714Y-83966723D01*
X192785714Y-83966723D02*
X192738095Y-83776247D01*
X192738095Y-83776247D02*
X192738095Y-83633390D01*
X192738095Y-83633390D02*
X192785714Y-83442914D01*
X192785714Y-83442914D02*
X192833333Y-83347676D01*
X192833333Y-83347676D02*
X192928571Y-83252438D01*
X192928571Y-83252438D02*
X193071428Y-83204819D01*
X193071428Y-83204819D02*
X193166666Y-83204819D01*
X193166666Y-83204819D02*
X193309523Y-83252438D01*
X193309523Y-83252438D02*
X193357142Y-83300057D01*
X194309523Y-84204819D02*
X193738095Y-84204819D01*
X194023809Y-84204819D02*
X194023809Y-83204819D01*
X194023809Y-83204819D02*
X193928571Y-83347676D01*
X193928571Y-83347676D02*
X193833333Y-83442914D01*
X193833333Y-83442914D02*
X193738095Y-83490533D01*
X194690476Y-83300057D02*
X194738095Y-83252438D01*
X194738095Y-83252438D02*
X194833333Y-83204819D01*
X194833333Y-83204819D02*
X195071428Y-83204819D01*
X195071428Y-83204819D02*
X195166666Y-83252438D01*
X195166666Y-83252438D02*
X195214285Y-83300057D01*
X195214285Y-83300057D02*
X195261904Y-83395295D01*
X195261904Y-83395295D02*
X195261904Y-83490533D01*
X195261904Y-83490533D02*
X195214285Y-83633390D01*
X195214285Y-83633390D02*
X194642857Y-84204819D01*
X194642857Y-84204819D02*
X195261904Y-84204819D01*
X149238095Y-40204819D02*
X149238095Y-41014342D01*
X149238095Y-41014342D02*
X149285714Y-41109580D01*
X149285714Y-41109580D02*
X149333333Y-41157200D01*
X149333333Y-41157200D02*
X149428571Y-41204819D01*
X149428571Y-41204819D02*
X149619047Y-41204819D01*
X149619047Y-41204819D02*
X149714285Y-41157200D01*
X149714285Y-41157200D02*
X149761904Y-41109580D01*
X149761904Y-41109580D02*
X149809523Y-41014342D01*
X149809523Y-41014342D02*
X149809523Y-40204819D01*
X150714285Y-40204819D02*
X150523809Y-40204819D01*
X150523809Y-40204819D02*
X150428571Y-40252438D01*
X150428571Y-40252438D02*
X150380952Y-40300057D01*
X150380952Y-40300057D02*
X150285714Y-40442914D01*
X150285714Y-40442914D02*
X150238095Y-40633390D01*
X150238095Y-40633390D02*
X150238095Y-41014342D01*
X150238095Y-41014342D02*
X150285714Y-41109580D01*
X150285714Y-41109580D02*
X150333333Y-41157200D01*
X150333333Y-41157200D02*
X150428571Y-41204819D01*
X150428571Y-41204819D02*
X150619047Y-41204819D01*
X150619047Y-41204819D02*
X150714285Y-41157200D01*
X150714285Y-41157200D02*
X150761904Y-41109580D01*
X150761904Y-41109580D02*
X150809523Y-41014342D01*
X150809523Y-41014342D02*
X150809523Y-40776247D01*
X150809523Y-40776247D02*
X150761904Y-40681009D01*
X150761904Y-40681009D02*
X150714285Y-40633390D01*
X150714285Y-40633390D02*
X150619047Y-40585771D01*
X150619047Y-40585771D02*
X150428571Y-40585771D01*
X150428571Y-40585771D02*
X150333333Y-40633390D01*
X150333333Y-40633390D02*
X150285714Y-40681009D01*
X150285714Y-40681009D02*
X150238095Y-40776247D01*
X150488095Y-80704819D02*
X150488095Y-81514342D01*
X150488095Y-81514342D02*
X150535714Y-81609580D01*
X150535714Y-81609580D02*
X150583333Y-81657200D01*
X150583333Y-81657200D02*
X150678571Y-81704819D01*
X150678571Y-81704819D02*
X150869047Y-81704819D01*
X150869047Y-81704819D02*
X150964285Y-81657200D01*
X150964285Y-81657200D02*
X151011904Y-81609580D01*
X151011904Y-81609580D02*
X151059523Y-81514342D01*
X151059523Y-81514342D02*
X151059523Y-80704819D01*
X151964285Y-81038152D02*
X151964285Y-81704819D01*
X151726190Y-80657200D02*
X151488095Y-81371485D01*
X151488095Y-81371485D02*
X152107142Y-81371485D01*
X144083333Y-85704819D02*
X143607143Y-85704819D01*
X143607143Y-85704819D02*
X143607143Y-84704819D01*
X144940476Y-85704819D02*
X144369048Y-85704819D01*
X144654762Y-85704819D02*
X144654762Y-84704819D01*
X144654762Y-84704819D02*
X144559524Y-84847676D01*
X144559524Y-84847676D02*
X144464286Y-84942914D01*
X144464286Y-84942914D02*
X144369048Y-84990533D01*
X205619047Y-121331009D02*
X205761904Y-121378628D01*
X205761904Y-121378628D02*
X205809523Y-121426247D01*
X205809523Y-121426247D02*
X205857142Y-121521485D01*
X205857142Y-121521485D02*
X205857142Y-121664342D01*
X205857142Y-121664342D02*
X205809523Y-121759580D01*
X205809523Y-121759580D02*
X205761904Y-121807200D01*
X205761904Y-121807200D02*
X205666666Y-121854819D01*
X205666666Y-121854819D02*
X205285714Y-121854819D01*
X205285714Y-121854819D02*
X205285714Y-120854819D01*
X205285714Y-120854819D02*
X205619047Y-120854819D01*
X205619047Y-120854819D02*
X205714285Y-120902438D01*
X205714285Y-120902438D02*
X205761904Y-120950057D01*
X205761904Y-120950057D02*
X205809523Y-121045295D01*
X205809523Y-121045295D02*
X205809523Y-121140533D01*
X205809523Y-121140533D02*
X205761904Y-121235771D01*
X205761904Y-121235771D02*
X205714285Y-121283390D01*
X205714285Y-121283390D02*
X205619047Y-121331009D01*
X205619047Y-121331009D02*
X205285714Y-121331009D01*
X206190476Y-120854819D02*
X206857142Y-120854819D01*
X206857142Y-120854819D02*
X206190476Y-121854819D01*
X206190476Y-121854819D02*
X206857142Y-121854819D01*
X207761904Y-121854819D02*
X207190476Y-121854819D01*
X207476190Y-121854819D02*
X207476190Y-120854819D01*
X207476190Y-120854819D02*
X207380952Y-120997676D01*
X207380952Y-120997676D02*
X207285714Y-121092914D01*
X207285714Y-121092914D02*
X207190476Y-121140533D01*
X177718880Y-85909581D02*
X177671261Y-85957201D01*
X177671261Y-85957201D02*
X177528404Y-86004820D01*
X177528404Y-86004820D02*
X177433166Y-86004820D01*
X177433166Y-86004820D02*
X177290309Y-85957201D01*
X177290309Y-85957201D02*
X177195071Y-85861962D01*
X177195071Y-85861962D02*
X177147452Y-85766724D01*
X177147452Y-85766724D02*
X177099833Y-85576248D01*
X177099833Y-85576248D02*
X177099833Y-85433391D01*
X177099833Y-85433391D02*
X177147452Y-85242915D01*
X177147452Y-85242915D02*
X177195071Y-85147677D01*
X177195071Y-85147677D02*
X177290309Y-85052439D01*
X177290309Y-85052439D02*
X177433166Y-85004820D01*
X177433166Y-85004820D02*
X177528404Y-85004820D01*
X177528404Y-85004820D02*
X177671261Y-85052439D01*
X177671261Y-85052439D02*
X177718880Y-85100058D01*
X178290309Y-85433391D02*
X178195071Y-85385772D01*
X178195071Y-85385772D02*
X178147452Y-85338153D01*
X178147452Y-85338153D02*
X178099833Y-85242915D01*
X178099833Y-85242915D02*
X178099833Y-85195296D01*
X178099833Y-85195296D02*
X178147452Y-85100058D01*
X178147452Y-85100058D02*
X178195071Y-85052439D01*
X178195071Y-85052439D02*
X178290309Y-85004820D01*
X178290309Y-85004820D02*
X178480785Y-85004820D01*
X178480785Y-85004820D02*
X178576023Y-85052439D01*
X178576023Y-85052439D02*
X178623642Y-85100058D01*
X178623642Y-85100058D02*
X178671261Y-85195296D01*
X178671261Y-85195296D02*
X178671261Y-85242915D01*
X178671261Y-85242915D02*
X178623642Y-85338153D01*
X178623642Y-85338153D02*
X178576023Y-85385772D01*
X178576023Y-85385772D02*
X178480785Y-85433391D01*
X178480785Y-85433391D02*
X178290309Y-85433391D01*
X178290309Y-85433391D02*
X178195071Y-85481010D01*
X178195071Y-85481010D02*
X178147452Y-85528629D01*
X178147452Y-85528629D02*
X178099833Y-85623867D01*
X178099833Y-85623867D02*
X178099833Y-85814343D01*
X178099833Y-85814343D02*
X178147452Y-85909581D01*
X178147452Y-85909581D02*
X178195071Y-85957201D01*
X178195071Y-85957201D02*
X178290309Y-86004820D01*
X178290309Y-86004820D02*
X178480785Y-86004820D01*
X178480785Y-86004820D02*
X178576023Y-85957201D01*
X178576023Y-85957201D02*
X178623642Y-85909581D01*
X178623642Y-85909581D02*
X178671261Y-85814343D01*
X178671261Y-85814343D02*
X178671261Y-85623867D01*
X178671261Y-85623867D02*
X178623642Y-85528629D01*
X178623642Y-85528629D02*
X178576023Y-85481010D01*
X178576023Y-85481010D02*
X178480785Y-85433391D01*
X164607142Y-47704819D02*
X164273809Y-47228628D01*
X164035714Y-47704819D02*
X164035714Y-46704819D01*
X164035714Y-46704819D02*
X164416666Y-46704819D01*
X164416666Y-46704819D02*
X164511904Y-46752438D01*
X164511904Y-46752438D02*
X164559523Y-46800057D01*
X164559523Y-46800057D02*
X164607142Y-46895295D01*
X164607142Y-46895295D02*
X164607142Y-47038152D01*
X164607142Y-47038152D02*
X164559523Y-47133390D01*
X164559523Y-47133390D02*
X164511904Y-47181009D01*
X164511904Y-47181009D02*
X164416666Y-47228628D01*
X164416666Y-47228628D02*
X164035714Y-47228628D01*
X165559523Y-47704819D02*
X164988095Y-47704819D01*
X165273809Y-47704819D02*
X165273809Y-46704819D01*
X165273809Y-46704819D02*
X165178571Y-46847676D01*
X165178571Y-46847676D02*
X165083333Y-46942914D01*
X165083333Y-46942914D02*
X164988095Y-46990533D01*
X166035714Y-47704819D02*
X166226190Y-47704819D01*
X166226190Y-47704819D02*
X166321428Y-47657200D01*
X166321428Y-47657200D02*
X166369047Y-47609580D01*
X166369047Y-47609580D02*
X166464285Y-47466723D01*
X166464285Y-47466723D02*
X166511904Y-47276247D01*
X166511904Y-47276247D02*
X166511904Y-46895295D01*
X166511904Y-46895295D02*
X166464285Y-46800057D01*
X166464285Y-46800057D02*
X166416666Y-46752438D01*
X166416666Y-46752438D02*
X166321428Y-46704819D01*
X166321428Y-46704819D02*
X166130952Y-46704819D01*
X166130952Y-46704819D02*
X166035714Y-46752438D01*
X166035714Y-46752438D02*
X165988095Y-46800057D01*
X165988095Y-46800057D02*
X165940476Y-46895295D01*
X165940476Y-46895295D02*
X165940476Y-47133390D01*
X165940476Y-47133390D02*
X165988095Y-47228628D01*
X165988095Y-47228628D02*
X166035714Y-47276247D01*
X166035714Y-47276247D02*
X166130952Y-47323866D01*
X166130952Y-47323866D02*
X166321428Y-47323866D01*
X166321428Y-47323866D02*
X166416666Y-47276247D01*
X166416666Y-47276247D02*
X166464285Y-47228628D01*
X166464285Y-47228628D02*
X166511904Y-47133390D01*
X167857142Y-47954819D02*
X167523809Y-47478628D01*
X167285714Y-47954819D02*
X167285714Y-46954819D01*
X167285714Y-46954819D02*
X167666666Y-46954819D01*
X167666666Y-46954819D02*
X167761904Y-47002438D01*
X167761904Y-47002438D02*
X167809523Y-47050057D01*
X167809523Y-47050057D02*
X167857142Y-47145295D01*
X167857142Y-47145295D02*
X167857142Y-47288152D01*
X167857142Y-47288152D02*
X167809523Y-47383390D01*
X167809523Y-47383390D02*
X167761904Y-47431009D01*
X167761904Y-47431009D02*
X167666666Y-47478628D01*
X167666666Y-47478628D02*
X167285714Y-47478628D01*
X168809523Y-47954819D02*
X168238095Y-47954819D01*
X168523809Y-47954819D02*
X168523809Y-46954819D01*
X168523809Y-46954819D02*
X168428571Y-47097676D01*
X168428571Y-47097676D02*
X168333333Y-47192914D01*
X168333333Y-47192914D02*
X168238095Y-47240533D01*
X169428571Y-46954819D02*
X169523809Y-46954819D01*
X169523809Y-46954819D02*
X169619047Y-47002438D01*
X169619047Y-47002438D02*
X169666666Y-47050057D01*
X169666666Y-47050057D02*
X169714285Y-47145295D01*
X169714285Y-47145295D02*
X169761904Y-47335771D01*
X169761904Y-47335771D02*
X169761904Y-47573866D01*
X169761904Y-47573866D02*
X169714285Y-47764342D01*
X169714285Y-47764342D02*
X169666666Y-47859580D01*
X169666666Y-47859580D02*
X169619047Y-47907200D01*
X169619047Y-47907200D02*
X169523809Y-47954819D01*
X169523809Y-47954819D02*
X169428571Y-47954819D01*
X169428571Y-47954819D02*
X169333333Y-47907200D01*
X169333333Y-47907200D02*
X169285714Y-47859580D01*
X169285714Y-47859580D02*
X169238095Y-47764342D01*
X169238095Y-47764342D02*
X169190476Y-47573866D01*
X169190476Y-47573866D02*
X169190476Y-47335771D01*
X169190476Y-47335771D02*
X169238095Y-47145295D01*
X169238095Y-47145295D02*
X169285714Y-47050057D01*
X169285714Y-47050057D02*
X169333333Y-47002438D01*
X169333333Y-47002438D02*
X169428571Y-46954819D01*
X191083333Y-55039580D02*
X191035714Y-55087200D01*
X191035714Y-55087200D02*
X190892857Y-55134819D01*
X190892857Y-55134819D02*
X190797619Y-55134819D01*
X190797619Y-55134819D02*
X190654762Y-55087200D01*
X190654762Y-55087200D02*
X190559524Y-54991961D01*
X190559524Y-54991961D02*
X190511905Y-54896723D01*
X190511905Y-54896723D02*
X190464286Y-54706247D01*
X190464286Y-54706247D02*
X190464286Y-54563390D01*
X190464286Y-54563390D02*
X190511905Y-54372914D01*
X190511905Y-54372914D02*
X190559524Y-54277676D01*
X190559524Y-54277676D02*
X190654762Y-54182438D01*
X190654762Y-54182438D02*
X190797619Y-54134819D01*
X190797619Y-54134819D02*
X190892857Y-54134819D01*
X190892857Y-54134819D02*
X191035714Y-54182438D01*
X191035714Y-54182438D02*
X191083333Y-54230057D01*
X192035714Y-55134819D02*
X191464286Y-55134819D01*
X191750000Y-55134819D02*
X191750000Y-54134819D01*
X191750000Y-54134819D02*
X191654762Y-54277676D01*
X191654762Y-54277676D02*
X191559524Y-54372914D01*
X191559524Y-54372914D02*
X191464286Y-54420533D01*
X161661905Y-52854819D02*
X161661905Y-51854819D01*
X161661905Y-51854819D02*
X161900000Y-51854819D01*
X161900000Y-51854819D02*
X162042857Y-51902438D01*
X162042857Y-51902438D02*
X162138095Y-51997676D01*
X162138095Y-51997676D02*
X162185714Y-52092914D01*
X162185714Y-52092914D02*
X162233333Y-52283390D01*
X162233333Y-52283390D02*
X162233333Y-52426247D01*
X162233333Y-52426247D02*
X162185714Y-52616723D01*
X162185714Y-52616723D02*
X162138095Y-52711961D01*
X162138095Y-52711961D02*
X162042857Y-52807200D01*
X162042857Y-52807200D02*
X161900000Y-52854819D01*
X161900000Y-52854819D02*
X161661905Y-52854819D01*
X162804762Y-52283390D02*
X162709524Y-52235771D01*
X162709524Y-52235771D02*
X162661905Y-52188152D01*
X162661905Y-52188152D02*
X162614286Y-52092914D01*
X162614286Y-52092914D02*
X162614286Y-52045295D01*
X162614286Y-52045295D02*
X162661905Y-51950057D01*
X162661905Y-51950057D02*
X162709524Y-51902438D01*
X162709524Y-51902438D02*
X162804762Y-51854819D01*
X162804762Y-51854819D02*
X162995238Y-51854819D01*
X162995238Y-51854819D02*
X163090476Y-51902438D01*
X163090476Y-51902438D02*
X163138095Y-51950057D01*
X163138095Y-51950057D02*
X163185714Y-52045295D01*
X163185714Y-52045295D02*
X163185714Y-52092914D01*
X163185714Y-52092914D02*
X163138095Y-52188152D01*
X163138095Y-52188152D02*
X163090476Y-52235771D01*
X163090476Y-52235771D02*
X162995238Y-52283390D01*
X162995238Y-52283390D02*
X162804762Y-52283390D01*
X162804762Y-52283390D02*
X162709524Y-52331009D01*
X162709524Y-52331009D02*
X162661905Y-52378628D01*
X162661905Y-52378628D02*
X162614286Y-52473866D01*
X162614286Y-52473866D02*
X162614286Y-52664342D01*
X162614286Y-52664342D02*
X162661905Y-52759580D01*
X162661905Y-52759580D02*
X162709524Y-52807200D01*
X162709524Y-52807200D02*
X162804762Y-52854819D01*
X162804762Y-52854819D02*
X162995238Y-52854819D01*
X162995238Y-52854819D02*
X163090476Y-52807200D01*
X163090476Y-52807200D02*
X163138095Y-52759580D01*
X163138095Y-52759580D02*
X163185714Y-52664342D01*
X163185714Y-52664342D02*
X163185714Y-52473866D01*
X163185714Y-52473866D02*
X163138095Y-52378628D01*
X163138095Y-52378628D02*
X163090476Y-52331009D01*
X163090476Y-52331009D02*
X162995238Y-52283390D01*
X132357142Y-89254819D02*
X132023809Y-88778628D01*
X131785714Y-89254819D02*
X131785714Y-88254819D01*
X131785714Y-88254819D02*
X132166666Y-88254819D01*
X132166666Y-88254819D02*
X132261904Y-88302438D01*
X132261904Y-88302438D02*
X132309523Y-88350057D01*
X132309523Y-88350057D02*
X132357142Y-88445295D01*
X132357142Y-88445295D02*
X132357142Y-88588152D01*
X132357142Y-88588152D02*
X132309523Y-88683390D01*
X132309523Y-88683390D02*
X132261904Y-88731009D01*
X132261904Y-88731009D02*
X132166666Y-88778628D01*
X132166666Y-88778628D02*
X131785714Y-88778628D01*
X133309523Y-89254819D02*
X132738095Y-89254819D01*
X133023809Y-89254819D02*
X133023809Y-88254819D01*
X133023809Y-88254819D02*
X132928571Y-88397676D01*
X132928571Y-88397676D02*
X132833333Y-88492914D01*
X132833333Y-88492914D02*
X132738095Y-88540533D01*
X133642857Y-88254819D02*
X134309523Y-88254819D01*
X134309523Y-88254819D02*
X133880952Y-89254819D01*
X202607142Y-104954819D02*
X202273809Y-104478628D01*
X202035714Y-104954819D02*
X202035714Y-103954819D01*
X202035714Y-103954819D02*
X202416666Y-103954819D01*
X202416666Y-103954819D02*
X202511904Y-104002438D01*
X202511904Y-104002438D02*
X202559523Y-104050057D01*
X202559523Y-104050057D02*
X202607142Y-104145295D01*
X202607142Y-104145295D02*
X202607142Y-104288152D01*
X202607142Y-104288152D02*
X202559523Y-104383390D01*
X202559523Y-104383390D02*
X202511904Y-104431009D01*
X202511904Y-104431009D02*
X202416666Y-104478628D01*
X202416666Y-104478628D02*
X202035714Y-104478628D01*
X203559523Y-104954819D02*
X202988095Y-104954819D01*
X203273809Y-104954819D02*
X203273809Y-103954819D01*
X203273809Y-103954819D02*
X203178571Y-104097676D01*
X203178571Y-104097676D02*
X203083333Y-104192914D01*
X203083333Y-104192914D02*
X202988095Y-104240533D01*
X203892857Y-103954819D02*
X204511904Y-103954819D01*
X204511904Y-103954819D02*
X204178571Y-104335771D01*
X204178571Y-104335771D02*
X204321428Y-104335771D01*
X204321428Y-104335771D02*
X204416666Y-104383390D01*
X204416666Y-104383390D02*
X204464285Y-104431009D01*
X204464285Y-104431009D02*
X204511904Y-104526247D01*
X204511904Y-104526247D02*
X204511904Y-104764342D01*
X204511904Y-104764342D02*
X204464285Y-104859580D01*
X204464285Y-104859580D02*
X204416666Y-104907200D01*
X204416666Y-104907200D02*
X204321428Y-104954819D01*
X204321428Y-104954819D02*
X204035714Y-104954819D01*
X204035714Y-104954819D02*
X203940476Y-104907200D01*
X203940476Y-104907200D02*
X203892857Y-104859580D01*
X159877213Y-40254820D02*
X159877213Y-40969105D01*
X159877213Y-40969105D02*
X159829594Y-41111962D01*
X159829594Y-41111962D02*
X159734356Y-41207201D01*
X159734356Y-41207201D02*
X159591499Y-41254820D01*
X159591499Y-41254820D02*
X159496261Y-41254820D01*
X160829594Y-40254820D02*
X160353404Y-40254820D01*
X160353404Y-40254820D02*
X160305785Y-40731010D01*
X160305785Y-40731010D02*
X160353404Y-40683391D01*
X160353404Y-40683391D02*
X160448642Y-40635772D01*
X160448642Y-40635772D02*
X160686737Y-40635772D01*
X160686737Y-40635772D02*
X160781975Y-40683391D01*
X160781975Y-40683391D02*
X160829594Y-40731010D01*
X160829594Y-40731010D02*
X160877213Y-40826248D01*
X160877213Y-40826248D02*
X160877213Y-41064343D01*
X160877213Y-41064343D02*
X160829594Y-41159581D01*
X160829594Y-41159581D02*
X160781975Y-41207201D01*
X160781975Y-41207201D02*
X160686737Y-41254820D01*
X160686737Y-41254820D02*
X160448642Y-41254820D01*
X160448642Y-41254820D02*
X160353404Y-41207201D01*
X160353404Y-41207201D02*
X160305785Y-41159581D01*
X182543880Y-72454820D02*
X182543880Y-71454820D01*
X182543880Y-71454820D02*
X182781975Y-71454820D01*
X182781975Y-71454820D02*
X182924832Y-71502439D01*
X182924832Y-71502439D02*
X183020070Y-71597677D01*
X183020070Y-71597677D02*
X183067689Y-71692915D01*
X183067689Y-71692915D02*
X183115308Y-71883391D01*
X183115308Y-71883391D02*
X183115308Y-72026248D01*
X183115308Y-72026248D02*
X183067689Y-72216724D01*
X183067689Y-72216724D02*
X183020070Y-72311962D01*
X183020070Y-72311962D02*
X182924832Y-72407201D01*
X182924832Y-72407201D02*
X182781975Y-72454820D01*
X182781975Y-72454820D02*
X182543880Y-72454820D01*
X183877213Y-71931010D02*
X183543880Y-71931010D01*
X183543880Y-72454820D02*
X183543880Y-71454820D01*
X183543880Y-71454820D02*
X184020070Y-71454820D01*
X184924832Y-72454820D02*
X184353404Y-72454820D01*
X184639118Y-72454820D02*
X184639118Y-71454820D01*
X184639118Y-71454820D02*
X184543880Y-71597677D01*
X184543880Y-71597677D02*
X184448642Y-71692915D01*
X184448642Y-71692915D02*
X184353404Y-71740534D01*
X172023809Y-85728628D02*
X172023809Y-86204819D01*
X171690476Y-85204819D02*
X172023809Y-85728628D01*
X172023809Y-85728628D02*
X172357142Y-85204819D01*
X173214285Y-86204819D02*
X172642857Y-86204819D01*
X172928571Y-86204819D02*
X172928571Y-85204819D01*
X172928571Y-85204819D02*
X172833333Y-85347676D01*
X172833333Y-85347676D02*
X172738095Y-85442914D01*
X172738095Y-85442914D02*
X172642857Y-85490533D01*
X131666667Y-99607200D02*
X131809524Y-99654819D01*
X131809524Y-99654819D02*
X132047619Y-99654819D01*
X132047619Y-99654819D02*
X132142857Y-99607200D01*
X132142857Y-99607200D02*
X132190476Y-99559580D01*
X132190476Y-99559580D02*
X132238095Y-99464342D01*
X132238095Y-99464342D02*
X132238095Y-99369104D01*
X132238095Y-99369104D02*
X132190476Y-99273866D01*
X132190476Y-99273866D02*
X132142857Y-99226247D01*
X132142857Y-99226247D02*
X132047619Y-99178628D01*
X132047619Y-99178628D02*
X131857143Y-99131009D01*
X131857143Y-99131009D02*
X131761905Y-99083390D01*
X131761905Y-99083390D02*
X131714286Y-99035771D01*
X131714286Y-99035771D02*
X131666667Y-98940533D01*
X131666667Y-98940533D02*
X131666667Y-98845295D01*
X131666667Y-98845295D02*
X131714286Y-98750057D01*
X131714286Y-98750057D02*
X131761905Y-98702438D01*
X131761905Y-98702438D02*
X131857143Y-98654819D01*
X131857143Y-98654819D02*
X132095238Y-98654819D01*
X132095238Y-98654819D02*
X132238095Y-98702438D01*
X132571429Y-98654819D02*
X132809524Y-99654819D01*
X132809524Y-99654819D02*
X133000000Y-98940533D01*
X133000000Y-98940533D02*
X133190476Y-99654819D01*
X133190476Y-99654819D02*
X133428572Y-98654819D01*
X133714286Y-98654819D02*
X134333333Y-98654819D01*
X134333333Y-98654819D02*
X134000000Y-99035771D01*
X134000000Y-99035771D02*
X134142857Y-99035771D01*
X134142857Y-99035771D02*
X134238095Y-99083390D01*
X134238095Y-99083390D02*
X134285714Y-99131009D01*
X134285714Y-99131009D02*
X134333333Y-99226247D01*
X134333333Y-99226247D02*
X134333333Y-99464342D01*
X134333333Y-99464342D02*
X134285714Y-99559580D01*
X134285714Y-99559580D02*
X134238095Y-99607200D01*
X134238095Y-99607200D02*
X134142857Y-99654819D01*
X134142857Y-99654819D02*
X133857143Y-99654819D01*
X133857143Y-99654819D02*
X133761905Y-99607200D01*
X133761905Y-99607200D02*
X133714286Y-99559580D01*
X188357142Y-65654819D02*
X188023809Y-65178628D01*
X187785714Y-65654819D02*
X187785714Y-64654819D01*
X187785714Y-64654819D02*
X188166666Y-64654819D01*
X188166666Y-64654819D02*
X188261904Y-64702438D01*
X188261904Y-64702438D02*
X188309523Y-64750057D01*
X188309523Y-64750057D02*
X188357142Y-64845295D01*
X188357142Y-64845295D02*
X188357142Y-64988152D01*
X188357142Y-64988152D02*
X188309523Y-65083390D01*
X188309523Y-65083390D02*
X188261904Y-65131009D01*
X188261904Y-65131009D02*
X188166666Y-65178628D01*
X188166666Y-65178628D02*
X187785714Y-65178628D01*
X188738095Y-64750057D02*
X188785714Y-64702438D01*
X188785714Y-64702438D02*
X188880952Y-64654819D01*
X188880952Y-64654819D02*
X189119047Y-64654819D01*
X189119047Y-64654819D02*
X189214285Y-64702438D01*
X189214285Y-64702438D02*
X189261904Y-64750057D01*
X189261904Y-64750057D02*
X189309523Y-64845295D01*
X189309523Y-64845295D02*
X189309523Y-64940533D01*
X189309523Y-64940533D02*
X189261904Y-65083390D01*
X189261904Y-65083390D02*
X188690476Y-65654819D01*
X188690476Y-65654819D02*
X189309523Y-65654819D01*
X190261904Y-65654819D02*
X189690476Y-65654819D01*
X189976190Y-65654819D02*
X189976190Y-64654819D01*
X189976190Y-64654819D02*
X189880952Y-64797676D01*
X189880952Y-64797676D02*
X189785714Y-64892914D01*
X189785714Y-64892914D02*
X189690476Y-64940533D01*
X196857142Y-74954819D02*
X196523809Y-74478628D01*
X196285714Y-74954819D02*
X196285714Y-73954819D01*
X196285714Y-73954819D02*
X196666666Y-73954819D01*
X196666666Y-73954819D02*
X196761904Y-74002438D01*
X196761904Y-74002438D02*
X196809523Y-74050057D01*
X196809523Y-74050057D02*
X196857142Y-74145295D01*
X196857142Y-74145295D02*
X196857142Y-74288152D01*
X196857142Y-74288152D02*
X196809523Y-74383390D01*
X196809523Y-74383390D02*
X196761904Y-74431009D01*
X196761904Y-74431009D02*
X196666666Y-74478628D01*
X196666666Y-74478628D02*
X196285714Y-74478628D01*
X197238095Y-74050057D02*
X197285714Y-74002438D01*
X197285714Y-74002438D02*
X197380952Y-73954819D01*
X197380952Y-73954819D02*
X197619047Y-73954819D01*
X197619047Y-73954819D02*
X197714285Y-74002438D01*
X197714285Y-74002438D02*
X197761904Y-74050057D01*
X197761904Y-74050057D02*
X197809523Y-74145295D01*
X197809523Y-74145295D02*
X197809523Y-74240533D01*
X197809523Y-74240533D02*
X197761904Y-74383390D01*
X197761904Y-74383390D02*
X197190476Y-74954819D01*
X197190476Y-74954819D02*
X197809523Y-74954819D01*
X198190476Y-74050057D02*
X198238095Y-74002438D01*
X198238095Y-74002438D02*
X198333333Y-73954819D01*
X198333333Y-73954819D02*
X198571428Y-73954819D01*
X198571428Y-73954819D02*
X198666666Y-74002438D01*
X198666666Y-74002438D02*
X198714285Y-74050057D01*
X198714285Y-74050057D02*
X198761904Y-74145295D01*
X198761904Y-74145295D02*
X198761904Y-74240533D01*
X198761904Y-74240533D02*
X198714285Y-74383390D01*
X198714285Y-74383390D02*
X198142857Y-74954819D01*
X198142857Y-74954819D02*
X198761904Y-74954819D01*
X154011905Y-53604819D02*
X154011905Y-52604819D01*
X154011905Y-52604819D02*
X154250000Y-52604819D01*
X154250000Y-52604819D02*
X154392857Y-52652438D01*
X154392857Y-52652438D02*
X154488095Y-52747676D01*
X154488095Y-52747676D02*
X154535714Y-52842914D01*
X154535714Y-52842914D02*
X154583333Y-53033390D01*
X154583333Y-53033390D02*
X154583333Y-53176247D01*
X154583333Y-53176247D02*
X154535714Y-53366723D01*
X154535714Y-53366723D02*
X154488095Y-53461961D01*
X154488095Y-53461961D02*
X154392857Y-53557200D01*
X154392857Y-53557200D02*
X154250000Y-53604819D01*
X154250000Y-53604819D02*
X154011905Y-53604819D01*
X155440476Y-52604819D02*
X155250000Y-52604819D01*
X155250000Y-52604819D02*
X155154762Y-52652438D01*
X155154762Y-52652438D02*
X155107143Y-52700057D01*
X155107143Y-52700057D02*
X155011905Y-52842914D01*
X155011905Y-52842914D02*
X154964286Y-53033390D01*
X154964286Y-53033390D02*
X154964286Y-53414342D01*
X154964286Y-53414342D02*
X155011905Y-53509580D01*
X155011905Y-53509580D02*
X155059524Y-53557200D01*
X155059524Y-53557200D02*
X155154762Y-53604819D01*
X155154762Y-53604819D02*
X155345238Y-53604819D01*
X155345238Y-53604819D02*
X155440476Y-53557200D01*
X155440476Y-53557200D02*
X155488095Y-53509580D01*
X155488095Y-53509580D02*
X155535714Y-53414342D01*
X155535714Y-53414342D02*
X155535714Y-53176247D01*
X155535714Y-53176247D02*
X155488095Y-53081009D01*
X155488095Y-53081009D02*
X155440476Y-53033390D01*
X155440476Y-53033390D02*
X155345238Y-52985771D01*
X155345238Y-52985771D02*
X155154762Y-52985771D01*
X155154762Y-52985771D02*
X155059524Y-53033390D01*
X155059524Y-53033390D02*
X155011905Y-53081009D01*
X155011905Y-53081009D02*
X154964286Y-53176247D01*
X175948642Y-76454820D02*
X175948642Y-77264343D01*
X175948642Y-77264343D02*
X175996261Y-77359581D01*
X175996261Y-77359581D02*
X176043880Y-77407201D01*
X176043880Y-77407201D02*
X176139118Y-77454820D01*
X176139118Y-77454820D02*
X176329594Y-77454820D01*
X176329594Y-77454820D02*
X176424832Y-77407201D01*
X176424832Y-77407201D02*
X176472451Y-77359581D01*
X176472451Y-77359581D02*
X176520070Y-77264343D01*
X176520070Y-77264343D02*
X176520070Y-76454820D01*
X177139118Y-76883391D02*
X177043880Y-76835772D01*
X177043880Y-76835772D02*
X176996261Y-76788153D01*
X176996261Y-76788153D02*
X176948642Y-76692915D01*
X176948642Y-76692915D02*
X176948642Y-76645296D01*
X176948642Y-76645296D02*
X176996261Y-76550058D01*
X176996261Y-76550058D02*
X177043880Y-76502439D01*
X177043880Y-76502439D02*
X177139118Y-76454820D01*
X177139118Y-76454820D02*
X177329594Y-76454820D01*
X177329594Y-76454820D02*
X177424832Y-76502439D01*
X177424832Y-76502439D02*
X177472451Y-76550058D01*
X177472451Y-76550058D02*
X177520070Y-76645296D01*
X177520070Y-76645296D02*
X177520070Y-76692915D01*
X177520070Y-76692915D02*
X177472451Y-76788153D01*
X177472451Y-76788153D02*
X177424832Y-76835772D01*
X177424832Y-76835772D02*
X177329594Y-76883391D01*
X177329594Y-76883391D02*
X177139118Y-76883391D01*
X177139118Y-76883391D02*
X177043880Y-76931010D01*
X177043880Y-76931010D02*
X176996261Y-76978629D01*
X176996261Y-76978629D02*
X176948642Y-77073867D01*
X176948642Y-77073867D02*
X176948642Y-77264343D01*
X176948642Y-77264343D02*
X176996261Y-77359581D01*
X176996261Y-77359581D02*
X177043880Y-77407201D01*
X177043880Y-77407201D02*
X177139118Y-77454820D01*
X177139118Y-77454820D02*
X177329594Y-77454820D01*
X177329594Y-77454820D02*
X177424832Y-77407201D01*
X177424832Y-77407201D02*
X177472451Y-77359581D01*
X177472451Y-77359581D02*
X177520070Y-77264343D01*
X177520070Y-77264343D02*
X177520070Y-77073867D01*
X177520070Y-77073867D02*
X177472451Y-76978629D01*
X177472451Y-76978629D02*
X177424832Y-76931010D01*
X177424832Y-76931010D02*
X177329594Y-76883391D01*
X182615308Y-69454820D02*
X182281975Y-68978629D01*
X182043880Y-69454820D02*
X182043880Y-68454820D01*
X182043880Y-68454820D02*
X182424832Y-68454820D01*
X182424832Y-68454820D02*
X182520070Y-68502439D01*
X182520070Y-68502439D02*
X182567689Y-68550058D01*
X182567689Y-68550058D02*
X182615308Y-68645296D01*
X182615308Y-68645296D02*
X182615308Y-68788153D01*
X182615308Y-68788153D02*
X182567689Y-68883391D01*
X182567689Y-68883391D02*
X182520070Y-68931010D01*
X182520070Y-68931010D02*
X182424832Y-68978629D01*
X182424832Y-68978629D02*
X182043880Y-68978629D01*
X183377213Y-68931010D02*
X183043880Y-68931010D01*
X183043880Y-69454820D02*
X183043880Y-68454820D01*
X183043880Y-68454820D02*
X183520070Y-68454820D01*
X184424832Y-69454820D02*
X183853404Y-69454820D01*
X184139118Y-69454820D02*
X184139118Y-68454820D01*
X184139118Y-68454820D02*
X184043880Y-68597677D01*
X184043880Y-68597677D02*
X183948642Y-68692915D01*
X183948642Y-68692915D02*
X183853404Y-68740534D01*
X159273642Y-66929820D02*
X159273642Y-67739343D01*
X159273642Y-67739343D02*
X159321261Y-67834581D01*
X159321261Y-67834581D02*
X159368880Y-67882201D01*
X159368880Y-67882201D02*
X159464118Y-67929820D01*
X159464118Y-67929820D02*
X159654594Y-67929820D01*
X159654594Y-67929820D02*
X159749832Y-67882201D01*
X159749832Y-67882201D02*
X159797451Y-67834581D01*
X159797451Y-67834581D02*
X159845070Y-67739343D01*
X159845070Y-67739343D02*
X159845070Y-66929820D01*
X160368880Y-67929820D02*
X160559356Y-67929820D01*
X160559356Y-67929820D02*
X160654594Y-67882201D01*
X160654594Y-67882201D02*
X160702213Y-67834581D01*
X160702213Y-67834581D02*
X160797451Y-67691724D01*
X160797451Y-67691724D02*
X160845070Y-67501248D01*
X160845070Y-67501248D02*
X160845070Y-67120296D01*
X160845070Y-67120296D02*
X160797451Y-67025058D01*
X160797451Y-67025058D02*
X160749832Y-66977439D01*
X160749832Y-66977439D02*
X160654594Y-66929820D01*
X160654594Y-66929820D02*
X160464118Y-66929820D01*
X160464118Y-66929820D02*
X160368880Y-66977439D01*
X160368880Y-66977439D02*
X160321261Y-67025058D01*
X160321261Y-67025058D02*
X160273642Y-67120296D01*
X160273642Y-67120296D02*
X160273642Y-67358391D01*
X160273642Y-67358391D02*
X160321261Y-67453629D01*
X160321261Y-67453629D02*
X160368880Y-67501248D01*
X160368880Y-67501248D02*
X160464118Y-67548867D01*
X160464118Y-67548867D02*
X160654594Y-67548867D01*
X160654594Y-67548867D02*
X160749832Y-67501248D01*
X160749832Y-67501248D02*
X160797451Y-67453629D01*
X160797451Y-67453629D02*
X160845070Y-67358391D01*
X192333333Y-73104819D02*
X192000000Y-72628628D01*
X191761905Y-73104819D02*
X191761905Y-72104819D01*
X191761905Y-72104819D02*
X192142857Y-72104819D01*
X192142857Y-72104819D02*
X192238095Y-72152438D01*
X192238095Y-72152438D02*
X192285714Y-72200057D01*
X192285714Y-72200057D02*
X192333333Y-72295295D01*
X192333333Y-72295295D02*
X192333333Y-72438152D01*
X192333333Y-72438152D02*
X192285714Y-72533390D01*
X192285714Y-72533390D02*
X192238095Y-72581009D01*
X192238095Y-72581009D02*
X192142857Y-72628628D01*
X192142857Y-72628628D02*
X191761905Y-72628628D01*
X192666667Y-72104819D02*
X193285714Y-72104819D01*
X193285714Y-72104819D02*
X192952381Y-72485771D01*
X192952381Y-72485771D02*
X193095238Y-72485771D01*
X193095238Y-72485771D02*
X193190476Y-72533390D01*
X193190476Y-72533390D02*
X193238095Y-72581009D01*
X193238095Y-72581009D02*
X193285714Y-72676247D01*
X193285714Y-72676247D02*
X193285714Y-72914342D01*
X193285714Y-72914342D02*
X193238095Y-73009580D01*
X193238095Y-73009580D02*
X193190476Y-73057200D01*
X193190476Y-73057200D02*
X193095238Y-73104819D01*
X193095238Y-73104819D02*
X192809524Y-73104819D01*
X192809524Y-73104819D02*
X192714286Y-73057200D01*
X192714286Y-73057200D02*
X192666667Y-73009580D01*
X170557142Y-56254819D02*
X170223809Y-55778628D01*
X169985714Y-56254819D02*
X169985714Y-55254819D01*
X169985714Y-55254819D02*
X170366666Y-55254819D01*
X170366666Y-55254819D02*
X170461904Y-55302438D01*
X170461904Y-55302438D02*
X170509523Y-55350057D01*
X170509523Y-55350057D02*
X170557142Y-55445295D01*
X170557142Y-55445295D02*
X170557142Y-55588152D01*
X170557142Y-55588152D02*
X170509523Y-55683390D01*
X170509523Y-55683390D02*
X170461904Y-55731009D01*
X170461904Y-55731009D02*
X170366666Y-55778628D01*
X170366666Y-55778628D02*
X169985714Y-55778628D01*
X170938095Y-55350057D02*
X170985714Y-55302438D01*
X170985714Y-55302438D02*
X171080952Y-55254819D01*
X171080952Y-55254819D02*
X171319047Y-55254819D01*
X171319047Y-55254819D02*
X171414285Y-55302438D01*
X171414285Y-55302438D02*
X171461904Y-55350057D01*
X171461904Y-55350057D02*
X171509523Y-55445295D01*
X171509523Y-55445295D02*
X171509523Y-55540533D01*
X171509523Y-55540533D02*
X171461904Y-55683390D01*
X171461904Y-55683390D02*
X170890476Y-56254819D01*
X170890476Y-56254819D02*
X171509523Y-56254819D01*
X172128571Y-55254819D02*
X172223809Y-55254819D01*
X172223809Y-55254819D02*
X172319047Y-55302438D01*
X172319047Y-55302438D02*
X172366666Y-55350057D01*
X172366666Y-55350057D02*
X172414285Y-55445295D01*
X172414285Y-55445295D02*
X172461904Y-55635771D01*
X172461904Y-55635771D02*
X172461904Y-55873866D01*
X172461904Y-55873866D02*
X172414285Y-56064342D01*
X172414285Y-56064342D02*
X172366666Y-56159580D01*
X172366666Y-56159580D02*
X172319047Y-56207200D01*
X172319047Y-56207200D02*
X172223809Y-56254819D01*
X172223809Y-56254819D02*
X172128571Y-56254819D01*
X172128571Y-56254819D02*
X172033333Y-56207200D01*
X172033333Y-56207200D02*
X171985714Y-56159580D01*
X171985714Y-56159580D02*
X171938095Y-56064342D01*
X171938095Y-56064342D02*
X171890476Y-55873866D01*
X171890476Y-55873866D02*
X171890476Y-55635771D01*
X171890476Y-55635771D02*
X171938095Y-55445295D01*
X171938095Y-55445295D02*
X171985714Y-55350057D01*
X171985714Y-55350057D02*
X172033333Y-55302438D01*
X172033333Y-55302438D02*
X172128571Y-55254819D01*
X172567689Y-62954820D02*
X172234356Y-62478629D01*
X171996261Y-62954820D02*
X171996261Y-61954820D01*
X171996261Y-61954820D02*
X172377213Y-61954820D01*
X172377213Y-61954820D02*
X172472451Y-62002439D01*
X172472451Y-62002439D02*
X172520070Y-62050058D01*
X172520070Y-62050058D02*
X172567689Y-62145296D01*
X172567689Y-62145296D02*
X172567689Y-62288153D01*
X172567689Y-62288153D02*
X172520070Y-62383391D01*
X172520070Y-62383391D02*
X172472451Y-62431010D01*
X172472451Y-62431010D02*
X172377213Y-62478629D01*
X172377213Y-62478629D02*
X171996261Y-62478629D01*
X173520070Y-62954820D02*
X172948642Y-62954820D01*
X173234356Y-62954820D02*
X173234356Y-61954820D01*
X173234356Y-61954820D02*
X173139118Y-62097677D01*
X173139118Y-62097677D02*
X173043880Y-62192915D01*
X173043880Y-62192915D02*
X172948642Y-62240534D01*
X174377213Y-62288153D02*
X174377213Y-62954820D01*
X174139118Y-61907201D02*
X173901023Y-62621486D01*
X173901023Y-62621486D02*
X174520070Y-62621486D01*
X207166666Y-63454819D02*
X207166666Y-64169104D01*
X207166666Y-64169104D02*
X207119047Y-64311961D01*
X207119047Y-64311961D02*
X207023809Y-64407200D01*
X207023809Y-64407200D02*
X206880952Y-64454819D01*
X206880952Y-64454819D02*
X206785714Y-64454819D01*
X208166666Y-64454819D02*
X207595238Y-64454819D01*
X207880952Y-64454819D02*
X207880952Y-63454819D01*
X207880952Y-63454819D02*
X207785714Y-63597676D01*
X207785714Y-63597676D02*
X207690476Y-63692914D01*
X207690476Y-63692914D02*
X207595238Y-63740533D01*
X153738095Y-62454819D02*
X153738095Y-63264342D01*
X153738095Y-63264342D02*
X153785714Y-63359580D01*
X153785714Y-63359580D02*
X153833333Y-63407200D01*
X153833333Y-63407200D02*
X153928571Y-63454819D01*
X153928571Y-63454819D02*
X154119047Y-63454819D01*
X154119047Y-63454819D02*
X154214285Y-63407200D01*
X154214285Y-63407200D02*
X154261904Y-63359580D01*
X154261904Y-63359580D02*
X154309523Y-63264342D01*
X154309523Y-63264342D02*
X154309523Y-62454819D01*
X155261904Y-62454819D02*
X154785714Y-62454819D01*
X154785714Y-62454819D02*
X154738095Y-62931009D01*
X154738095Y-62931009D02*
X154785714Y-62883390D01*
X154785714Y-62883390D02*
X154880952Y-62835771D01*
X154880952Y-62835771D02*
X155119047Y-62835771D01*
X155119047Y-62835771D02*
X155214285Y-62883390D01*
X155214285Y-62883390D02*
X155261904Y-62931009D01*
X155261904Y-62931009D02*
X155309523Y-63026247D01*
X155309523Y-63026247D02*
X155309523Y-63264342D01*
X155309523Y-63264342D02*
X155261904Y-63359580D01*
X155261904Y-63359580D02*
X155214285Y-63407200D01*
X155214285Y-63407200D02*
X155119047Y-63454819D01*
X155119047Y-63454819D02*
X154880952Y-63454819D01*
X154880952Y-63454819D02*
X154785714Y-63407200D01*
X154785714Y-63407200D02*
X154738095Y-63359580D01*
X149104819Y-79566666D02*
X148628628Y-79899999D01*
X149104819Y-80138094D02*
X148104819Y-80138094D01*
X148104819Y-80138094D02*
X148104819Y-79757142D01*
X148104819Y-79757142D02*
X148152438Y-79661904D01*
X148152438Y-79661904D02*
X148200057Y-79614285D01*
X148200057Y-79614285D02*
X148295295Y-79566666D01*
X148295295Y-79566666D02*
X148438152Y-79566666D01*
X148438152Y-79566666D02*
X148533390Y-79614285D01*
X148533390Y-79614285D02*
X148581009Y-79661904D01*
X148581009Y-79661904D02*
X148628628Y-79757142D01*
X148628628Y-79757142D02*
X148628628Y-80138094D01*
X148104819Y-79233332D02*
X148104819Y-78566666D01*
X148104819Y-78566666D02*
X149104819Y-78995237D01*
X182186737Y-67359581D02*
X182139118Y-67407201D01*
X182139118Y-67407201D02*
X181996261Y-67454820D01*
X181996261Y-67454820D02*
X181901023Y-67454820D01*
X181901023Y-67454820D02*
X181758166Y-67407201D01*
X181758166Y-67407201D02*
X181662928Y-67311962D01*
X181662928Y-67311962D02*
X181615309Y-67216724D01*
X181615309Y-67216724D02*
X181567690Y-67026248D01*
X181567690Y-67026248D02*
X181567690Y-66883391D01*
X181567690Y-66883391D02*
X181615309Y-66692915D01*
X181615309Y-66692915D02*
X181662928Y-66597677D01*
X181662928Y-66597677D02*
X181758166Y-66502439D01*
X181758166Y-66502439D02*
X181901023Y-66454820D01*
X181901023Y-66454820D02*
X181996261Y-66454820D01*
X181996261Y-66454820D02*
X182139118Y-66502439D01*
X182139118Y-66502439D02*
X182186737Y-66550058D01*
X182567690Y-67169105D02*
X183043880Y-67169105D01*
X182472452Y-67454820D02*
X182805785Y-66454820D01*
X182805785Y-66454820D02*
X183139118Y-67454820D01*
X183805785Y-66931010D02*
X183472452Y-66931010D01*
X183472452Y-67454820D02*
X183472452Y-66454820D01*
X183472452Y-66454820D02*
X183948642Y-66454820D01*
X184853404Y-67454820D02*
X184281976Y-67454820D01*
X184567690Y-67454820D02*
X184567690Y-66454820D01*
X184567690Y-66454820D02*
X184472452Y-66597677D01*
X184472452Y-66597677D02*
X184377214Y-66692915D01*
X184377214Y-66692915D02*
X184281976Y-66740534D01*
X184233333Y-48039580D02*
X184185714Y-48087200D01*
X184185714Y-48087200D02*
X184042857Y-48134819D01*
X184042857Y-48134819D02*
X183947619Y-48134819D01*
X183947619Y-48134819D02*
X183804762Y-48087200D01*
X183804762Y-48087200D02*
X183709524Y-47991961D01*
X183709524Y-47991961D02*
X183661905Y-47896723D01*
X183661905Y-47896723D02*
X183614286Y-47706247D01*
X183614286Y-47706247D02*
X183614286Y-47563390D01*
X183614286Y-47563390D02*
X183661905Y-47372914D01*
X183661905Y-47372914D02*
X183709524Y-47277676D01*
X183709524Y-47277676D02*
X183804762Y-47182438D01*
X183804762Y-47182438D02*
X183947619Y-47134819D01*
X183947619Y-47134819D02*
X184042857Y-47134819D01*
X184042857Y-47134819D02*
X184185714Y-47182438D01*
X184185714Y-47182438D02*
X184233333Y-47230057D01*
X185138095Y-47134819D02*
X184661905Y-47134819D01*
X184661905Y-47134819D02*
X184614286Y-47611009D01*
X184614286Y-47611009D02*
X184661905Y-47563390D01*
X184661905Y-47563390D02*
X184757143Y-47515771D01*
X184757143Y-47515771D02*
X184995238Y-47515771D01*
X184995238Y-47515771D02*
X185090476Y-47563390D01*
X185090476Y-47563390D02*
X185138095Y-47611009D01*
X185138095Y-47611009D02*
X185185714Y-47706247D01*
X185185714Y-47706247D02*
X185185714Y-47944342D01*
X185185714Y-47944342D02*
X185138095Y-48039580D01*
X185138095Y-48039580D02*
X185090476Y-48087200D01*
X185090476Y-48087200D02*
X184995238Y-48134819D01*
X184995238Y-48134819D02*
X184757143Y-48134819D01*
X184757143Y-48134819D02*
X184661905Y-48087200D01*
X184661905Y-48087200D02*
X184614286Y-48039580D01*
X164761905Y-82954819D02*
X164761905Y-83764342D01*
X164761905Y-83764342D02*
X164809524Y-83859580D01*
X164809524Y-83859580D02*
X164857143Y-83907200D01*
X164857143Y-83907200D02*
X164952381Y-83954819D01*
X164952381Y-83954819D02*
X165142857Y-83954819D01*
X165142857Y-83954819D02*
X165238095Y-83907200D01*
X165238095Y-83907200D02*
X165285714Y-83859580D01*
X165285714Y-83859580D02*
X165333333Y-83764342D01*
X165333333Y-83764342D02*
X165333333Y-82954819D01*
X166333333Y-83954819D02*
X165761905Y-83954819D01*
X166047619Y-83954819D02*
X166047619Y-82954819D01*
X166047619Y-82954819D02*
X165952381Y-83097676D01*
X165952381Y-83097676D02*
X165857143Y-83192914D01*
X165857143Y-83192914D02*
X165761905Y-83240533D01*
X167285714Y-83954819D02*
X166714286Y-83954819D01*
X167000000Y-83954819D02*
X167000000Y-82954819D01*
X167000000Y-82954819D02*
X166904762Y-83097676D01*
X166904762Y-83097676D02*
X166809524Y-83192914D01*
X166809524Y-83192914D02*
X166714286Y-83240533D01*
X170461905Y-44054819D02*
X170461905Y-43054819D01*
X170461905Y-43054819D02*
X170700000Y-43054819D01*
X170700000Y-43054819D02*
X170842857Y-43102438D01*
X170842857Y-43102438D02*
X170938095Y-43197676D01*
X170938095Y-43197676D02*
X170985714Y-43292914D01*
X170985714Y-43292914D02*
X171033333Y-43483390D01*
X171033333Y-43483390D02*
X171033333Y-43626247D01*
X171033333Y-43626247D02*
X170985714Y-43816723D01*
X170985714Y-43816723D02*
X170938095Y-43911961D01*
X170938095Y-43911961D02*
X170842857Y-44007200D01*
X170842857Y-44007200D02*
X170700000Y-44054819D01*
X170700000Y-44054819D02*
X170461905Y-44054819D01*
X171366667Y-43054819D02*
X172033333Y-43054819D01*
X172033333Y-43054819D02*
X171604762Y-44054819D01*
X182011905Y-78704819D02*
X182011905Y-77704819D01*
X182011905Y-77704819D02*
X182250000Y-77704819D01*
X182250000Y-77704819D02*
X182392857Y-77752438D01*
X182392857Y-77752438D02*
X182488095Y-77847676D01*
X182488095Y-77847676D02*
X182535714Y-77942914D01*
X182535714Y-77942914D02*
X182583333Y-78133390D01*
X182583333Y-78133390D02*
X182583333Y-78276247D01*
X182583333Y-78276247D02*
X182535714Y-78466723D01*
X182535714Y-78466723D02*
X182488095Y-78561961D01*
X182488095Y-78561961D02*
X182392857Y-78657200D01*
X182392857Y-78657200D02*
X182250000Y-78704819D01*
X182250000Y-78704819D02*
X182011905Y-78704819D01*
X183488095Y-77704819D02*
X183011905Y-77704819D01*
X183011905Y-77704819D02*
X182964286Y-78181009D01*
X182964286Y-78181009D02*
X183011905Y-78133390D01*
X183011905Y-78133390D02*
X183107143Y-78085771D01*
X183107143Y-78085771D02*
X183345238Y-78085771D01*
X183345238Y-78085771D02*
X183440476Y-78133390D01*
X183440476Y-78133390D02*
X183488095Y-78181009D01*
X183488095Y-78181009D02*
X183535714Y-78276247D01*
X183535714Y-78276247D02*
X183535714Y-78514342D01*
X183535714Y-78514342D02*
X183488095Y-78609580D01*
X183488095Y-78609580D02*
X183440476Y-78657200D01*
X183440476Y-78657200D02*
X183345238Y-78704819D01*
X183345238Y-78704819D02*
X183107143Y-78704819D01*
X183107143Y-78704819D02*
X183011905Y-78657200D01*
X183011905Y-78657200D02*
X182964286Y-78609580D01*
X148083333Y-64704819D02*
X147750000Y-64228628D01*
X147511905Y-64704819D02*
X147511905Y-63704819D01*
X147511905Y-63704819D02*
X147892857Y-63704819D01*
X147892857Y-63704819D02*
X147988095Y-63752438D01*
X147988095Y-63752438D02*
X148035714Y-63800057D01*
X148035714Y-63800057D02*
X148083333Y-63895295D01*
X148083333Y-63895295D02*
X148083333Y-64038152D01*
X148083333Y-64038152D02*
X148035714Y-64133390D01*
X148035714Y-64133390D02*
X147988095Y-64181009D01*
X147988095Y-64181009D02*
X147892857Y-64228628D01*
X147892857Y-64228628D02*
X147511905Y-64228628D01*
X148464286Y-63800057D02*
X148511905Y-63752438D01*
X148511905Y-63752438D02*
X148607143Y-63704819D01*
X148607143Y-63704819D02*
X148845238Y-63704819D01*
X148845238Y-63704819D02*
X148940476Y-63752438D01*
X148940476Y-63752438D02*
X148988095Y-63800057D01*
X148988095Y-63800057D02*
X149035714Y-63895295D01*
X149035714Y-63895295D02*
X149035714Y-63990533D01*
X149035714Y-63990533D02*
X148988095Y-64133390D01*
X148988095Y-64133390D02*
X148416667Y-64704819D01*
X148416667Y-64704819D02*
X149035714Y-64704819D01*
X175607142Y-62704819D02*
X175273809Y-62228628D01*
X175035714Y-62704819D02*
X175035714Y-61704819D01*
X175035714Y-61704819D02*
X175416666Y-61704819D01*
X175416666Y-61704819D02*
X175511904Y-61752438D01*
X175511904Y-61752438D02*
X175559523Y-61800057D01*
X175559523Y-61800057D02*
X175607142Y-61895295D01*
X175607142Y-61895295D02*
X175607142Y-62038152D01*
X175607142Y-62038152D02*
X175559523Y-62133390D01*
X175559523Y-62133390D02*
X175511904Y-62181009D01*
X175511904Y-62181009D02*
X175416666Y-62228628D01*
X175416666Y-62228628D02*
X175035714Y-62228628D01*
X176559523Y-62704819D02*
X175988095Y-62704819D01*
X176273809Y-62704819D02*
X176273809Y-61704819D01*
X176273809Y-61704819D02*
X176178571Y-61847676D01*
X176178571Y-61847676D02*
X176083333Y-61942914D01*
X176083333Y-61942914D02*
X175988095Y-61990533D01*
X177464285Y-61704819D02*
X176988095Y-61704819D01*
X176988095Y-61704819D02*
X176940476Y-62181009D01*
X176940476Y-62181009D02*
X176988095Y-62133390D01*
X176988095Y-62133390D02*
X177083333Y-62085771D01*
X177083333Y-62085771D02*
X177321428Y-62085771D01*
X177321428Y-62085771D02*
X177416666Y-62133390D01*
X177416666Y-62133390D02*
X177464285Y-62181009D01*
X177464285Y-62181009D02*
X177511904Y-62276247D01*
X177511904Y-62276247D02*
X177511904Y-62514342D01*
X177511904Y-62514342D02*
X177464285Y-62609580D01*
X177464285Y-62609580D02*
X177416666Y-62657200D01*
X177416666Y-62657200D02*
X177321428Y-62704819D01*
X177321428Y-62704819D02*
X177083333Y-62704819D01*
X177083333Y-62704819D02*
X176988095Y-62657200D01*
X176988095Y-62657200D02*
X176940476Y-62609580D01*
X189511905Y-62204819D02*
X189511905Y-61204819D01*
X189511905Y-61204819D02*
X189750000Y-61204819D01*
X189750000Y-61204819D02*
X189892857Y-61252438D01*
X189892857Y-61252438D02*
X189988095Y-61347676D01*
X189988095Y-61347676D02*
X190035714Y-61442914D01*
X190035714Y-61442914D02*
X190083333Y-61633390D01*
X190083333Y-61633390D02*
X190083333Y-61776247D01*
X190083333Y-61776247D02*
X190035714Y-61966723D01*
X190035714Y-61966723D02*
X189988095Y-62061961D01*
X189988095Y-62061961D02*
X189892857Y-62157200D01*
X189892857Y-62157200D02*
X189750000Y-62204819D01*
X189750000Y-62204819D02*
X189511905Y-62204819D01*
X190940476Y-61538152D02*
X190940476Y-62204819D01*
X190702381Y-61157200D02*
X190464286Y-61871485D01*
X190464286Y-61871485D02*
X191083333Y-61871485D01*
X178488095Y-56204819D02*
X178488095Y-57014342D01*
X178488095Y-57014342D02*
X178535714Y-57109580D01*
X178535714Y-57109580D02*
X178583333Y-57157200D01*
X178583333Y-57157200D02*
X178678571Y-57204819D01*
X178678571Y-57204819D02*
X178869047Y-57204819D01*
X178869047Y-57204819D02*
X178964285Y-57157200D01*
X178964285Y-57157200D02*
X179011904Y-57109580D01*
X179011904Y-57109580D02*
X179059523Y-57014342D01*
X179059523Y-57014342D02*
X179059523Y-56204819D01*
X179440476Y-56204819D02*
X180107142Y-56204819D01*
X180107142Y-56204819D02*
X179678571Y-57204819D01*
X141083333Y-70004819D02*
X140607143Y-70004819D01*
X140607143Y-70004819D02*
X140607143Y-69004819D01*
X141369048Y-69100057D02*
X141416667Y-69052438D01*
X141416667Y-69052438D02*
X141511905Y-69004819D01*
X141511905Y-69004819D02*
X141750000Y-69004819D01*
X141750000Y-69004819D02*
X141845238Y-69052438D01*
X141845238Y-69052438D02*
X141892857Y-69100057D01*
X141892857Y-69100057D02*
X141940476Y-69195295D01*
X141940476Y-69195295D02*
X141940476Y-69290533D01*
X141940476Y-69290533D02*
X141892857Y-69433390D01*
X141892857Y-69433390D02*
X141321429Y-70004819D01*
X141321429Y-70004819D02*
X141940476Y-70004819D01*
X170443880Y-62259581D02*
X170396261Y-62307201D01*
X170396261Y-62307201D02*
X170253404Y-62354820D01*
X170253404Y-62354820D02*
X170158166Y-62354820D01*
X170158166Y-62354820D02*
X170015309Y-62307201D01*
X170015309Y-62307201D02*
X169920071Y-62211962D01*
X169920071Y-62211962D02*
X169872452Y-62116724D01*
X169872452Y-62116724D02*
X169824833Y-61926248D01*
X169824833Y-61926248D02*
X169824833Y-61783391D01*
X169824833Y-61783391D02*
X169872452Y-61592915D01*
X169872452Y-61592915D02*
X169920071Y-61497677D01*
X169920071Y-61497677D02*
X170015309Y-61402439D01*
X170015309Y-61402439D02*
X170158166Y-61354820D01*
X170158166Y-61354820D02*
X170253404Y-61354820D01*
X170253404Y-61354820D02*
X170396261Y-61402439D01*
X170396261Y-61402439D02*
X170443880Y-61450058D01*
X171301023Y-61354820D02*
X171110547Y-61354820D01*
X171110547Y-61354820D02*
X171015309Y-61402439D01*
X171015309Y-61402439D02*
X170967690Y-61450058D01*
X170967690Y-61450058D02*
X170872452Y-61592915D01*
X170872452Y-61592915D02*
X170824833Y-61783391D01*
X170824833Y-61783391D02*
X170824833Y-62164343D01*
X170824833Y-62164343D02*
X170872452Y-62259581D01*
X170872452Y-62259581D02*
X170920071Y-62307201D01*
X170920071Y-62307201D02*
X171015309Y-62354820D01*
X171015309Y-62354820D02*
X171205785Y-62354820D01*
X171205785Y-62354820D02*
X171301023Y-62307201D01*
X171301023Y-62307201D02*
X171348642Y-62259581D01*
X171348642Y-62259581D02*
X171396261Y-62164343D01*
X171396261Y-62164343D02*
X171396261Y-61926248D01*
X171396261Y-61926248D02*
X171348642Y-61831010D01*
X171348642Y-61831010D02*
X171301023Y-61783391D01*
X171301023Y-61783391D02*
X171205785Y-61735772D01*
X171205785Y-61735772D02*
X171015309Y-61735772D01*
X171015309Y-61735772D02*
X170920071Y-61783391D01*
X170920071Y-61783391D02*
X170872452Y-61831010D01*
X170872452Y-61831010D02*
X170824833Y-61926248D01*
X192916667Y-53407200D02*
X193059524Y-53454819D01*
X193059524Y-53454819D02*
X193297619Y-53454819D01*
X193297619Y-53454819D02*
X193392857Y-53407200D01*
X193392857Y-53407200D02*
X193440476Y-53359580D01*
X193440476Y-53359580D02*
X193488095Y-53264342D01*
X193488095Y-53264342D02*
X193488095Y-53169104D01*
X193488095Y-53169104D02*
X193440476Y-53073866D01*
X193440476Y-53073866D02*
X193392857Y-53026247D01*
X193392857Y-53026247D02*
X193297619Y-52978628D01*
X193297619Y-52978628D02*
X193107143Y-52931009D01*
X193107143Y-52931009D02*
X193011905Y-52883390D01*
X193011905Y-52883390D02*
X192964286Y-52835771D01*
X192964286Y-52835771D02*
X192916667Y-52740533D01*
X192916667Y-52740533D02*
X192916667Y-52645295D01*
X192916667Y-52645295D02*
X192964286Y-52550057D01*
X192964286Y-52550057D02*
X193011905Y-52502438D01*
X193011905Y-52502438D02*
X193107143Y-52454819D01*
X193107143Y-52454819D02*
X193345238Y-52454819D01*
X193345238Y-52454819D02*
X193488095Y-52502438D01*
X193821429Y-52454819D02*
X194059524Y-53454819D01*
X194059524Y-53454819D02*
X194250000Y-52740533D01*
X194250000Y-52740533D02*
X194440476Y-53454819D01*
X194440476Y-53454819D02*
X194678572Y-52454819D01*
X195583333Y-53454819D02*
X195011905Y-53454819D01*
X195297619Y-53454819D02*
X195297619Y-52454819D01*
X195297619Y-52454819D02*
X195202381Y-52597676D01*
X195202381Y-52597676D02*
X195107143Y-52692914D01*
X195107143Y-52692914D02*
X195011905Y-52740533D01*
X192857142Y-62054819D02*
X192523809Y-61578628D01*
X192285714Y-62054819D02*
X192285714Y-61054819D01*
X192285714Y-61054819D02*
X192666666Y-61054819D01*
X192666666Y-61054819D02*
X192761904Y-61102438D01*
X192761904Y-61102438D02*
X192809523Y-61150057D01*
X192809523Y-61150057D02*
X192857142Y-61245295D01*
X192857142Y-61245295D02*
X192857142Y-61388152D01*
X192857142Y-61388152D02*
X192809523Y-61483390D01*
X192809523Y-61483390D02*
X192761904Y-61531009D01*
X192761904Y-61531009D02*
X192666666Y-61578628D01*
X192666666Y-61578628D02*
X192285714Y-61578628D01*
X193809523Y-62054819D02*
X193238095Y-62054819D01*
X193523809Y-62054819D02*
X193523809Y-61054819D01*
X193523809Y-61054819D02*
X193428571Y-61197676D01*
X193428571Y-61197676D02*
X193333333Y-61292914D01*
X193333333Y-61292914D02*
X193238095Y-61340533D01*
X194761904Y-62054819D02*
X194190476Y-62054819D01*
X194476190Y-62054819D02*
X194476190Y-61054819D01*
X194476190Y-61054819D02*
X194380952Y-61197676D01*
X194380952Y-61197676D02*
X194285714Y-61292914D01*
X194285714Y-61292914D02*
X194190476Y-61340533D01*
X135440476Y-62854819D02*
X135440476Y-61854819D01*
X135440476Y-61854819D02*
X135773809Y-62569104D01*
X135773809Y-62569104D02*
X136107142Y-61854819D01*
X136107142Y-61854819D02*
X136107142Y-62854819D01*
X136488095Y-61854819D02*
X137107142Y-61854819D01*
X137107142Y-61854819D02*
X136773809Y-62235771D01*
X136773809Y-62235771D02*
X136916666Y-62235771D01*
X136916666Y-62235771D02*
X137011904Y-62283390D01*
X137011904Y-62283390D02*
X137059523Y-62331009D01*
X137059523Y-62331009D02*
X137107142Y-62426247D01*
X137107142Y-62426247D02*
X137107142Y-62664342D01*
X137107142Y-62664342D02*
X137059523Y-62759580D01*
X137059523Y-62759580D02*
X137011904Y-62807200D01*
X137011904Y-62807200D02*
X136916666Y-62854819D01*
X136916666Y-62854819D02*
X136630952Y-62854819D01*
X136630952Y-62854819D02*
X136535714Y-62807200D01*
X136535714Y-62807200D02*
X136488095Y-62759580D01*
X154654761Y-71550057D02*
X154559523Y-71502438D01*
X154559523Y-71502438D02*
X154464285Y-71407200D01*
X154464285Y-71407200D02*
X154321428Y-71264342D01*
X154321428Y-71264342D02*
X154226190Y-71216723D01*
X154226190Y-71216723D02*
X154130952Y-71216723D01*
X154178571Y-71454819D02*
X154083333Y-71407200D01*
X154083333Y-71407200D02*
X153988095Y-71311961D01*
X153988095Y-71311961D02*
X153940476Y-71121485D01*
X153940476Y-71121485D02*
X153940476Y-70788152D01*
X153940476Y-70788152D02*
X153988095Y-70597676D01*
X153988095Y-70597676D02*
X154083333Y-70502438D01*
X154083333Y-70502438D02*
X154178571Y-70454819D01*
X154178571Y-70454819D02*
X154369047Y-70454819D01*
X154369047Y-70454819D02*
X154464285Y-70502438D01*
X154464285Y-70502438D02*
X154559523Y-70597676D01*
X154559523Y-70597676D02*
X154607142Y-70788152D01*
X154607142Y-70788152D02*
X154607142Y-71121485D01*
X154607142Y-71121485D02*
X154559523Y-71311961D01*
X154559523Y-71311961D02*
X154464285Y-71407200D01*
X154464285Y-71407200D02*
X154369047Y-71454819D01*
X154369047Y-71454819D02*
X154178571Y-71454819D01*
X155559523Y-71454819D02*
X154988095Y-71454819D01*
X155273809Y-71454819D02*
X155273809Y-70454819D01*
X155273809Y-70454819D02*
X155178571Y-70597676D01*
X155178571Y-70597676D02*
X155083333Y-70692914D01*
X155083333Y-70692914D02*
X154988095Y-70740533D01*
X157166666Y-47181009D02*
X156833333Y-47181009D01*
X156833333Y-47704819D02*
X156833333Y-46704819D01*
X156833333Y-46704819D02*
X157309523Y-46704819D01*
X158214285Y-47704819D02*
X157642857Y-47704819D01*
X157928571Y-47704819D02*
X157928571Y-46704819D01*
X157928571Y-46704819D02*
X157833333Y-46847676D01*
X157833333Y-46847676D02*
X157738095Y-46942914D01*
X157738095Y-46942914D02*
X157642857Y-46990533D01*
X185333333Y-52859580D02*
X185285714Y-52907200D01*
X185285714Y-52907200D02*
X185142857Y-52954819D01*
X185142857Y-52954819D02*
X185047619Y-52954819D01*
X185047619Y-52954819D02*
X184904762Y-52907200D01*
X184904762Y-52907200D02*
X184809524Y-52811961D01*
X184809524Y-52811961D02*
X184761905Y-52716723D01*
X184761905Y-52716723D02*
X184714286Y-52526247D01*
X184714286Y-52526247D02*
X184714286Y-52383390D01*
X184714286Y-52383390D02*
X184761905Y-52192914D01*
X184761905Y-52192914D02*
X184809524Y-52097676D01*
X184809524Y-52097676D02*
X184904762Y-52002438D01*
X184904762Y-52002438D02*
X185047619Y-51954819D01*
X185047619Y-51954819D02*
X185142857Y-51954819D01*
X185142857Y-51954819D02*
X185285714Y-52002438D01*
X185285714Y-52002438D02*
X185333333Y-52050057D01*
X185666667Y-51954819D02*
X186285714Y-51954819D01*
X186285714Y-51954819D02*
X185952381Y-52335771D01*
X185952381Y-52335771D02*
X186095238Y-52335771D01*
X186095238Y-52335771D02*
X186190476Y-52383390D01*
X186190476Y-52383390D02*
X186238095Y-52431009D01*
X186238095Y-52431009D02*
X186285714Y-52526247D01*
X186285714Y-52526247D02*
X186285714Y-52764342D01*
X186285714Y-52764342D02*
X186238095Y-52859580D01*
X186238095Y-52859580D02*
X186190476Y-52907200D01*
X186190476Y-52907200D02*
X186095238Y-52954819D01*
X186095238Y-52954819D02*
X185809524Y-52954819D01*
X185809524Y-52954819D02*
X185714286Y-52907200D01*
X185714286Y-52907200D02*
X185666667Y-52859580D01*
X154033333Y-61759580D02*
X153985714Y-61807200D01*
X153985714Y-61807200D02*
X153842857Y-61854819D01*
X153842857Y-61854819D02*
X153747619Y-61854819D01*
X153747619Y-61854819D02*
X153604762Y-61807200D01*
X153604762Y-61807200D02*
X153509524Y-61711961D01*
X153509524Y-61711961D02*
X153461905Y-61616723D01*
X153461905Y-61616723D02*
X153414286Y-61426247D01*
X153414286Y-61426247D02*
X153414286Y-61283390D01*
X153414286Y-61283390D02*
X153461905Y-61092914D01*
X153461905Y-61092914D02*
X153509524Y-60997676D01*
X153509524Y-60997676D02*
X153604762Y-60902438D01*
X153604762Y-60902438D02*
X153747619Y-60854819D01*
X153747619Y-60854819D02*
X153842857Y-60854819D01*
X153842857Y-60854819D02*
X153985714Y-60902438D01*
X153985714Y-60902438D02*
X154033333Y-60950057D01*
X154890476Y-61188152D02*
X154890476Y-61854819D01*
X154652381Y-60807200D02*
X154414286Y-61521485D01*
X154414286Y-61521485D02*
X155033333Y-61521485D01*
X210416666Y-79954819D02*
X210416666Y-80669104D01*
X210416666Y-80669104D02*
X210369047Y-80811961D01*
X210369047Y-80811961D02*
X210273809Y-80907200D01*
X210273809Y-80907200D02*
X210130952Y-80954819D01*
X210130952Y-80954819D02*
X210035714Y-80954819D01*
X210845238Y-80050057D02*
X210892857Y-80002438D01*
X210892857Y-80002438D02*
X210988095Y-79954819D01*
X210988095Y-79954819D02*
X211226190Y-79954819D01*
X211226190Y-79954819D02*
X211321428Y-80002438D01*
X211321428Y-80002438D02*
X211369047Y-80050057D01*
X211369047Y-80050057D02*
X211416666Y-80145295D01*
X211416666Y-80145295D02*
X211416666Y-80240533D01*
X211416666Y-80240533D02*
X211369047Y-80383390D01*
X211369047Y-80383390D02*
X210797619Y-80954819D01*
X210797619Y-80954819D02*
X211416666Y-80954819D01*
X146233333Y-43254819D02*
X145900000Y-42778628D01*
X145661905Y-43254819D02*
X145661905Y-42254819D01*
X145661905Y-42254819D02*
X146042857Y-42254819D01*
X146042857Y-42254819D02*
X146138095Y-42302438D01*
X146138095Y-42302438D02*
X146185714Y-42350057D01*
X146185714Y-42350057D02*
X146233333Y-42445295D01*
X146233333Y-42445295D02*
X146233333Y-42588152D01*
X146233333Y-42588152D02*
X146185714Y-42683390D01*
X146185714Y-42683390D02*
X146138095Y-42731009D01*
X146138095Y-42731009D02*
X146042857Y-42778628D01*
X146042857Y-42778628D02*
X145661905Y-42778628D01*
X147138095Y-42254819D02*
X146661905Y-42254819D01*
X146661905Y-42254819D02*
X146614286Y-42731009D01*
X146614286Y-42731009D02*
X146661905Y-42683390D01*
X146661905Y-42683390D02*
X146757143Y-42635771D01*
X146757143Y-42635771D02*
X146995238Y-42635771D01*
X146995238Y-42635771D02*
X147090476Y-42683390D01*
X147090476Y-42683390D02*
X147138095Y-42731009D01*
X147138095Y-42731009D02*
X147185714Y-42826247D01*
X147185714Y-42826247D02*
X147185714Y-43064342D01*
X147185714Y-43064342D02*
X147138095Y-43159580D01*
X147138095Y-43159580D02*
X147090476Y-43207200D01*
X147090476Y-43207200D02*
X146995238Y-43254819D01*
X146995238Y-43254819D02*
X146757143Y-43254819D01*
X146757143Y-43254819D02*
X146661905Y-43207200D01*
X146661905Y-43207200D02*
X146614286Y-43159580D01*
X178857142Y-62954819D02*
X178523809Y-62478628D01*
X178285714Y-62954819D02*
X178285714Y-61954819D01*
X178285714Y-61954819D02*
X178666666Y-61954819D01*
X178666666Y-61954819D02*
X178761904Y-62002438D01*
X178761904Y-62002438D02*
X178809523Y-62050057D01*
X178809523Y-62050057D02*
X178857142Y-62145295D01*
X178857142Y-62145295D02*
X178857142Y-62288152D01*
X178857142Y-62288152D02*
X178809523Y-62383390D01*
X178809523Y-62383390D02*
X178761904Y-62431009D01*
X178761904Y-62431009D02*
X178666666Y-62478628D01*
X178666666Y-62478628D02*
X178285714Y-62478628D01*
X179809523Y-62954819D02*
X179238095Y-62954819D01*
X179523809Y-62954819D02*
X179523809Y-61954819D01*
X179523809Y-61954819D02*
X179428571Y-62097676D01*
X179428571Y-62097676D02*
X179333333Y-62192914D01*
X179333333Y-62192914D02*
X179238095Y-62240533D01*
X180666666Y-61954819D02*
X180476190Y-61954819D01*
X180476190Y-61954819D02*
X180380952Y-62002438D01*
X180380952Y-62002438D02*
X180333333Y-62050057D01*
X180333333Y-62050057D02*
X180238095Y-62192914D01*
X180238095Y-62192914D02*
X180190476Y-62383390D01*
X180190476Y-62383390D02*
X180190476Y-62764342D01*
X180190476Y-62764342D02*
X180238095Y-62859580D01*
X180238095Y-62859580D02*
X180285714Y-62907200D01*
X180285714Y-62907200D02*
X180380952Y-62954819D01*
X180380952Y-62954819D02*
X180571428Y-62954819D01*
X180571428Y-62954819D02*
X180666666Y-62907200D01*
X180666666Y-62907200D02*
X180714285Y-62859580D01*
X180714285Y-62859580D02*
X180761904Y-62764342D01*
X180761904Y-62764342D02*
X180761904Y-62526247D01*
X180761904Y-62526247D02*
X180714285Y-62431009D01*
X180714285Y-62431009D02*
X180666666Y-62383390D01*
X180666666Y-62383390D02*
X180571428Y-62335771D01*
X180571428Y-62335771D02*
X180380952Y-62335771D01*
X180380952Y-62335771D02*
X180285714Y-62383390D01*
X180285714Y-62383390D02*
X180238095Y-62431009D01*
X180238095Y-62431009D02*
X180190476Y-62526247D01*
X184857142Y-78454819D02*
X184523809Y-77978628D01*
X184285714Y-78454819D02*
X184285714Y-77454819D01*
X184285714Y-77454819D02*
X184666666Y-77454819D01*
X184666666Y-77454819D02*
X184761904Y-77502438D01*
X184761904Y-77502438D02*
X184809523Y-77550057D01*
X184809523Y-77550057D02*
X184857142Y-77645295D01*
X184857142Y-77645295D02*
X184857142Y-77788152D01*
X184857142Y-77788152D02*
X184809523Y-77883390D01*
X184809523Y-77883390D02*
X184761904Y-77931009D01*
X184761904Y-77931009D02*
X184666666Y-77978628D01*
X184666666Y-77978628D02*
X184285714Y-77978628D01*
X185809523Y-78454819D02*
X185238095Y-78454819D01*
X185523809Y-78454819D02*
X185523809Y-77454819D01*
X185523809Y-77454819D02*
X185428571Y-77597676D01*
X185428571Y-77597676D02*
X185333333Y-77692914D01*
X185333333Y-77692914D02*
X185238095Y-77740533D01*
X186190476Y-77550057D02*
X186238095Y-77502438D01*
X186238095Y-77502438D02*
X186333333Y-77454819D01*
X186333333Y-77454819D02*
X186571428Y-77454819D01*
X186571428Y-77454819D02*
X186666666Y-77502438D01*
X186666666Y-77502438D02*
X186714285Y-77550057D01*
X186714285Y-77550057D02*
X186761904Y-77645295D01*
X186761904Y-77645295D02*
X186761904Y-77740533D01*
X186761904Y-77740533D02*
X186714285Y-77883390D01*
X186714285Y-77883390D02*
X186142857Y-78454819D01*
X186142857Y-78454819D02*
X186761904Y-78454819D01*
X168833333Y-86109580D02*
X168785714Y-86157200D01*
X168785714Y-86157200D02*
X168642857Y-86204819D01*
X168642857Y-86204819D02*
X168547619Y-86204819D01*
X168547619Y-86204819D02*
X168404762Y-86157200D01*
X168404762Y-86157200D02*
X168309524Y-86061961D01*
X168309524Y-86061961D02*
X168261905Y-85966723D01*
X168261905Y-85966723D02*
X168214286Y-85776247D01*
X168214286Y-85776247D02*
X168214286Y-85633390D01*
X168214286Y-85633390D02*
X168261905Y-85442914D01*
X168261905Y-85442914D02*
X168309524Y-85347676D01*
X168309524Y-85347676D02*
X168404762Y-85252438D01*
X168404762Y-85252438D02*
X168547619Y-85204819D01*
X168547619Y-85204819D02*
X168642857Y-85204819D01*
X168642857Y-85204819D02*
X168785714Y-85252438D01*
X168785714Y-85252438D02*
X168833333Y-85300057D01*
X169166667Y-85204819D02*
X169833333Y-85204819D01*
X169833333Y-85204819D02*
X169404762Y-86204819D01*
X183940476Y-40704819D02*
X183940476Y-39704819D01*
X183940476Y-39704819D02*
X184273809Y-40419104D01*
X184273809Y-40419104D02*
X184607142Y-39704819D01*
X184607142Y-39704819D02*
X184607142Y-40704819D01*
X185511904Y-40038152D02*
X185511904Y-40704819D01*
X185273809Y-39657200D02*
X185035714Y-40371485D01*
X185035714Y-40371485D02*
X185654761Y-40371485D01*
X175357142Y-44304819D02*
X175023809Y-43828628D01*
X174785714Y-44304819D02*
X174785714Y-43304819D01*
X174785714Y-43304819D02*
X175166666Y-43304819D01*
X175166666Y-43304819D02*
X175261904Y-43352438D01*
X175261904Y-43352438D02*
X175309523Y-43400057D01*
X175309523Y-43400057D02*
X175357142Y-43495295D01*
X175357142Y-43495295D02*
X175357142Y-43638152D01*
X175357142Y-43638152D02*
X175309523Y-43733390D01*
X175309523Y-43733390D02*
X175261904Y-43781009D01*
X175261904Y-43781009D02*
X175166666Y-43828628D01*
X175166666Y-43828628D02*
X174785714Y-43828628D01*
X176309523Y-44304819D02*
X175738095Y-44304819D01*
X176023809Y-44304819D02*
X176023809Y-43304819D01*
X176023809Y-43304819D02*
X175928571Y-43447676D01*
X175928571Y-43447676D02*
X175833333Y-43542914D01*
X175833333Y-43542914D02*
X175738095Y-43590533D01*
X176880952Y-43733390D02*
X176785714Y-43685771D01*
X176785714Y-43685771D02*
X176738095Y-43638152D01*
X176738095Y-43638152D02*
X176690476Y-43542914D01*
X176690476Y-43542914D02*
X176690476Y-43495295D01*
X176690476Y-43495295D02*
X176738095Y-43400057D01*
X176738095Y-43400057D02*
X176785714Y-43352438D01*
X176785714Y-43352438D02*
X176880952Y-43304819D01*
X176880952Y-43304819D02*
X177071428Y-43304819D01*
X177071428Y-43304819D02*
X177166666Y-43352438D01*
X177166666Y-43352438D02*
X177214285Y-43400057D01*
X177214285Y-43400057D02*
X177261904Y-43495295D01*
X177261904Y-43495295D02*
X177261904Y-43542914D01*
X177261904Y-43542914D02*
X177214285Y-43638152D01*
X177214285Y-43638152D02*
X177166666Y-43685771D01*
X177166666Y-43685771D02*
X177071428Y-43733390D01*
X177071428Y-43733390D02*
X176880952Y-43733390D01*
X176880952Y-43733390D02*
X176785714Y-43781009D01*
X176785714Y-43781009D02*
X176738095Y-43828628D01*
X176738095Y-43828628D02*
X176690476Y-43923866D01*
X176690476Y-43923866D02*
X176690476Y-44114342D01*
X176690476Y-44114342D02*
X176738095Y-44209580D01*
X176738095Y-44209580D02*
X176785714Y-44257200D01*
X176785714Y-44257200D02*
X176880952Y-44304819D01*
X176880952Y-44304819D02*
X177071428Y-44304819D01*
X177071428Y-44304819D02*
X177166666Y-44257200D01*
X177166666Y-44257200D02*
X177214285Y-44209580D01*
X177214285Y-44209580D02*
X177261904Y-44114342D01*
X177261904Y-44114342D02*
X177261904Y-43923866D01*
X177261904Y-43923866D02*
X177214285Y-43828628D01*
X177214285Y-43828628D02*
X177166666Y-43781009D01*
X177166666Y-43781009D02*
X177071428Y-43733390D01*
X145033333Y-51254819D02*
X144700000Y-50778628D01*
X144461905Y-51254819D02*
X144461905Y-50254819D01*
X144461905Y-50254819D02*
X144842857Y-50254819D01*
X144842857Y-50254819D02*
X144938095Y-50302438D01*
X144938095Y-50302438D02*
X144985714Y-50350057D01*
X144985714Y-50350057D02*
X145033333Y-50445295D01*
X145033333Y-50445295D02*
X145033333Y-50588152D01*
X145033333Y-50588152D02*
X144985714Y-50683390D01*
X144985714Y-50683390D02*
X144938095Y-50731009D01*
X144938095Y-50731009D02*
X144842857Y-50778628D01*
X144842857Y-50778628D02*
X144461905Y-50778628D01*
X145890476Y-50254819D02*
X145700000Y-50254819D01*
X145700000Y-50254819D02*
X145604762Y-50302438D01*
X145604762Y-50302438D02*
X145557143Y-50350057D01*
X145557143Y-50350057D02*
X145461905Y-50492914D01*
X145461905Y-50492914D02*
X145414286Y-50683390D01*
X145414286Y-50683390D02*
X145414286Y-51064342D01*
X145414286Y-51064342D02*
X145461905Y-51159580D01*
X145461905Y-51159580D02*
X145509524Y-51207200D01*
X145509524Y-51207200D02*
X145604762Y-51254819D01*
X145604762Y-51254819D02*
X145795238Y-51254819D01*
X145795238Y-51254819D02*
X145890476Y-51207200D01*
X145890476Y-51207200D02*
X145938095Y-51159580D01*
X145938095Y-51159580D02*
X145985714Y-51064342D01*
X145985714Y-51064342D02*
X145985714Y-50826247D01*
X145985714Y-50826247D02*
X145938095Y-50731009D01*
X145938095Y-50731009D02*
X145890476Y-50683390D01*
X145890476Y-50683390D02*
X145795238Y-50635771D01*
X145795238Y-50635771D02*
X145604762Y-50635771D01*
X145604762Y-50635771D02*
X145509524Y-50683390D01*
X145509524Y-50683390D02*
X145461905Y-50731009D01*
X145461905Y-50731009D02*
X145414286Y-50826247D01*
X192333333Y-63804819D02*
X192000000Y-63328628D01*
X191761905Y-63804819D02*
X191761905Y-62804819D01*
X191761905Y-62804819D02*
X192142857Y-62804819D01*
X192142857Y-62804819D02*
X192238095Y-62852438D01*
X192238095Y-62852438D02*
X192285714Y-62900057D01*
X192285714Y-62900057D02*
X192333333Y-62995295D01*
X192333333Y-62995295D02*
X192333333Y-63138152D01*
X192333333Y-63138152D02*
X192285714Y-63233390D01*
X192285714Y-63233390D02*
X192238095Y-63281009D01*
X192238095Y-63281009D02*
X192142857Y-63328628D01*
X192142857Y-63328628D02*
X191761905Y-63328628D01*
X193285714Y-63804819D02*
X192714286Y-63804819D01*
X193000000Y-63804819D02*
X193000000Y-62804819D01*
X193000000Y-62804819D02*
X192904762Y-62947676D01*
X192904762Y-62947676D02*
X192809524Y-63042914D01*
X192809524Y-63042914D02*
X192714286Y-63090533D01*
X160666666Y-46931009D02*
X160333333Y-46931009D01*
X160333333Y-47454819D02*
X160333333Y-46454819D01*
X160333333Y-46454819D02*
X160809523Y-46454819D01*
X161523809Y-46931009D02*
X161666666Y-46978628D01*
X161666666Y-46978628D02*
X161714285Y-47026247D01*
X161714285Y-47026247D02*
X161761904Y-47121485D01*
X161761904Y-47121485D02*
X161761904Y-47264342D01*
X161761904Y-47264342D02*
X161714285Y-47359580D01*
X161714285Y-47359580D02*
X161666666Y-47407200D01*
X161666666Y-47407200D02*
X161571428Y-47454819D01*
X161571428Y-47454819D02*
X161190476Y-47454819D01*
X161190476Y-47454819D02*
X161190476Y-46454819D01*
X161190476Y-46454819D02*
X161523809Y-46454819D01*
X161523809Y-46454819D02*
X161619047Y-46502438D01*
X161619047Y-46502438D02*
X161666666Y-46550057D01*
X161666666Y-46550057D02*
X161714285Y-46645295D01*
X161714285Y-46645295D02*
X161714285Y-46740533D01*
X161714285Y-46740533D02*
X161666666Y-46835771D01*
X161666666Y-46835771D02*
X161619047Y-46883390D01*
X161619047Y-46883390D02*
X161523809Y-46931009D01*
X161523809Y-46931009D02*
X161190476Y-46931009D01*
X162714285Y-47454819D02*
X162142857Y-47454819D01*
X162428571Y-47454819D02*
X162428571Y-46454819D01*
X162428571Y-46454819D02*
X162333333Y-46597676D01*
X162333333Y-46597676D02*
X162238095Y-46692914D01*
X162238095Y-46692914D02*
X162142857Y-46740533D01*
X146761905Y-73454819D02*
X146761905Y-72454819D01*
X146761905Y-72454819D02*
X147000000Y-72454819D01*
X147000000Y-72454819D02*
X147142857Y-72502438D01*
X147142857Y-72502438D02*
X147238095Y-72597676D01*
X147238095Y-72597676D02*
X147285714Y-72692914D01*
X147285714Y-72692914D02*
X147333333Y-72883390D01*
X147333333Y-72883390D02*
X147333333Y-73026247D01*
X147333333Y-73026247D02*
X147285714Y-73216723D01*
X147285714Y-73216723D02*
X147238095Y-73311961D01*
X147238095Y-73311961D02*
X147142857Y-73407200D01*
X147142857Y-73407200D02*
X147000000Y-73454819D01*
X147000000Y-73454819D02*
X146761905Y-73454819D01*
X147714286Y-72550057D02*
X147761905Y-72502438D01*
X147761905Y-72502438D02*
X147857143Y-72454819D01*
X147857143Y-72454819D02*
X148095238Y-72454819D01*
X148095238Y-72454819D02*
X148190476Y-72502438D01*
X148190476Y-72502438D02*
X148238095Y-72550057D01*
X148238095Y-72550057D02*
X148285714Y-72645295D01*
X148285714Y-72645295D02*
X148285714Y-72740533D01*
X148285714Y-72740533D02*
X148238095Y-72883390D01*
X148238095Y-72883390D02*
X147666667Y-73454819D01*
X147666667Y-73454819D02*
X148285714Y-73454819D01*
X196440476Y-146354819D02*
X196440476Y-145354819D01*
X196440476Y-145354819D02*
X196773809Y-146069104D01*
X196773809Y-146069104D02*
X197107142Y-145354819D01*
X197107142Y-145354819D02*
X197107142Y-146354819D01*
X197535714Y-145450057D02*
X197583333Y-145402438D01*
X197583333Y-145402438D02*
X197678571Y-145354819D01*
X197678571Y-145354819D02*
X197916666Y-145354819D01*
X197916666Y-145354819D02*
X198011904Y-145402438D01*
X198011904Y-145402438D02*
X198059523Y-145450057D01*
X198059523Y-145450057D02*
X198107142Y-145545295D01*
X198107142Y-145545295D02*
X198107142Y-145640533D01*
X198107142Y-145640533D02*
X198059523Y-145783390D01*
X198059523Y-145783390D02*
X197488095Y-146354819D01*
X197488095Y-146354819D02*
X198107142Y-146354819D01*
X157083333Y-76454819D02*
X156750000Y-75978628D01*
X156511905Y-76454819D02*
X156511905Y-75454819D01*
X156511905Y-75454819D02*
X156892857Y-75454819D01*
X156892857Y-75454819D02*
X156988095Y-75502438D01*
X156988095Y-75502438D02*
X157035714Y-75550057D01*
X157035714Y-75550057D02*
X157083333Y-75645295D01*
X157083333Y-75645295D02*
X157083333Y-75788152D01*
X157083333Y-75788152D02*
X157035714Y-75883390D01*
X157035714Y-75883390D02*
X156988095Y-75931009D01*
X156988095Y-75931009D02*
X156892857Y-75978628D01*
X156892857Y-75978628D02*
X156511905Y-75978628D01*
X157654762Y-75883390D02*
X157559524Y-75835771D01*
X157559524Y-75835771D02*
X157511905Y-75788152D01*
X157511905Y-75788152D02*
X157464286Y-75692914D01*
X157464286Y-75692914D02*
X157464286Y-75645295D01*
X157464286Y-75645295D02*
X157511905Y-75550057D01*
X157511905Y-75550057D02*
X157559524Y-75502438D01*
X157559524Y-75502438D02*
X157654762Y-75454819D01*
X157654762Y-75454819D02*
X157845238Y-75454819D01*
X157845238Y-75454819D02*
X157940476Y-75502438D01*
X157940476Y-75502438D02*
X157988095Y-75550057D01*
X157988095Y-75550057D02*
X158035714Y-75645295D01*
X158035714Y-75645295D02*
X158035714Y-75692914D01*
X158035714Y-75692914D02*
X157988095Y-75788152D01*
X157988095Y-75788152D02*
X157940476Y-75835771D01*
X157940476Y-75835771D02*
X157845238Y-75883390D01*
X157845238Y-75883390D02*
X157654762Y-75883390D01*
X157654762Y-75883390D02*
X157559524Y-75931009D01*
X157559524Y-75931009D02*
X157511905Y-75978628D01*
X157511905Y-75978628D02*
X157464286Y-76073866D01*
X157464286Y-76073866D02*
X157464286Y-76264342D01*
X157464286Y-76264342D02*
X157511905Y-76359580D01*
X157511905Y-76359580D02*
X157559524Y-76407200D01*
X157559524Y-76407200D02*
X157654762Y-76454819D01*
X157654762Y-76454819D02*
X157845238Y-76454819D01*
X157845238Y-76454819D02*
X157940476Y-76407200D01*
X157940476Y-76407200D02*
X157988095Y-76359580D01*
X157988095Y-76359580D02*
X158035714Y-76264342D01*
X158035714Y-76264342D02*
X158035714Y-76073866D01*
X158035714Y-76073866D02*
X157988095Y-75978628D01*
X157988095Y-75978628D02*
X157940476Y-75931009D01*
X157940476Y-75931009D02*
X157845238Y-75883390D01*
X184969642Y-58759580D02*
X184922023Y-58807200D01*
X184922023Y-58807200D02*
X184779166Y-58854819D01*
X184779166Y-58854819D02*
X184683928Y-58854819D01*
X184683928Y-58854819D02*
X184541071Y-58807200D01*
X184541071Y-58807200D02*
X184445833Y-58711961D01*
X184445833Y-58711961D02*
X184398214Y-58616723D01*
X184398214Y-58616723D02*
X184350595Y-58426247D01*
X184350595Y-58426247D02*
X184350595Y-58283390D01*
X184350595Y-58283390D02*
X184398214Y-58092914D01*
X184398214Y-58092914D02*
X184445833Y-57997676D01*
X184445833Y-57997676D02*
X184541071Y-57902438D01*
X184541071Y-57902438D02*
X184683928Y-57854819D01*
X184683928Y-57854819D02*
X184779166Y-57854819D01*
X184779166Y-57854819D02*
X184922023Y-57902438D01*
X184922023Y-57902438D02*
X184969642Y-57950057D01*
X185922023Y-58854819D02*
X185350595Y-58854819D01*
X185636309Y-58854819D02*
X185636309Y-57854819D01*
X185636309Y-57854819D02*
X185541071Y-57997676D01*
X185541071Y-57997676D02*
X185445833Y-58092914D01*
X185445833Y-58092914D02*
X185350595Y-58140533D01*
X186874404Y-58854819D02*
X186302976Y-58854819D01*
X186588690Y-58854819D02*
X186588690Y-57854819D01*
X186588690Y-57854819D02*
X186493452Y-57997676D01*
X186493452Y-57997676D02*
X186398214Y-58092914D01*
X186398214Y-58092914D02*
X186302976Y-58140533D01*
X170833333Y-48454819D02*
X170500000Y-47978628D01*
X170261905Y-48454819D02*
X170261905Y-47454819D01*
X170261905Y-47454819D02*
X170642857Y-47454819D01*
X170642857Y-47454819D02*
X170738095Y-47502438D01*
X170738095Y-47502438D02*
X170785714Y-47550057D01*
X170785714Y-47550057D02*
X170833333Y-47645295D01*
X170833333Y-47645295D02*
X170833333Y-47788152D01*
X170833333Y-47788152D02*
X170785714Y-47883390D01*
X170785714Y-47883390D02*
X170738095Y-47931009D01*
X170738095Y-47931009D02*
X170642857Y-47978628D01*
X170642857Y-47978628D02*
X170261905Y-47978628D01*
X171309524Y-48454819D02*
X171500000Y-48454819D01*
X171500000Y-48454819D02*
X171595238Y-48407200D01*
X171595238Y-48407200D02*
X171642857Y-48359580D01*
X171642857Y-48359580D02*
X171738095Y-48216723D01*
X171738095Y-48216723D02*
X171785714Y-48026247D01*
X171785714Y-48026247D02*
X171785714Y-47645295D01*
X171785714Y-47645295D02*
X171738095Y-47550057D01*
X171738095Y-47550057D02*
X171690476Y-47502438D01*
X171690476Y-47502438D02*
X171595238Y-47454819D01*
X171595238Y-47454819D02*
X171404762Y-47454819D01*
X171404762Y-47454819D02*
X171309524Y-47502438D01*
X171309524Y-47502438D02*
X171261905Y-47550057D01*
X171261905Y-47550057D02*
X171214286Y-47645295D01*
X171214286Y-47645295D02*
X171214286Y-47883390D01*
X171214286Y-47883390D02*
X171261905Y-47978628D01*
X171261905Y-47978628D02*
X171309524Y-48026247D01*
X171309524Y-48026247D02*
X171404762Y-48073866D01*
X171404762Y-48073866D02*
X171595238Y-48073866D01*
X171595238Y-48073866D02*
X171690476Y-48026247D01*
X171690476Y-48026247D02*
X171738095Y-47978628D01*
X171738095Y-47978628D02*
X171785714Y-47883390D01*
X206416666Y-102954819D02*
X206416666Y-103669104D01*
X206416666Y-103669104D02*
X206369047Y-103811961D01*
X206369047Y-103811961D02*
X206273809Y-103907200D01*
X206273809Y-103907200D02*
X206130952Y-103954819D01*
X206130952Y-103954819D02*
X206035714Y-103954819D01*
X207321428Y-103288152D02*
X207321428Y-103954819D01*
X207083333Y-102907200D02*
X206845238Y-103621485D01*
X206845238Y-103621485D02*
X207464285Y-103621485D01*
X164738095Y-59454819D02*
X164738095Y-60264342D01*
X164738095Y-60264342D02*
X164785714Y-60359580D01*
X164785714Y-60359580D02*
X164833333Y-60407200D01*
X164833333Y-60407200D02*
X164928571Y-60454819D01*
X164928571Y-60454819D02*
X165119047Y-60454819D01*
X165119047Y-60454819D02*
X165214285Y-60407200D01*
X165214285Y-60407200D02*
X165261904Y-60359580D01*
X165261904Y-60359580D02*
X165309523Y-60264342D01*
X165309523Y-60264342D02*
X165309523Y-59454819D01*
X165738095Y-59550057D02*
X165785714Y-59502438D01*
X165785714Y-59502438D02*
X165880952Y-59454819D01*
X165880952Y-59454819D02*
X166119047Y-59454819D01*
X166119047Y-59454819D02*
X166214285Y-59502438D01*
X166214285Y-59502438D02*
X166261904Y-59550057D01*
X166261904Y-59550057D02*
X166309523Y-59645295D01*
X166309523Y-59645295D02*
X166309523Y-59740533D01*
X166309523Y-59740533D02*
X166261904Y-59883390D01*
X166261904Y-59883390D02*
X165690476Y-60454819D01*
X165690476Y-60454819D02*
X166309523Y-60454819D01*
X193087213Y-87954820D02*
X193087213Y-88669105D01*
X193087213Y-88669105D02*
X193039594Y-88811962D01*
X193039594Y-88811962D02*
X192944356Y-88907201D01*
X192944356Y-88907201D02*
X192801499Y-88954820D01*
X192801499Y-88954820D02*
X192706261Y-88954820D01*
X193468166Y-87954820D02*
X194134832Y-87954820D01*
X194134832Y-87954820D02*
X193706261Y-88954820D01*
X166511905Y-57704819D02*
X166511905Y-56704819D01*
X166511905Y-56704819D02*
X166750000Y-56704819D01*
X166750000Y-56704819D02*
X166892857Y-56752438D01*
X166892857Y-56752438D02*
X166988095Y-56847676D01*
X166988095Y-56847676D02*
X167035714Y-56942914D01*
X167035714Y-56942914D02*
X167083333Y-57133390D01*
X167083333Y-57133390D02*
X167083333Y-57276247D01*
X167083333Y-57276247D02*
X167035714Y-57466723D01*
X167035714Y-57466723D02*
X166988095Y-57561961D01*
X166988095Y-57561961D02*
X166892857Y-57657200D01*
X166892857Y-57657200D02*
X166750000Y-57704819D01*
X166750000Y-57704819D02*
X166511905Y-57704819D01*
X167559524Y-57704819D02*
X167750000Y-57704819D01*
X167750000Y-57704819D02*
X167845238Y-57657200D01*
X167845238Y-57657200D02*
X167892857Y-57609580D01*
X167892857Y-57609580D02*
X167988095Y-57466723D01*
X167988095Y-57466723D02*
X168035714Y-57276247D01*
X168035714Y-57276247D02*
X168035714Y-56895295D01*
X168035714Y-56895295D02*
X167988095Y-56800057D01*
X167988095Y-56800057D02*
X167940476Y-56752438D01*
X167940476Y-56752438D02*
X167845238Y-56704819D01*
X167845238Y-56704819D02*
X167654762Y-56704819D01*
X167654762Y-56704819D02*
X167559524Y-56752438D01*
X167559524Y-56752438D02*
X167511905Y-56800057D01*
X167511905Y-56800057D02*
X167464286Y-56895295D01*
X167464286Y-56895295D02*
X167464286Y-57133390D01*
X167464286Y-57133390D02*
X167511905Y-57228628D01*
X167511905Y-57228628D02*
X167559524Y-57276247D01*
X167559524Y-57276247D02*
X167654762Y-57323866D01*
X167654762Y-57323866D02*
X167845238Y-57323866D01*
X167845238Y-57323866D02*
X167940476Y-57276247D01*
X167940476Y-57276247D02*
X167988095Y-57228628D01*
X167988095Y-57228628D02*
X168035714Y-57133390D01*
X145833333Y-64704819D02*
X145500000Y-64228628D01*
X145261905Y-64704819D02*
X145261905Y-63704819D01*
X145261905Y-63704819D02*
X145642857Y-63704819D01*
X145642857Y-63704819D02*
X145738095Y-63752438D01*
X145738095Y-63752438D02*
X145785714Y-63800057D01*
X145785714Y-63800057D02*
X145833333Y-63895295D01*
X145833333Y-63895295D02*
X145833333Y-64038152D01*
X145833333Y-64038152D02*
X145785714Y-64133390D01*
X145785714Y-64133390D02*
X145738095Y-64181009D01*
X145738095Y-64181009D02*
X145642857Y-64228628D01*
X145642857Y-64228628D02*
X145261905Y-64228628D01*
X146690476Y-64038152D02*
X146690476Y-64704819D01*
X146452381Y-63657200D02*
X146214286Y-64371485D01*
X146214286Y-64371485D02*
X146833333Y-64371485D01*
X153940476Y-146354819D02*
X153940476Y-145354819D01*
X153940476Y-145354819D02*
X154273809Y-146069104D01*
X154273809Y-146069104D02*
X154607142Y-145354819D01*
X154607142Y-145354819D02*
X154607142Y-146354819D01*
X155607142Y-146354819D02*
X155035714Y-146354819D01*
X155321428Y-146354819D02*
X155321428Y-145354819D01*
X155321428Y-145354819D02*
X155226190Y-145497676D01*
X155226190Y-145497676D02*
X155130952Y-145592914D01*
X155130952Y-145592914D02*
X155035714Y-145640533D01*
X186538095Y-52154819D02*
X186538095Y-52964342D01*
X186538095Y-52964342D02*
X186585714Y-53059580D01*
X186585714Y-53059580D02*
X186633333Y-53107200D01*
X186633333Y-53107200D02*
X186728571Y-53154819D01*
X186728571Y-53154819D02*
X186919047Y-53154819D01*
X186919047Y-53154819D02*
X187014285Y-53107200D01*
X187014285Y-53107200D02*
X187061904Y-53059580D01*
X187061904Y-53059580D02*
X187109523Y-52964342D01*
X187109523Y-52964342D02*
X187109523Y-52154819D01*
X187490476Y-52154819D02*
X188109523Y-52154819D01*
X188109523Y-52154819D02*
X187776190Y-52535771D01*
X187776190Y-52535771D02*
X187919047Y-52535771D01*
X187919047Y-52535771D02*
X188014285Y-52583390D01*
X188014285Y-52583390D02*
X188061904Y-52631009D01*
X188061904Y-52631009D02*
X188109523Y-52726247D01*
X188109523Y-52726247D02*
X188109523Y-52964342D01*
X188109523Y-52964342D02*
X188061904Y-53059580D01*
X188061904Y-53059580D02*
X188014285Y-53107200D01*
X188014285Y-53107200D02*
X187919047Y-53154819D01*
X187919047Y-53154819D02*
X187633333Y-53154819D01*
X187633333Y-53154819D02*
X187538095Y-53107200D01*
X187538095Y-53107200D02*
X187490476Y-53059580D01*
X199857142Y-76359580D02*
X199809523Y-76407200D01*
X199809523Y-76407200D02*
X199666666Y-76454819D01*
X199666666Y-76454819D02*
X199571428Y-76454819D01*
X199571428Y-76454819D02*
X199428571Y-76407200D01*
X199428571Y-76407200D02*
X199333333Y-76311961D01*
X199333333Y-76311961D02*
X199285714Y-76216723D01*
X199285714Y-76216723D02*
X199238095Y-76026247D01*
X199238095Y-76026247D02*
X199238095Y-75883390D01*
X199238095Y-75883390D02*
X199285714Y-75692914D01*
X199285714Y-75692914D02*
X199333333Y-75597676D01*
X199333333Y-75597676D02*
X199428571Y-75502438D01*
X199428571Y-75502438D02*
X199571428Y-75454819D01*
X199571428Y-75454819D02*
X199666666Y-75454819D01*
X199666666Y-75454819D02*
X199809523Y-75502438D01*
X199809523Y-75502438D02*
X199857142Y-75550057D01*
X200809523Y-76454819D02*
X200238095Y-76454819D01*
X200523809Y-76454819D02*
X200523809Y-75454819D01*
X200523809Y-75454819D02*
X200428571Y-75597676D01*
X200428571Y-75597676D02*
X200333333Y-75692914D01*
X200333333Y-75692914D02*
X200238095Y-75740533D01*
X201428571Y-75454819D02*
X201523809Y-75454819D01*
X201523809Y-75454819D02*
X201619047Y-75502438D01*
X201619047Y-75502438D02*
X201666666Y-75550057D01*
X201666666Y-75550057D02*
X201714285Y-75645295D01*
X201714285Y-75645295D02*
X201761904Y-75835771D01*
X201761904Y-75835771D02*
X201761904Y-76073866D01*
X201761904Y-76073866D02*
X201714285Y-76264342D01*
X201714285Y-76264342D02*
X201666666Y-76359580D01*
X201666666Y-76359580D02*
X201619047Y-76407200D01*
X201619047Y-76407200D02*
X201523809Y-76454819D01*
X201523809Y-76454819D02*
X201428571Y-76454819D01*
X201428571Y-76454819D02*
X201333333Y-76407200D01*
X201333333Y-76407200D02*
X201285714Y-76359580D01*
X201285714Y-76359580D02*
X201238095Y-76264342D01*
X201238095Y-76264342D02*
X201190476Y-76073866D01*
X201190476Y-76073866D02*
X201190476Y-75835771D01*
X201190476Y-75835771D02*
X201238095Y-75645295D01*
X201238095Y-75645295D02*
X201285714Y-75550057D01*
X201285714Y-75550057D02*
X201333333Y-75502438D01*
X201333333Y-75502438D02*
X201428571Y-75454819D01*
X206583333Y-69359580D02*
X206535714Y-69407200D01*
X206535714Y-69407200D02*
X206392857Y-69454819D01*
X206392857Y-69454819D02*
X206297619Y-69454819D01*
X206297619Y-69454819D02*
X206154762Y-69407200D01*
X206154762Y-69407200D02*
X206059524Y-69311961D01*
X206059524Y-69311961D02*
X206011905Y-69216723D01*
X206011905Y-69216723D02*
X205964286Y-69026247D01*
X205964286Y-69026247D02*
X205964286Y-68883390D01*
X205964286Y-68883390D02*
X206011905Y-68692914D01*
X206011905Y-68692914D02*
X206059524Y-68597676D01*
X206059524Y-68597676D02*
X206154762Y-68502438D01*
X206154762Y-68502438D02*
X206297619Y-68454819D01*
X206297619Y-68454819D02*
X206392857Y-68454819D01*
X206392857Y-68454819D02*
X206535714Y-68502438D01*
X206535714Y-68502438D02*
X206583333Y-68550057D01*
X206964286Y-68550057D02*
X207011905Y-68502438D01*
X207011905Y-68502438D02*
X207107143Y-68454819D01*
X207107143Y-68454819D02*
X207345238Y-68454819D01*
X207345238Y-68454819D02*
X207440476Y-68502438D01*
X207440476Y-68502438D02*
X207488095Y-68550057D01*
X207488095Y-68550057D02*
X207535714Y-68645295D01*
X207535714Y-68645295D02*
X207535714Y-68740533D01*
X207535714Y-68740533D02*
X207488095Y-68883390D01*
X207488095Y-68883390D02*
X206916667Y-69454819D01*
X206916667Y-69454819D02*
X207535714Y-69454819D01*
X173911905Y-53454819D02*
X173911905Y-54264342D01*
X173911905Y-54264342D02*
X173959524Y-54359580D01*
X173959524Y-54359580D02*
X174007143Y-54407200D01*
X174007143Y-54407200D02*
X174102381Y-54454819D01*
X174102381Y-54454819D02*
X174292857Y-54454819D01*
X174292857Y-54454819D02*
X174388095Y-54407200D01*
X174388095Y-54407200D02*
X174435714Y-54359580D01*
X174435714Y-54359580D02*
X174483333Y-54264342D01*
X174483333Y-54264342D02*
X174483333Y-53454819D01*
X175483333Y-54454819D02*
X174911905Y-54454819D01*
X175197619Y-54454819D02*
X175197619Y-53454819D01*
X175197619Y-53454819D02*
X175102381Y-53597676D01*
X175102381Y-53597676D02*
X175007143Y-53692914D01*
X175007143Y-53692914D02*
X174911905Y-53740533D01*
X176102381Y-53454819D02*
X176197619Y-53454819D01*
X176197619Y-53454819D02*
X176292857Y-53502438D01*
X176292857Y-53502438D02*
X176340476Y-53550057D01*
X176340476Y-53550057D02*
X176388095Y-53645295D01*
X176388095Y-53645295D02*
X176435714Y-53835771D01*
X176435714Y-53835771D02*
X176435714Y-54073866D01*
X176435714Y-54073866D02*
X176388095Y-54264342D01*
X176388095Y-54264342D02*
X176340476Y-54359580D01*
X176340476Y-54359580D02*
X176292857Y-54407200D01*
X176292857Y-54407200D02*
X176197619Y-54454819D01*
X176197619Y-54454819D02*
X176102381Y-54454819D01*
X176102381Y-54454819D02*
X176007143Y-54407200D01*
X176007143Y-54407200D02*
X175959524Y-54359580D01*
X175959524Y-54359580D02*
X175911905Y-54264342D01*
X175911905Y-54264342D02*
X175864286Y-54073866D01*
X175864286Y-54073866D02*
X175864286Y-53835771D01*
X175864286Y-53835771D02*
X175911905Y-53645295D01*
X175911905Y-53645295D02*
X175959524Y-53550057D01*
X175959524Y-53550057D02*
X176007143Y-53502438D01*
X176007143Y-53502438D02*
X176102381Y-53454819D01*
X161333333Y-66359580D02*
X161285714Y-66407200D01*
X161285714Y-66407200D02*
X161142857Y-66454819D01*
X161142857Y-66454819D02*
X161047619Y-66454819D01*
X161047619Y-66454819D02*
X160904762Y-66407200D01*
X160904762Y-66407200D02*
X160809524Y-66311961D01*
X160809524Y-66311961D02*
X160761905Y-66216723D01*
X160761905Y-66216723D02*
X160714286Y-66026247D01*
X160714286Y-66026247D02*
X160714286Y-65883390D01*
X160714286Y-65883390D02*
X160761905Y-65692914D01*
X160761905Y-65692914D02*
X160809524Y-65597676D01*
X160809524Y-65597676D02*
X160904762Y-65502438D01*
X160904762Y-65502438D02*
X161047619Y-65454819D01*
X161047619Y-65454819D02*
X161142857Y-65454819D01*
X161142857Y-65454819D02*
X161285714Y-65502438D01*
X161285714Y-65502438D02*
X161333333Y-65550057D01*
X161809524Y-66454819D02*
X162000000Y-66454819D01*
X162000000Y-66454819D02*
X162095238Y-66407200D01*
X162095238Y-66407200D02*
X162142857Y-66359580D01*
X162142857Y-66359580D02*
X162238095Y-66216723D01*
X162238095Y-66216723D02*
X162285714Y-66026247D01*
X162285714Y-66026247D02*
X162285714Y-65645295D01*
X162285714Y-65645295D02*
X162238095Y-65550057D01*
X162238095Y-65550057D02*
X162190476Y-65502438D01*
X162190476Y-65502438D02*
X162095238Y-65454819D01*
X162095238Y-65454819D02*
X161904762Y-65454819D01*
X161904762Y-65454819D02*
X161809524Y-65502438D01*
X161809524Y-65502438D02*
X161761905Y-65550057D01*
X161761905Y-65550057D02*
X161714286Y-65645295D01*
X161714286Y-65645295D02*
X161714286Y-65883390D01*
X161714286Y-65883390D02*
X161761905Y-65978628D01*
X161761905Y-65978628D02*
X161809524Y-66026247D01*
X161809524Y-66026247D02*
X161904762Y-66073866D01*
X161904762Y-66073866D02*
X162095238Y-66073866D01*
X162095238Y-66073866D02*
X162190476Y-66026247D01*
X162190476Y-66026247D02*
X162238095Y-65978628D01*
X162238095Y-65978628D02*
X162285714Y-65883390D01*
X195738095Y-63704819D02*
X195738095Y-64514342D01*
X195738095Y-64514342D02*
X195785714Y-64609580D01*
X195785714Y-64609580D02*
X195833333Y-64657200D01*
X195833333Y-64657200D02*
X195928571Y-64704819D01*
X195928571Y-64704819D02*
X196119047Y-64704819D01*
X196119047Y-64704819D02*
X196214285Y-64657200D01*
X196214285Y-64657200D02*
X196261904Y-64609580D01*
X196261904Y-64609580D02*
X196309523Y-64514342D01*
X196309523Y-64514342D02*
X196309523Y-63704819D01*
X197309523Y-64704819D02*
X196738095Y-64704819D01*
X197023809Y-64704819D02*
X197023809Y-63704819D01*
X197023809Y-63704819D02*
X196928571Y-63847676D01*
X196928571Y-63847676D02*
X196833333Y-63942914D01*
X196833333Y-63942914D02*
X196738095Y-63990533D01*
X146166667Y-116407200D02*
X146309524Y-116454819D01*
X146309524Y-116454819D02*
X146547619Y-116454819D01*
X146547619Y-116454819D02*
X146642857Y-116407200D01*
X146642857Y-116407200D02*
X146690476Y-116359580D01*
X146690476Y-116359580D02*
X146738095Y-116264342D01*
X146738095Y-116264342D02*
X146738095Y-116169104D01*
X146738095Y-116169104D02*
X146690476Y-116073866D01*
X146690476Y-116073866D02*
X146642857Y-116026247D01*
X146642857Y-116026247D02*
X146547619Y-115978628D01*
X146547619Y-115978628D02*
X146357143Y-115931009D01*
X146357143Y-115931009D02*
X146261905Y-115883390D01*
X146261905Y-115883390D02*
X146214286Y-115835771D01*
X146214286Y-115835771D02*
X146166667Y-115740533D01*
X146166667Y-115740533D02*
X146166667Y-115645295D01*
X146166667Y-115645295D02*
X146214286Y-115550057D01*
X146214286Y-115550057D02*
X146261905Y-115502438D01*
X146261905Y-115502438D02*
X146357143Y-115454819D01*
X146357143Y-115454819D02*
X146595238Y-115454819D01*
X146595238Y-115454819D02*
X146738095Y-115502438D01*
X147071429Y-115454819D02*
X147309524Y-116454819D01*
X147309524Y-116454819D02*
X147500000Y-115740533D01*
X147500000Y-115740533D02*
X147690476Y-116454819D01*
X147690476Y-116454819D02*
X147928572Y-115454819D01*
X148261905Y-115550057D02*
X148309524Y-115502438D01*
X148309524Y-115502438D02*
X148404762Y-115454819D01*
X148404762Y-115454819D02*
X148642857Y-115454819D01*
X148642857Y-115454819D02*
X148738095Y-115502438D01*
X148738095Y-115502438D02*
X148785714Y-115550057D01*
X148785714Y-115550057D02*
X148833333Y-115645295D01*
X148833333Y-115645295D02*
X148833333Y-115740533D01*
X148833333Y-115740533D02*
X148785714Y-115883390D01*
X148785714Y-115883390D02*
X148214286Y-116454819D01*
X148214286Y-116454819D02*
X148833333Y-116454819D01*
X155011905Y-85204819D02*
X155011905Y-84204819D01*
X155011905Y-84204819D02*
X155250000Y-84204819D01*
X155250000Y-84204819D02*
X155392857Y-84252438D01*
X155392857Y-84252438D02*
X155488095Y-84347676D01*
X155488095Y-84347676D02*
X155535714Y-84442914D01*
X155535714Y-84442914D02*
X155583333Y-84633390D01*
X155583333Y-84633390D02*
X155583333Y-84776247D01*
X155583333Y-84776247D02*
X155535714Y-84966723D01*
X155535714Y-84966723D02*
X155488095Y-85061961D01*
X155488095Y-85061961D02*
X155392857Y-85157200D01*
X155392857Y-85157200D02*
X155250000Y-85204819D01*
X155250000Y-85204819D02*
X155011905Y-85204819D01*
X155916667Y-84204819D02*
X156535714Y-84204819D01*
X156535714Y-84204819D02*
X156202381Y-84585771D01*
X156202381Y-84585771D02*
X156345238Y-84585771D01*
X156345238Y-84585771D02*
X156440476Y-84633390D01*
X156440476Y-84633390D02*
X156488095Y-84681009D01*
X156488095Y-84681009D02*
X156535714Y-84776247D01*
X156535714Y-84776247D02*
X156535714Y-85014342D01*
X156535714Y-85014342D02*
X156488095Y-85109580D01*
X156488095Y-85109580D02*
X156440476Y-85157200D01*
X156440476Y-85157200D02*
X156345238Y-85204819D01*
X156345238Y-85204819D02*
X156059524Y-85204819D01*
X156059524Y-85204819D02*
X155964286Y-85157200D01*
X155964286Y-85157200D02*
X155916667Y-85109580D01*
X160011905Y-53454819D02*
X160011905Y-52454819D01*
X160011905Y-52454819D02*
X160250000Y-52454819D01*
X160250000Y-52454819D02*
X160392857Y-52502438D01*
X160392857Y-52502438D02*
X160488095Y-52597676D01*
X160488095Y-52597676D02*
X160535714Y-52692914D01*
X160535714Y-52692914D02*
X160583333Y-52883390D01*
X160583333Y-52883390D02*
X160583333Y-53026247D01*
X160583333Y-53026247D02*
X160535714Y-53216723D01*
X160535714Y-53216723D02*
X160488095Y-53311961D01*
X160488095Y-53311961D02*
X160392857Y-53407200D01*
X160392857Y-53407200D02*
X160250000Y-53454819D01*
X160250000Y-53454819D02*
X160011905Y-53454819D01*
X161535714Y-53454819D02*
X160964286Y-53454819D01*
X161250000Y-53454819D02*
X161250000Y-52454819D01*
X161250000Y-52454819D02*
X161154762Y-52597676D01*
X161154762Y-52597676D02*
X161059524Y-52692914D01*
X161059524Y-52692914D02*
X160964286Y-52740533D01*
X197666666Y-76534819D02*
X197666666Y-77249104D01*
X197666666Y-77249104D02*
X197619047Y-77391961D01*
X197619047Y-77391961D02*
X197523809Y-77487200D01*
X197523809Y-77487200D02*
X197380952Y-77534819D01*
X197380952Y-77534819D02*
X197285714Y-77534819D01*
X198571428Y-76534819D02*
X198380952Y-76534819D01*
X198380952Y-76534819D02*
X198285714Y-76582438D01*
X198285714Y-76582438D02*
X198238095Y-76630057D01*
X198238095Y-76630057D02*
X198142857Y-76772914D01*
X198142857Y-76772914D02*
X198095238Y-76963390D01*
X198095238Y-76963390D02*
X198095238Y-77344342D01*
X198095238Y-77344342D02*
X198142857Y-77439580D01*
X198142857Y-77439580D02*
X198190476Y-77487200D01*
X198190476Y-77487200D02*
X198285714Y-77534819D01*
X198285714Y-77534819D02*
X198476190Y-77534819D01*
X198476190Y-77534819D02*
X198571428Y-77487200D01*
X198571428Y-77487200D02*
X198619047Y-77439580D01*
X198619047Y-77439580D02*
X198666666Y-77344342D01*
X198666666Y-77344342D02*
X198666666Y-77106247D01*
X198666666Y-77106247D02*
X198619047Y-77011009D01*
X198619047Y-77011009D02*
X198571428Y-76963390D01*
X198571428Y-76963390D02*
X198476190Y-76915771D01*
X198476190Y-76915771D02*
X198285714Y-76915771D01*
X198285714Y-76915771D02*
X198190476Y-76963390D01*
X198190476Y-76963390D02*
X198142857Y-77011009D01*
X198142857Y-77011009D02*
X198095238Y-77106247D01*
X210404761Y-107300057D02*
X210309523Y-107252438D01*
X210309523Y-107252438D02*
X210214285Y-107157200D01*
X210214285Y-107157200D02*
X210071428Y-107014342D01*
X210071428Y-107014342D02*
X209976190Y-106966723D01*
X209976190Y-106966723D02*
X209880952Y-106966723D01*
X209928571Y-107204819D02*
X209833333Y-107157200D01*
X209833333Y-107157200D02*
X209738095Y-107061961D01*
X209738095Y-107061961D02*
X209690476Y-106871485D01*
X209690476Y-106871485D02*
X209690476Y-106538152D01*
X209690476Y-106538152D02*
X209738095Y-106347676D01*
X209738095Y-106347676D02*
X209833333Y-106252438D01*
X209833333Y-106252438D02*
X209928571Y-106204819D01*
X209928571Y-106204819D02*
X210119047Y-106204819D01*
X210119047Y-106204819D02*
X210214285Y-106252438D01*
X210214285Y-106252438D02*
X210309523Y-106347676D01*
X210309523Y-106347676D02*
X210357142Y-106538152D01*
X210357142Y-106538152D02*
X210357142Y-106871485D01*
X210357142Y-106871485D02*
X210309523Y-107061961D01*
X210309523Y-107061961D02*
X210214285Y-107157200D01*
X210214285Y-107157200D02*
X210119047Y-107204819D01*
X210119047Y-107204819D02*
X209928571Y-107204819D01*
X210738095Y-106300057D02*
X210785714Y-106252438D01*
X210785714Y-106252438D02*
X210880952Y-106204819D01*
X210880952Y-106204819D02*
X211119047Y-106204819D01*
X211119047Y-106204819D02*
X211214285Y-106252438D01*
X211214285Y-106252438D02*
X211261904Y-106300057D01*
X211261904Y-106300057D02*
X211309523Y-106395295D01*
X211309523Y-106395295D02*
X211309523Y-106490533D01*
X211309523Y-106490533D02*
X211261904Y-106633390D01*
X211261904Y-106633390D02*
X210690476Y-107204819D01*
X210690476Y-107204819D02*
X211309523Y-107204819D01*
X201857142Y-64454819D02*
X201523809Y-63978628D01*
X201285714Y-64454819D02*
X201285714Y-63454819D01*
X201285714Y-63454819D02*
X201666666Y-63454819D01*
X201666666Y-63454819D02*
X201761904Y-63502438D01*
X201761904Y-63502438D02*
X201809523Y-63550057D01*
X201809523Y-63550057D02*
X201857142Y-63645295D01*
X201857142Y-63645295D02*
X201857142Y-63788152D01*
X201857142Y-63788152D02*
X201809523Y-63883390D01*
X201809523Y-63883390D02*
X201761904Y-63931009D01*
X201761904Y-63931009D02*
X201666666Y-63978628D01*
X201666666Y-63978628D02*
X201285714Y-63978628D01*
X202238095Y-63550057D02*
X202285714Y-63502438D01*
X202285714Y-63502438D02*
X202380952Y-63454819D01*
X202380952Y-63454819D02*
X202619047Y-63454819D01*
X202619047Y-63454819D02*
X202714285Y-63502438D01*
X202714285Y-63502438D02*
X202761904Y-63550057D01*
X202761904Y-63550057D02*
X202809523Y-63645295D01*
X202809523Y-63645295D02*
X202809523Y-63740533D01*
X202809523Y-63740533D02*
X202761904Y-63883390D01*
X202761904Y-63883390D02*
X202190476Y-64454819D01*
X202190476Y-64454819D02*
X202809523Y-64454819D01*
X203142857Y-63454819D02*
X203761904Y-63454819D01*
X203761904Y-63454819D02*
X203428571Y-63835771D01*
X203428571Y-63835771D02*
X203571428Y-63835771D01*
X203571428Y-63835771D02*
X203666666Y-63883390D01*
X203666666Y-63883390D02*
X203714285Y-63931009D01*
X203714285Y-63931009D02*
X203761904Y-64026247D01*
X203761904Y-64026247D02*
X203761904Y-64264342D01*
X203761904Y-64264342D02*
X203714285Y-64359580D01*
X203714285Y-64359580D02*
X203666666Y-64407200D01*
X203666666Y-64407200D02*
X203571428Y-64454819D01*
X203571428Y-64454819D02*
X203285714Y-64454819D01*
X203285714Y-64454819D02*
X203190476Y-64407200D01*
X203190476Y-64407200D02*
X203142857Y-64359580D01*
X139466666Y-51054819D02*
X139466666Y-51769104D01*
X139466666Y-51769104D02*
X139419047Y-51911961D01*
X139419047Y-51911961D02*
X139323809Y-52007200D01*
X139323809Y-52007200D02*
X139180952Y-52054819D01*
X139180952Y-52054819D02*
X139085714Y-52054819D01*
X139847619Y-51054819D02*
X140466666Y-51054819D01*
X140466666Y-51054819D02*
X140133333Y-51435771D01*
X140133333Y-51435771D02*
X140276190Y-51435771D01*
X140276190Y-51435771D02*
X140371428Y-51483390D01*
X140371428Y-51483390D02*
X140419047Y-51531009D01*
X140419047Y-51531009D02*
X140466666Y-51626247D01*
X140466666Y-51626247D02*
X140466666Y-51864342D01*
X140466666Y-51864342D02*
X140419047Y-51959580D01*
X140419047Y-51959580D02*
X140371428Y-52007200D01*
X140371428Y-52007200D02*
X140276190Y-52054819D01*
X140276190Y-52054819D02*
X139990476Y-52054819D01*
X139990476Y-52054819D02*
X139895238Y-52007200D01*
X139895238Y-52007200D02*
X139847619Y-51959580D01*
%TO.C,C12*%
D13*
X190488748Y-83015000D02*
X191011252Y-83015000D01*
X190488748Y-84485000D02*
X191011252Y-84485000D01*
%TO.C,U6*%
X147940000Y-42590000D02*
X147990000Y-42590000D01*
X147940000Y-44410000D02*
X147940000Y-42590000D01*
X147990000Y-44410000D02*
X147940000Y-44410000D01*
X151010000Y-42590000D02*
X151060000Y-42590000D01*
X151060000Y-42590000D02*
X151060000Y-44410000D01*
X151060000Y-44410000D02*
X151010000Y-44410000D01*
X151010000Y-42050000D02*
X151340000Y-41810000D01*
X151340000Y-42290000D01*
X151010000Y-42050000D01*
G36*
X151340000Y-42290000D02*
G01*
X151010000Y-42050000D01*
X151340000Y-41810000D01*
X151340000Y-42290000D01*
G37*
%TO.C,U4*%
X151140000Y-75902500D02*
X151615000Y-75902500D01*
X151140000Y-76377500D02*
X151140000Y-75902500D01*
X151140000Y-80122500D02*
X151140000Y-79647500D01*
X151615000Y-80122500D02*
X151140000Y-80122500D01*
X154885000Y-75902500D02*
X155360000Y-75902500D01*
X155360000Y-75902500D02*
X155360000Y-76377500D01*
X155360000Y-79647500D02*
X155360000Y-80122500D01*
X155360000Y-80122500D02*
X154885000Y-80122500D01*
X150610000Y-76762500D02*
X150280000Y-77002500D01*
X150280000Y-76522500D01*
X150610000Y-76762500D01*
G36*
X150610000Y-76762500D02*
G01*
X150280000Y-77002500D01*
X150280000Y-76522500D01*
X150610000Y-76762500D01*
G37*
%TO.C,L1*%
X137950000Y-78050000D02*
X144550000Y-78050000D01*
X137950000Y-79750000D02*
X137950000Y-78050000D01*
X137950000Y-84450000D02*
X137950000Y-82750000D01*
X144550000Y-78050000D02*
X144550000Y-79750000D01*
X144550000Y-82750000D02*
X144550000Y-84450000D01*
X144550000Y-84450000D02*
X137950000Y-84450000D01*
%TO.C,BZ1*%
X201900000Y-109650000D02*
X204100000Y-109650000D01*
X201900000Y-118850000D02*
X201900000Y-109650000D01*
X201900000Y-118850000D02*
X204100000Y-118850000D01*
X204100000Y-118850000D02*
X204100000Y-119250000D01*
X208900000Y-109650000D02*
X211100000Y-109650000D01*
X208900000Y-118850000D02*
X211100000Y-118850000D01*
X211100000Y-109650000D02*
X211100000Y-118850000D01*
%TO.C,C8*%
X176925547Y-82438749D02*
X176925547Y-82961253D01*
X178395547Y-82438749D02*
X178395547Y-82961253D01*
%TO.C,R19*%
X165477064Y-48265000D02*
X165022936Y-48265000D01*
X165477064Y-49735000D02*
X165022936Y-49735000D01*
%TO.C,R10*%
X167765000Y-50272936D02*
X167765000Y-50727064D01*
X169235000Y-50272936D02*
X169235000Y-50727064D01*
%TO.C,C1*%
X191511252Y-52265000D02*
X190988748Y-52265000D01*
X191511252Y-53735000D02*
X190988748Y-53735000D01*
%TO.C,D8*%
X164200000Y-52760000D02*
X167060000Y-52760000D01*
X167060000Y-50840000D02*
X164200000Y-50840000D01*
X167060000Y-52760000D02*
X167060000Y-50840000D01*
%TO.C,R17*%
X131665000Y-92227064D02*
X131665000Y-91772936D01*
X133135000Y-92227064D02*
X133135000Y-91772936D01*
%TO.C,R13*%
X203522936Y-105515000D02*
X203977064Y-105515000D01*
X203522936Y-106985000D02*
X203977064Y-106985000D01*
%TO.C,J5*%
X152390000Y-40140000D02*
X152390000Y-41390000D01*
X152690000Y-41750000D02*
X153300000Y-41750000D01*
X152690000Y-43050000D02*
X153300000Y-43050000D01*
X153300000Y-41050000D02*
X153300000Y-44550000D01*
X153300000Y-44550000D02*
X158200000Y-44550000D01*
X153640000Y-40140000D02*
X152390000Y-40140000D01*
X154150000Y-40240000D02*
X154150000Y-40440000D01*
X154450000Y-40240000D02*
X154150000Y-40240000D01*
X154450000Y-40340000D02*
X154150000Y-40340000D01*
X154450000Y-40440000D02*
X154450000Y-40240000D01*
X155250000Y-40440000D02*
X155250000Y-41050000D01*
X155250000Y-41050000D02*
X153300000Y-41050000D01*
X155650000Y-44050000D02*
X155850000Y-44050000D01*
X155650000Y-44550000D02*
X155650000Y-44050000D01*
X155750000Y-44550000D02*
X155750000Y-44050000D01*
X155850000Y-44050000D02*
X155850000Y-44550000D01*
X156250000Y-41050000D02*
X156250000Y-40440000D01*
X158200000Y-41050000D02*
X156250000Y-41050000D01*
X158200000Y-44550000D02*
X158200000Y-41050000D01*
X158810000Y-41750000D02*
X158200000Y-41750000D01*
X158810000Y-43050000D02*
X158200000Y-43050000D01*
X152690000Y-40440000D02*
X158810000Y-40440000D01*
X158810000Y-45160000D01*
X152690000Y-45160000D01*
X152690000Y-40440000D01*
%TO.C,DF1*%
X179949295Y-71265001D02*
X180471799Y-71265001D01*
X179949295Y-72735001D02*
X180471799Y-72735001D01*
%TO.C,Y1*%
X170575547Y-80290001D02*
X170575547Y-84910001D01*
X170575547Y-84910001D02*
X176095547Y-84910001D01*
%TO.C,SW3*%
X135350000Y-87350000D02*
X147650000Y-87350000D01*
X135350000Y-89470000D02*
X135350000Y-87350000D01*
X135350000Y-94470000D02*
X135350000Y-92530000D01*
X135350000Y-99650000D02*
X135350000Y-97530000D01*
X147650000Y-87350000D02*
X147650000Y-89470000D01*
X147650000Y-92530000D02*
X147650000Y-94470000D01*
X147650000Y-97530000D02*
X147650000Y-99650000D01*
X147650000Y-99650000D02*
X135350000Y-99650000D01*
X146179050Y-93540000D02*
G75*
G02*
X137020950Y-93540000I-4579050J0D01*
G01*
X137020950Y-93540000D02*
G75*
G02*
X146179050Y-93540000I4579050J0D01*
G01*
%TO.C,R21*%
X189139564Y-66065000D02*
X188685436Y-66065000D01*
X189139564Y-67535000D02*
X188685436Y-67535000D01*
%TO.C,R22*%
X197272936Y-71765000D02*
X197727064Y-71765000D01*
X197272936Y-73235000D02*
X197727064Y-73235000D01*
%TO.C,D6*%
X153750000Y-52360000D02*
X153750000Y-48350000D01*
X153750000Y-52360000D02*
X155750000Y-52360000D01*
X155750000Y-52360000D02*
X155750000Y-48350000D01*
%TO.C,U8*%
X169800547Y-68190001D02*
X170450547Y-68190001D01*
X169800547Y-68840001D02*
X169800547Y-68190001D01*
X169800547Y-75410001D02*
X169800547Y-74760001D01*
X170450547Y-75410001D02*
X169800547Y-75410001D01*
X176370547Y-68190001D02*
X177020547Y-68190001D01*
X177020547Y-68190001D02*
X177020547Y-68840001D01*
X177020547Y-74760001D02*
X177020547Y-75410001D01*
X177020547Y-75410001D02*
X176370547Y-75410001D01*
X169270547Y-69200001D02*
X168940547Y-69440001D01*
X168940547Y-68960001D01*
X169270547Y-69200001D01*
G36*
X169270547Y-69200001D02*
G01*
X168940547Y-69440001D01*
X168940547Y-68960001D01*
X169270547Y-69200001D01*
G37*
%TO.C,RF1*%
X179349295Y-68465001D02*
X179871799Y-68465001D01*
X179349295Y-69935001D02*
X179871799Y-69935001D01*
%TO.C,U9*%
X157275547Y-68315001D02*
X162795547Y-68315001D01*
X157275547Y-68585001D02*
X157275547Y-68315001D01*
X157275547Y-73835001D02*
X157275547Y-73565001D01*
X162795547Y-68315001D02*
X162795547Y-68585001D01*
X162795547Y-73565001D02*
X162795547Y-73835001D01*
X162795547Y-73835001D02*
X157275547Y-73835001D01*
X156445547Y-68575001D02*
X156105547Y-68105001D01*
X156785547Y-68105001D01*
X156445547Y-68575001D01*
G36*
X156445547Y-68575001D02*
G01*
X156105547Y-68105001D01*
X156785547Y-68105001D01*
X156445547Y-68575001D01*
G37*
%TO.C,R3*%
X192727064Y-70265000D02*
X192272936Y-70265000D01*
X192727064Y-71735000D02*
X192272936Y-71735000D01*
%TO.C,R20*%
X170227064Y-56865000D02*
X169772936Y-56865000D01*
X170227064Y-58335000D02*
X169772936Y-58335000D01*
%TO.C,R14*%
X172975547Y-64772937D02*
X172975547Y-65227065D01*
X174445547Y-64772937D02*
X174445547Y-65227065D01*
%TO.C,J1*%
X195870000Y-47580000D02*
X210870000Y-47580000D01*
X195870000Y-62580000D02*
X195870000Y-47580000D01*
X210670000Y-55080000D02*
X209670000Y-54080000D01*
X210670000Y-55080000D02*
X209670000Y-56080000D01*
X210870000Y-47580000D02*
X210870000Y-62580000D01*
X210870000Y-62580000D02*
X195870000Y-62580000D01*
%TO.C,U5*%
X152990000Y-63890000D02*
X156210000Y-63890000D01*
X152990000Y-64065000D02*
X152990000Y-63890000D01*
X152990000Y-67110000D02*
X152990000Y-66935000D01*
X156210000Y-63890000D02*
X156210000Y-64065000D01*
X156210000Y-66935000D02*
X156210000Y-67110000D01*
X156210000Y-67110000D02*
X152990000Y-67110000D01*
X156760000Y-66940000D02*
X157000000Y-67270000D01*
X156520000Y-67270000D01*
X156760000Y-66940000D01*
G36*
X157000000Y-67270000D02*
G01*
X156520000Y-67270000D01*
X156760000Y-66940000D01*
X157000000Y-67270000D01*
G37*
%TO.C,R7*%
X146265000Y-79172936D02*
X146265000Y-79627064D01*
X147735000Y-79172936D02*
X147735000Y-79627064D01*
%TO.C,CAF1*%
X178986795Y-66265001D02*
X179509299Y-66265001D01*
X178986795Y-67735001D02*
X179509299Y-67735001D01*
%TO.C,C5*%
X184661252Y-45265000D02*
X184138748Y-45265000D01*
X184661252Y-46735000D02*
X184138748Y-46735000D01*
%TO.C,U11*%
X158565000Y-76440000D02*
X158630000Y-76440000D01*
X158565000Y-80560000D02*
X158565000Y-76440000D01*
X158630000Y-80560000D02*
X158565000Y-80560000D01*
X167370000Y-76440000D02*
X167435000Y-76440000D01*
X167435000Y-76440000D02*
X167435000Y-80560000D01*
X167435000Y-80560000D02*
X167370000Y-80560000D01*
X167370000Y-75900000D02*
X167700000Y-75660000D01*
X167700000Y-76140000D01*
X167370000Y-75900000D01*
G36*
X167700000Y-76140000D02*
G01*
X167370000Y-75900000D01*
X167700000Y-75660000D01*
X167700000Y-76140000D01*
G37*
%TO.C,D7*%
X169825000Y-46360000D02*
X172685000Y-46360000D01*
X172685000Y-44440000D02*
X169825000Y-44440000D01*
X172685000Y-46360000D02*
X172685000Y-44440000D01*
%TO.C,D5*%
X181540000Y-74500000D02*
X181540000Y-77360000D01*
X181540000Y-77360000D02*
X183460000Y-77360000D01*
X183460000Y-77360000D02*
X183460000Y-74500000D01*
%TO.C,R2*%
X147765000Y-66522936D02*
X147765000Y-66977064D01*
X149235000Y-66522936D02*
X149235000Y-66977064D01*
%TO.C,R15*%
X174975547Y-64772937D02*
X174975547Y-65227065D01*
X176445547Y-64772937D02*
X176445547Y-65227065D01*
%TO.C,D4*%
X189290000Y-58000000D02*
X189290000Y-60860000D01*
X189290000Y-60860000D02*
X191210000Y-60860000D01*
X191210000Y-60860000D02*
X191210000Y-58000000D01*
%TO.C,U7*%
X181452500Y-53640000D02*
X183272500Y-53640000D01*
X181452500Y-53690000D02*
X181452500Y-53640000D01*
X181452500Y-56760000D02*
X181452500Y-56710000D01*
X183272500Y-53640000D02*
X183272500Y-53690000D01*
X183272500Y-54810000D02*
X183272500Y-55590000D01*
X183272500Y-56710000D02*
X183272500Y-56760000D01*
X183272500Y-56760000D02*
X181452500Y-56760000D01*
X180912500Y-53690000D02*
X180672500Y-53360000D01*
X181152500Y-53360000D01*
X180912500Y-53690000D01*
G36*
X180912500Y-53690000D02*
G01*
X180672500Y-53360000D01*
X181152500Y-53360000D01*
X180912500Y-53690000D01*
G37*
%TO.C,L2*%
X137950000Y-70800000D02*
X144550000Y-70800000D01*
X137950000Y-72500000D02*
X137950000Y-70800000D01*
X137950000Y-77200000D02*
X137950000Y-75500000D01*
X144550000Y-70800000D02*
X144550000Y-72500000D01*
X144550000Y-75500000D02*
X144550000Y-77200000D01*
X144550000Y-77200000D02*
X137950000Y-77200000D01*
%TO.C,C6*%
X169975547Y-64761253D02*
X169975547Y-64238749D01*
X171445547Y-64761253D02*
X171445547Y-64238749D01*
%TO.C,SW1*%
X187300000Y-48600000D02*
X187300000Y-49390000D01*
X189350000Y-50440000D02*
X189150000Y-50440000D01*
X190850000Y-46300000D02*
X190850000Y-47590000D01*
X190850000Y-46300000D02*
X191050000Y-46090000D01*
X191950000Y-46090000D02*
X191050000Y-46090000D01*
X192150000Y-46300000D02*
X191950000Y-46090000D01*
X192150000Y-47590000D02*
X192150000Y-46300000D01*
X192350000Y-50440000D02*
X190650000Y-50440000D01*
X193600000Y-47590000D02*
X187900000Y-47590000D01*
X194200000Y-49390000D02*
X194200000Y-48600000D01*
%TO.C,R11*%
X193015000Y-58522936D02*
X193015000Y-58977064D01*
X194485000Y-58522936D02*
X194485000Y-58977064D01*
%TO.C,Q1*%
X153710000Y-73300000D02*
X153710000Y-69700000D01*
X149260000Y-71500000D02*
G75*
G02*
X153698478Y-69661522I2600000J0D01*
G01*
X153698478Y-73338478D02*
G75*
G02*
X149259999Y-71500000I-1838478J1838478D01*
G01*
%TO.C,F1*%
X156840000Y-50852064D02*
X156840000Y-49647936D01*
X158660000Y-50852064D02*
X158660000Y-49647936D01*
%TO.C,C3*%
X182761252Y-51515000D02*
X182238748Y-51515000D01*
X182761252Y-52985000D02*
X182238748Y-52985000D01*
%TO.C,C4*%
X157261252Y-61015000D02*
X156738748Y-61015000D01*
X157261252Y-62485000D02*
X156738748Y-62485000D01*
%TO.C,J2*%
X203240000Y-76380000D02*
X209680000Y-76380000D01*
X203240000Y-84700000D02*
X203240000Y-76380000D01*
X203760000Y-84700000D02*
X203760000Y-76380000D01*
X209060000Y-76970000D02*
X209060000Y-76380000D01*
X209060000Y-79510000D02*
X209060000Y-79030000D01*
X209060000Y-82050000D02*
X209060000Y-81570000D01*
X209060000Y-84700000D02*
X209060000Y-84110000D01*
X209680000Y-76380000D02*
X209680000Y-76970000D01*
X209680000Y-79030000D02*
X209680000Y-79510000D01*
X209680000Y-81570000D02*
X209680000Y-82050000D01*
X209680000Y-84110000D02*
X209680000Y-84700000D01*
X209680000Y-84700000D02*
X203240000Y-84700000D01*
X210030000Y-83080000D02*
X210640000Y-82640000D01*
X210640000Y-83520000D01*
X210030000Y-83080000D01*
G36*
X210640000Y-83520000D02*
G01*
X210030000Y-83080000D01*
X210640000Y-82640000D01*
X210640000Y-83520000D01*
G37*
%TO.C,R5*%
X145772936Y-40265000D02*
X146227064Y-40265000D01*
X145772936Y-41735000D02*
X146227064Y-41735000D01*
%TO.C,R16*%
X179477064Y-64015000D02*
X179022936Y-64015000D01*
X179477064Y-65485000D02*
X179022936Y-65485000D01*
%TO.C,R12*%
X184265000Y-75272936D02*
X184265000Y-75727064D01*
X185735000Y-75272936D02*
X185735000Y-75727064D01*
%TO.C,C7*%
X168275547Y-82438749D02*
X168275547Y-82961253D01*
X169745547Y-82438749D02*
X169745547Y-82961253D01*
%TO.C,R18*%
X175772936Y-44765000D02*
X176227064Y-44765000D01*
X175772936Y-46235000D02*
X176227064Y-46235000D01*
%TO.C,R6*%
X144465000Y-47972936D02*
X144465000Y-48427064D01*
X145935000Y-47972936D02*
X145935000Y-48427064D01*
%TO.C,R1*%
X192272936Y-64265000D02*
X192727064Y-64265000D01*
X192272936Y-65735000D02*
X192727064Y-65735000D01*
%TO.C,FB1*%
X160850378Y-48190000D02*
X161649622Y-48190000D01*
X160850378Y-49310000D02*
X161649622Y-49310000D01*
%TO.C,D2*%
X150110000Y-74500000D02*
X146100000Y-74500000D01*
X150110000Y-76500000D02*
X146100000Y-76500000D01*
X150110000Y-76500000D02*
X150110000Y-74500000D01*
%TO.C,R8*%
X156515000Y-79022936D02*
X156515000Y-79477064D01*
X157985000Y-79022936D02*
X157985000Y-79477064D01*
%TO.C,C11*%
X182101248Y-57415000D02*
X182623752Y-57415000D01*
X182101248Y-58885000D02*
X182623752Y-58885000D01*
%TO.C,R9*%
X170265000Y-50272936D02*
X170265000Y-50727064D01*
X171735000Y-50272936D02*
X171735000Y-50727064D01*
%TO.C,J4*%
X202080000Y-86380000D02*
X210120000Y-86380000D01*
X202080000Y-89200000D02*
X202080000Y-86380000D01*
X202080000Y-102120000D02*
X202080000Y-89800000D01*
X204200000Y-86380000D02*
X204200000Y-87620000D01*
X204200000Y-91380000D02*
X204200000Y-93957000D01*
X204200000Y-95043000D02*
X204200000Y-98957000D01*
X204200000Y-100043000D02*
X204200000Y-102120000D01*
X205500000Y-86380000D02*
X205500000Y-87620000D01*
X205500000Y-91380000D02*
X205500000Y-92688000D01*
X205500000Y-96312000D02*
X205500000Y-97688000D01*
X205500000Y-101312000D02*
X205500000Y-102120000D01*
X206500000Y-86380000D02*
X206500000Y-87620000D01*
X206500000Y-91380000D02*
X206500000Y-92688000D01*
X206500000Y-96312000D02*
X206500000Y-97688000D01*
X206500000Y-101312000D02*
X206500000Y-102120000D01*
X210120000Y-86380000D02*
X210120000Y-102120000D01*
X210120000Y-102120000D02*
X202080000Y-102120000D01*
X202080000Y-89500000D02*
X201470000Y-89940000D01*
X201470000Y-89060000D01*
X202080000Y-89500000D01*
G36*
X202080000Y-89500000D02*
G01*
X201470000Y-89940000D01*
X201470000Y-89060000D01*
X202080000Y-89500000D01*
G37*
%TO.C,U2*%
X159440000Y-57940000D02*
X159535000Y-57940000D01*
X159440000Y-62060000D02*
X159440000Y-57940000D01*
X159535000Y-62060000D02*
X159440000Y-62060000D01*
X164465000Y-57940000D02*
X164560000Y-57940000D01*
X164560000Y-57940000D02*
X164560000Y-62060000D01*
X164560000Y-62060000D02*
X164465000Y-62060000D01*
X164470000Y-57400000D02*
X164800000Y-57160000D01*
X164800000Y-57640000D01*
X164470000Y-57400000D01*
G36*
X164800000Y-57640000D02*
G01*
X164470000Y-57400000D01*
X164800000Y-57160000D01*
X164800000Y-57640000D01*
G37*
%TO.C,J7*%
X156300547Y-87170001D02*
X156300547Y-89830001D01*
X189380547Y-87170001D02*
X156300547Y-87170001D01*
X189380547Y-87170001D02*
X189380547Y-89830001D01*
X189380547Y-89830001D02*
X156300547Y-89830001D01*
X191980547Y-88500001D02*
X191980547Y-89830001D01*
X191980547Y-89830001D02*
X190650547Y-89830001D01*
%TO.C,D9*%
X169610000Y-54250000D02*
X165600000Y-54250000D01*
X169610000Y-56250000D02*
X165600000Y-56250000D01*
X169610000Y-56250000D02*
X169610000Y-54250000D01*
%TO.C,R4*%
X145515000Y-66522936D02*
X145515000Y-66977064D01*
X146985000Y-66522936D02*
X146985000Y-66977064D01*
%TO.C,U3*%
X186540000Y-53540000D02*
X188060000Y-53540000D01*
X186540000Y-53590000D02*
X186540000Y-53540000D01*
X186540000Y-55490000D02*
X186540000Y-54710000D01*
X186540000Y-56660000D02*
X186540000Y-56610000D01*
X188060000Y-53540000D02*
X188060000Y-54540000D01*
X188060000Y-55660000D02*
X188060000Y-56660000D01*
X188060000Y-56660000D02*
X186540000Y-56660000D01*
X186000000Y-54720000D02*
X186240000Y-55050000D01*
X185760000Y-55050000D01*
X186000000Y-54720000D01*
G36*
X186240000Y-55050000D02*
G01*
X185760000Y-55050000D01*
X186000000Y-54720000D01*
X186240000Y-55050000D01*
G37*
%TO.C,C10*%
X199765000Y-73238748D02*
X199765000Y-73761252D01*
X201235000Y-73238748D02*
X201235000Y-73761252D01*
%TO.C,C2*%
X202290000Y-65060000D02*
X202290000Y-72000000D01*
X205710000Y-65060000D02*
X202290000Y-65060000D01*
X205710000Y-72000000D02*
X205710000Y-65060000D01*
%TO.C,U10*%
X174390000Y-48140000D02*
X178510000Y-48140000D01*
X174390000Y-48235000D02*
X174390000Y-48140000D01*
X174390000Y-53260000D02*
X174390000Y-53165000D01*
X178510000Y-48140000D02*
X178510000Y-48235000D01*
X178510000Y-53165000D02*
X178510000Y-53260000D01*
X178510000Y-53260000D02*
X174390000Y-53260000D01*
X173850000Y-48230000D02*
X173610000Y-47900000D01*
X174090000Y-47900000D01*
X173850000Y-48230000D01*
G36*
X173850000Y-48230000D02*
G01*
X173610000Y-47900000D01*
X174090000Y-47900000D01*
X173850000Y-48230000D01*
G37*
%TO.C,C9*%
X163050547Y-66361253D02*
X163050547Y-65838749D01*
X164520547Y-66361253D02*
X164520547Y-65838749D01*
%TO.C,U1*%
X195965000Y-65805000D02*
X200085000Y-65805000D01*
X195965000Y-65900000D02*
X195965000Y-65805000D01*
X195965000Y-70925000D02*
X195965000Y-70830000D01*
X200085000Y-65805000D02*
X200085000Y-65900000D01*
X200085000Y-70830000D02*
X200085000Y-70925000D01*
X200085000Y-70925000D02*
X195965000Y-70925000D01*
X195425000Y-65895000D02*
X195185000Y-65565000D01*
X195665000Y-65565000D01*
X195425000Y-65895000D01*
G36*
X195425000Y-65895000D02*
G01*
X195185000Y-65565000D01*
X195665000Y-65565000D01*
X195425000Y-65895000D01*
G37*
%TO.C,SW2*%
X134400000Y-102100000D02*
X138500000Y-102100000D01*
X134400000Y-104500000D02*
X134400000Y-102100000D01*
X134400000Y-109300000D02*
X134400000Y-106700000D01*
X134400000Y-113900000D02*
X134400000Y-111500000D01*
X138500000Y-113900000D02*
X134400000Y-113900000D01*
X140500000Y-108500000D02*
X140500000Y-107500000D01*
X141000000Y-108000000D02*
X140000000Y-108000000D01*
X142500000Y-102100000D02*
X146600000Y-102100000D01*
X142500000Y-113900000D02*
X146600000Y-113900000D01*
X146600000Y-113900000D02*
X146600000Y-102100000D01*
X147700000Y-112100000D02*
X148000000Y-111800000D01*
X148000000Y-111800000D02*
X148300000Y-112100000D01*
X148300000Y-112100000D02*
X147700000Y-112100000D01*
X143500000Y-108000000D02*
G75*
G02*
X137500000Y-108000000I-3000000J0D01*
G01*
X137500000Y-108000000D02*
G75*
G02*
X143500000Y-108000000I3000000J0D01*
G01*
%TO.C,D3*%
X153390000Y-81500000D02*
X153390000Y-83500000D01*
X153390000Y-81500000D02*
X157400000Y-81500000D01*
X153390000Y-83500000D02*
X157400000Y-83500000D01*
%TO.C,D1*%
X163110000Y-53750000D02*
X159100000Y-53750000D01*
X163110000Y-55750000D02*
X159100000Y-55750000D01*
X163110000Y-55750000D02*
X163110000Y-53750000D01*
%TO.C,J6*%
X196620000Y-78080000D02*
X198000000Y-78080000D01*
X196620000Y-79460000D02*
X196620000Y-78080000D01*
X196620000Y-80730000D02*
X196620000Y-85920000D01*
X196620000Y-80730000D02*
X199380000Y-80730000D01*
X196620000Y-85920000D02*
X199380000Y-85920000D01*
X199380000Y-80730000D02*
X199380000Y-85920000D01*
%TO.C,Q2*%
X206190000Y-105990000D02*
X206240000Y-105990000D01*
X206190000Y-107510000D02*
X206190000Y-105990000D01*
X207190000Y-107510000D02*
X206190000Y-107510000D01*
X207360000Y-105990000D02*
X208140000Y-105990000D01*
X209260000Y-105990000D02*
X209310000Y-105990000D01*
X209310000Y-105990000D02*
X209310000Y-107510000D01*
X209310000Y-107510000D02*
X208310000Y-107510000D01*
X208130000Y-105450000D02*
X207800000Y-105690000D01*
X207800000Y-105210000D01*
X208130000Y-105450000D01*
G36*
X208130000Y-105450000D02*
G01*
X207800000Y-105690000D01*
X207800000Y-105210000D01*
X208130000Y-105450000D01*
G37*
%TO.C,R23*%
X199185436Y-63515000D02*
X199639564Y-63515000D01*
X199185436Y-64985000D02*
X199639564Y-64985000D01*
%TO.C,J3*%
X140855000Y-40730000D02*
X139075000Y-40730000D01*
X140855000Y-50130000D02*
X139075000Y-50130000D01*
X143775000Y-42630000D02*
X143775000Y-41830000D01*
%TD*%
M02*
