%TF.GenerationSoftware,KiCad,Pcbnew,10.0.3*%
%TF.CreationDate,2026-06-19T17:22:03+05:30*%
%TF.ProjectId,Auralab_Workstation_Vishal,41757261-6c61-4625-9f57-6f726b737461,rev?*%
%TF.SameCoordinates,Original*%
%TF.FileFunction,Profile,NP*%
%FSLAX46Y46*%
G04 Gerber Fmt 4.6, Leading zero omitted, Abs format (unit mm)*
G04 Created by KiCad (PCBNEW 10.0.3) date 2026-06-19 17:22:03*
%MOMM*%
%LPD*%
G01*
G04 APERTURE LIST*
%TA.AperFunction,Profile*%
%ADD10C,0.050000*%
%TD*%
G04 APERTURE END LIST*
D10*
X131000000Y-39242710D02*
X131000000Y-38800000D01*
X131000000Y-115500000D02*
X131000000Y-39242710D01*
X131000000Y-116600000D02*
X131000000Y-115500000D01*
X131800000Y-38800000D02*
X131000000Y-38800000D01*
X132000000Y-116600000D02*
X131000000Y-116600000D01*
X149600000Y-116600000D02*
X132000000Y-116600000D01*
X149600000Y-116600000D02*
X150400000Y-116600000D01*
X150400000Y-116600000D02*
G75*
G02*
X150600000Y-116800000I0J-200000D01*
G01*
X150600000Y-116800000D02*
X150800000Y-151800000D01*
X151000000Y-152000000D02*
G75*
G02*
X150800000Y-151800000I0J200000D01*
G01*
X151000000Y-152000000D02*
X202400000Y-152000000D01*
X186400000Y-38800000D02*
X131800000Y-38800000D01*
X186400000Y-38800000D02*
X187000000Y-39200000D01*
X187000000Y-40200000D02*
X187000000Y-39200000D01*
X187000000Y-40200000D02*
X187000000Y-46000000D01*
X187800000Y-46000000D02*
G75*
G02*
X187000000Y-46000000I-400000J0D01*
G01*
X187800000Y-46000000D02*
X211400000Y-46000000D01*
X202400000Y-152000000D02*
X202500000Y-151500000D01*
X202600000Y-123000000D02*
X202500000Y-151500000D01*
X202600000Y-123000000D02*
G75*
G02*
X202800000Y-122800000I200000J0D01*
G01*
X211400000Y-46000000D02*
G75*
G02*
X211800000Y-46400000I0J-400000D01*
G01*
X211600000Y-122800000D02*
X202800000Y-122800000D01*
X211800000Y-46400000D02*
X212000000Y-122400000D01*
X212000000Y-122400000D02*
G75*
G02*
X211600000Y-122800000I-400000J0D01*
G01*
M02*
