%TF.GenerationSoftware,KiCad,Pcbnew,10.0.3*%
%TF.CreationDate,2026-06-19T17:22:03+05:30*%
%TF.ProjectId,Auralab_Workstation_Vishal,41757261-6c61-4625-9f57-6f726b737461,rev?*%
%TF.SameCoordinates,Original*%
%TF.FileFunction,Soldermask,Top*%
%TF.FilePolarity,Negative*%
%FSLAX46Y46*%
G04 Gerber Fmt 4.6, Leading zero omitted, Abs format (unit mm)*
G04 Created by KiCad (PCBNEW 10.0.3) date 2026-06-19 17:22:03*
%MOMM*%
%LPD*%
G01*
G04 APERTURE LIST*
G04 Aperture macros list*
%AMRoundRect*
0 Rectangle with rounded corners*
0 $1 Rounding radius*
0 $2 $3 $4 $5 $6 $7 $8 $9 X,Y pos of 4 corners*
0 Add a 4 corners polygon primitive as box body*
4,1,4,$2,$3,$4,$5,$6,$7,$8,$9,$2,$3,0*
0 Add four circle primitives for the rounded corners*
1,1,$1+$1,$2,$3*
1,1,$1+$1,$4,$5*
1,1,$1+$1,$6,$7*
1,1,$1+$1,$8,$9*
0 Add four rect primitives between the rounded corners*
20,1,$1+$1,$2,$3,$4,$5,0*
20,1,$1+$1,$4,$5,$6,$7,0*
20,1,$1+$1,$6,$7,$8,$9,0*
20,1,$1+$1,$8,$9,$2,$3,0*%
G04 Aperture macros list end*
%ADD10RoundRect,0.250000X-0.250000X-0.475000X0.250000X-0.475000X0.250000X0.475000X-0.250000X0.475000X0*%
%ADD11RoundRect,0.150000X-0.150000X0.512500X-0.150000X-0.512500X0.150000X-0.512500X0.150000X0.512500X0*%
%ADD12RoundRect,0.062500X-0.325000X-0.062500X0.325000X-0.062500X0.325000X0.062500X-0.325000X0.062500X0*%
%ADD13RoundRect,0.062500X-0.062500X-0.325000X0.062500X-0.325000X0.062500X0.325000X-0.062500X0.325000X0*%
%ADD14R,2.450000X2.450000*%
%ADD15R,1.500000X2.400000*%
%ADD16R,4.200000X2.000000*%
%ADD17RoundRect,0.250000X-0.475000X0.337500X-0.475000X-0.337500X0.475000X-0.337500X0.475000X0.337500X0*%
%ADD18RoundRect,0.250000X0.350000X0.450000X-0.350000X0.450000X-0.350000X-0.450000X0.350000X-0.450000X0*%
%ADD19RoundRect,0.250000X-0.450000X0.350000X-0.450000X-0.350000X0.450000X-0.350000X0.450000X0.350000X0*%
%ADD20RoundRect,0.250000X0.250000X0.475000X-0.250000X0.475000X-0.250000X-0.475000X0.250000X-0.475000X0*%
%ADD21RoundRect,0.250000X0.325000X0.450000X-0.325000X0.450000X-0.325000X-0.450000X0.325000X-0.450000X0*%
%ADD22RoundRect,0.250000X0.450000X-0.350000X0.450000X0.350000X-0.450000X0.350000X-0.450000X-0.350000X0*%
%ADD23RoundRect,0.250000X-0.350000X-0.450000X0.350000X-0.450000X0.350000X0.450000X-0.350000X0.450000X0*%
%ADD24RoundRect,0.250000X-0.350000X-0.625000X0.350000X-0.625000X0.350000X0.625000X-0.350000X0.625000X0*%
%ADD25O,1.200000X1.750000*%
%ADD26RoundRect,0.250000X-0.337500X-0.475000X0.337500X-0.475000X0.337500X0.475000X-0.337500X0.475000X0*%
%ADD27RoundRect,0.250000X-0.800000X-0.650000X0.800000X-0.650000X0.800000X0.650000X-0.800000X0.650000X0*%
%ADD28O,3.000000X2.500000*%
%ADD29RoundRect,0.250000X0.262500X0.450000X-0.262500X0.450000X-0.262500X-0.450000X0.262500X-0.450000X0*%
%ADD30RoundRect,0.225000X0.375000X-0.225000X0.375000X0.225000X-0.375000X0.225000X-0.375000X-0.225000X0*%
%ADD31RoundRect,0.050000X-0.387500X-0.050000X0.387500X-0.050000X0.387500X0.050000X-0.387500X0.050000X0*%
%ADD32RoundRect,0.050000X-0.050000X-0.387500X0.050000X-0.387500X0.050000X0.387500X-0.050000X0.387500X0*%
%ADD33R,3.200000X3.200000*%
%ADD34RoundRect,0.162500X-0.650000X-0.162500X0.650000X-0.162500X0.650000X0.162500X-0.650000X0.162500X0*%
%ADD35O,2.500000X1.600000*%
%ADD36O,7.000000X3.500000*%
%ADD37RoundRect,0.087500X0.662500X0.087500X-0.662500X0.087500X-0.662500X-0.087500X0.662500X-0.087500X0*%
%ADD38RoundRect,0.250000X0.337500X0.475000X-0.337500X0.475000X-0.337500X-0.475000X0.337500X-0.475000X0*%
%ADD39RoundRect,0.150000X-0.150000X0.825000X-0.150000X-0.825000X0.150000X-0.825000X0.150000X0.825000X0*%
%ADD40RoundRect,0.250000X0.450000X-0.325000X0.450000X0.325000X-0.450000X0.325000X-0.450000X-0.325000X0*%
%ADD41RoundRect,0.250000X-0.450000X0.262500X-0.450000X-0.262500X0.450000X-0.262500X0.450000X0.262500X0*%
%ADD42RoundRect,0.150000X-0.512500X-0.150000X0.512500X-0.150000X0.512500X0.150000X-0.512500X0.150000X0*%
%ADD43RoundRect,0.250000X0.475000X-0.337500X0.475000X0.337500X-0.475000X0.337500X-0.475000X-0.337500X0*%
%ADD44R,1.000000X0.800000*%
%ADD45C,0.900000*%
%ADD46R,0.700000X1.500000*%
%ADD47C,2.600000*%
%ADD48C,3.800000*%
%ADD49R,1.500000X1.050000*%
%ADD50O,1.500000X1.050000*%
%ADD51RoundRect,0.250000X0.625000X-0.375000X0.625000X0.375000X-0.625000X0.375000X-0.625000X-0.375000X0*%
%ADD52C,1.100000*%
%ADD53RoundRect,0.249999X0.850001X-0.850001X0.850001X0.850001X-0.850001X0.850001X-0.850001X-0.850001X0*%
%ADD54C,2.200000*%
%ADD55RoundRect,0.250000X-0.262500X-0.450000X0.262500X-0.450000X0.262500X0.450000X-0.262500X0.450000X0*%
%ADD56RoundRect,0.218750X-0.218750X-0.381250X0.218750X-0.381250X0.218750X0.381250X-0.218750X0.381250X0*%
%ADD57RoundRect,0.225000X0.225000X0.375000X-0.225000X0.375000X-0.225000X-0.375000X0.225000X-0.375000X0*%
%ADD58RoundRect,0.250001X-1.149999X1.149999X-1.149999X-1.149999X1.149999X-1.149999X1.149999X1.149999X0*%
%ADD59C,2.800000*%
%ADD60R,1.700000X1.700000*%
%ADD61C,1.700000*%
%ADD62RoundRect,0.150000X-0.587500X-0.150000X0.587500X-0.150000X0.587500X0.150000X-0.587500X0.150000X0*%
%ADD63RoundRect,0.250001X-0.944999X0.872499X-0.944999X-0.872499X0.944999X-0.872499X0.944999X0.872499X0*%
%ADD64RoundRect,0.150000X-0.825000X-0.150000X0.825000X-0.150000X0.825000X0.150000X-0.825000X0.150000X0*%
%ADD65R,2.410000X3.300000*%
%ADD66R,2.000000X2.000000*%
%ADD67C,2.000000*%
%ADD68R,3.200000X2.000000*%
%ADD69RoundRect,0.225000X-0.225000X-0.375000X0.225000X-0.375000X0.225000X0.375000X-0.225000X0.375000X0*%
%ADD70RoundRect,0.150000X-0.150000X0.587500X-0.150000X-0.587500X0.150000X-0.587500X0.150000X0.587500X0*%
%ADD71C,0.650000*%
%ADD72RoundRect,0.150000X-0.500000X0.150000X-0.500000X-0.150000X0.500000X-0.150000X0.500000X0.150000X0*%
%ADD73RoundRect,0.075000X-0.575000X0.075000X-0.575000X-0.075000X0.575000X-0.075000X0.575000X0.075000X0*%
%ADD74O,2.100000X1.000000*%
%ADD75O,1.600000X1.000000*%
G04 APERTURE END LIST*
D10*
%TO.C,C12*%
X189800000Y-83750000D03*
X191700000Y-83750000D03*
%TD*%
D11*
%TO.C,U6*%
X150450000Y-42362500D03*
X149500000Y-42362500D03*
X148550000Y-42362500D03*
X148550000Y-44637500D03*
X149500000Y-44637500D03*
X150450000Y-44637500D03*
%TD*%
D12*
%TO.C,U4*%
X151262500Y-76762500D03*
X151262500Y-77262500D03*
X151262500Y-77762500D03*
X151262500Y-78262500D03*
X151262500Y-78762500D03*
X151262500Y-79262500D03*
D13*
X152000000Y-80000000D03*
X152500000Y-80000000D03*
X153000000Y-80000000D03*
X153500000Y-80000000D03*
X154000000Y-80000000D03*
X154500000Y-80000000D03*
D12*
X155237500Y-79262500D03*
X155237500Y-78762500D03*
X155237500Y-78262500D03*
X155237500Y-77762500D03*
X155237500Y-77262500D03*
X155237500Y-76762500D03*
D13*
X154500000Y-76025000D03*
X154000000Y-76025000D03*
X153500000Y-76025000D03*
X153000000Y-76025000D03*
X152500000Y-76025000D03*
X152000000Y-76025000D03*
D14*
X153250000Y-78012500D03*
%TD*%
D15*
%TO.C,L1*%
X138500000Y-81250000D03*
X144000000Y-81250000D03*
%TD*%
D16*
%TO.C,BZ1*%
X206500000Y-118250000D03*
X206500000Y-110250000D03*
%TD*%
D17*
%TO.C,C8*%
X177660547Y-81662501D03*
X177660547Y-83737501D03*
%TD*%
D18*
%TO.C,R19*%
X166250000Y-49000000D03*
X164250000Y-49000000D03*
%TD*%
D19*
%TO.C,R10*%
X168500000Y-49500000D03*
X168500000Y-51500000D03*
%TD*%
D20*
%TO.C,C1*%
X192200000Y-53000000D03*
X190300000Y-53000000D03*
%TD*%
D21*
%TO.C,D8*%
X166225000Y-51800000D03*
X164175000Y-51800000D03*
%TD*%
D22*
%TO.C,R17*%
X132400000Y-93000000D03*
X132400000Y-91000000D03*
%TD*%
D23*
%TO.C,R13*%
X202750000Y-106250000D03*
X204750000Y-106250000D03*
%TD*%
D24*
%TO.C,J5*%
X154750000Y-42250000D03*
D25*
X156750000Y-42250000D03*
%TD*%
D26*
%TO.C,DF1*%
X179173047Y-72000001D03*
X181248047Y-72000001D03*
%TD*%
D27*
%TO.C,Y1*%
X171885547Y-83750001D03*
X174785547Y-83750001D03*
X174785547Y-81450001D03*
X171885547Y-81450001D03*
%TD*%
D28*
%TO.C,SW3*%
X135250000Y-91000000D03*
X147750000Y-91000000D03*
X135250000Y-96000000D03*
X147750000Y-96000000D03*
%TD*%
D29*
%TO.C,R21*%
X189825000Y-66800000D03*
X188000000Y-66800000D03*
%TD*%
D23*
%TO.C,R22*%
X196500000Y-72500000D03*
X198500000Y-72500000D03*
%TD*%
D30*
%TO.C,D6*%
X154750000Y-51650000D03*
X154750000Y-48350000D03*
%TD*%
D31*
%TO.C,U8*%
X169973047Y-69200001D03*
X169973047Y-69600001D03*
X169973047Y-70000001D03*
X169973047Y-70400001D03*
X169973047Y-70800001D03*
X169973047Y-71200001D03*
X169973047Y-71600001D03*
X169973047Y-72000001D03*
X169973047Y-72400001D03*
X169973047Y-72800001D03*
X169973047Y-73200001D03*
X169973047Y-73600001D03*
X169973047Y-74000001D03*
X169973047Y-74400001D03*
D32*
X170810547Y-75237501D03*
X171210547Y-75237501D03*
X171610547Y-75237501D03*
X172010547Y-75237501D03*
X172410547Y-75237501D03*
X172810547Y-75237501D03*
X173210547Y-75237501D03*
X173610547Y-75237501D03*
X174010547Y-75237501D03*
X174410547Y-75237501D03*
X174810547Y-75237501D03*
X175210547Y-75237501D03*
X175610547Y-75237501D03*
X176010547Y-75237501D03*
D31*
X176848047Y-74400001D03*
X176848047Y-74000001D03*
X176848047Y-73600001D03*
X176848047Y-73200001D03*
X176848047Y-72800001D03*
X176848047Y-72400001D03*
X176848047Y-72000001D03*
X176848047Y-71600001D03*
X176848047Y-71200001D03*
X176848047Y-70800001D03*
X176848047Y-70400001D03*
X176848047Y-70000001D03*
X176848047Y-69600001D03*
X176848047Y-69200001D03*
D32*
X176010547Y-68362501D03*
X175610547Y-68362501D03*
X175210547Y-68362501D03*
X174810547Y-68362501D03*
X174410547Y-68362501D03*
X174010547Y-68362501D03*
X173610547Y-68362501D03*
X173210547Y-68362501D03*
X172810547Y-68362501D03*
X172410547Y-68362501D03*
X172010547Y-68362501D03*
X171610547Y-68362501D03*
X171210547Y-68362501D03*
X170810547Y-68362501D03*
D33*
X173410547Y-71800001D03*
%TD*%
D26*
%TO.C,RF1*%
X178573047Y-69200001D03*
X180648047Y-69200001D03*
%TD*%
D34*
%TO.C,U9*%
X156448047Y-69170001D03*
X156448047Y-70440001D03*
X156448047Y-71710001D03*
X156448047Y-72980001D03*
X163623047Y-72980001D03*
X163623047Y-71710001D03*
X163623047Y-70440001D03*
X163623047Y-69170001D03*
%TD*%
D29*
%TO.C,R3*%
X193412500Y-71000000D03*
X191587500Y-71000000D03*
%TD*%
%TO.C,R20*%
X170912500Y-57600000D03*
X169087500Y-57600000D03*
%TD*%
D19*
%TO.C,R14*%
X173710547Y-64000001D03*
X173710547Y-66000001D03*
%TD*%
D35*
%TO.C,J1*%
X198170000Y-55080000D03*
D36*
X203250000Y-50000000D03*
D35*
X198170000Y-52540000D03*
D36*
X203250000Y-60160000D03*
%TD*%
D37*
%TO.C,U5*%
X156700000Y-66500000D03*
X156700000Y-66000000D03*
X156700000Y-65500000D03*
X156700000Y-65000000D03*
X156700000Y-64500000D03*
X152500000Y-64500000D03*
X152500000Y-65000000D03*
X152500000Y-65500000D03*
X152500000Y-66000000D03*
X152500000Y-66500000D03*
%TD*%
D19*
%TO.C,R7*%
X147000000Y-78400000D03*
X147000000Y-80400000D03*
%TD*%
D26*
%TO.C,CAF1*%
X178210547Y-67000001D03*
X180285547Y-67000001D03*
%TD*%
D38*
%TO.C,C5*%
X185437500Y-46000000D03*
X183362500Y-46000000D03*
%TD*%
D39*
%TO.C,U11*%
X166810000Y-76025000D03*
X165540000Y-76025000D03*
X164270000Y-76025000D03*
X163000000Y-76025000D03*
X161730000Y-76025000D03*
X160460000Y-76025000D03*
X159190000Y-76025000D03*
X159190000Y-80975000D03*
X160460000Y-80975000D03*
X161730000Y-80975000D03*
X163000000Y-80975000D03*
X164270000Y-80975000D03*
X165540000Y-80975000D03*
X166810000Y-80975000D03*
%TD*%
D21*
%TO.C,D7*%
X171850000Y-45400000D03*
X169800000Y-45400000D03*
%TD*%
D40*
%TO.C,D5*%
X182500000Y-76525000D03*
X182500000Y-74475000D03*
%TD*%
D41*
%TO.C,R2*%
X148500000Y-65837500D03*
X148500000Y-67662500D03*
%TD*%
D19*
%TO.C,R15*%
X175710547Y-64000001D03*
X175710547Y-66000001D03*
%TD*%
D40*
%TO.C,D4*%
X190250000Y-60025000D03*
X190250000Y-57975000D03*
%TD*%
D42*
%TO.C,U7*%
X181225000Y-54250000D03*
X181225000Y-55200000D03*
X181225000Y-56150000D03*
X183500000Y-56150000D03*
X183500000Y-54250000D03*
%TD*%
D15*
%TO.C,L2*%
X138500000Y-74000000D03*
X144000000Y-74000000D03*
%TD*%
D43*
%TO.C,C6*%
X170710547Y-65537501D03*
X170710547Y-63462501D03*
%TD*%
D44*
%TO.C,SW1*%
X194400000Y-50100000D03*
X194400000Y-47890000D03*
D45*
X192250000Y-48990000D03*
X189250000Y-48990000D03*
D44*
X187100000Y-50100000D03*
X187100000Y-47890000D03*
D46*
X193000000Y-50750000D03*
X190000000Y-50750000D03*
X188500000Y-50750000D03*
%TD*%
D19*
%TO.C,R11*%
X193750000Y-57750000D03*
X193750000Y-59750000D03*
%TD*%
D47*
%TO.C,M3*%
X136250000Y-65250000D03*
D48*
X136250000Y-65250000D03*
%TD*%
D49*
%TO.C,Q1*%
X151860000Y-72770000D03*
D50*
X151860000Y-71500000D03*
X151860000Y-70230000D03*
%TD*%
D51*
%TO.C,F1*%
X157750000Y-51650000D03*
X157750000Y-48850000D03*
%TD*%
D38*
%TO.C,C3*%
X183537500Y-52250000D03*
X181462500Y-52250000D03*
%TD*%
%TO.C,C4*%
X158037500Y-61750000D03*
X155962500Y-61750000D03*
%TD*%
D52*
%TO.C,J2*%
X209000000Y-83080000D03*
X209000000Y-80540000D03*
X209000000Y-78000000D03*
D53*
X206460000Y-83080000D03*
D54*
X206460000Y-80540000D03*
X206460000Y-78000000D03*
%TD*%
D23*
%TO.C,R5*%
X145000000Y-41000000D03*
X147000000Y-41000000D03*
%TD*%
D18*
%TO.C,R16*%
X180250000Y-64750000D03*
X178250000Y-64750000D03*
%TD*%
D19*
%TO.C,R12*%
X185000000Y-74500000D03*
X185000000Y-76500000D03*
%TD*%
D17*
%TO.C,C7*%
X169010547Y-81662501D03*
X169010547Y-83737501D03*
%TD*%
D47*
%TO.C,M4*%
X181250000Y-41500000D03*
D48*
X181250000Y-41500000D03*
%TD*%
D23*
%TO.C,R18*%
X175000000Y-45500000D03*
X177000000Y-45500000D03*
%TD*%
D19*
%TO.C,R6*%
X145200000Y-47200000D03*
X145200000Y-49200000D03*
%TD*%
D55*
%TO.C,R1*%
X191587500Y-65000000D03*
X193412500Y-65000000D03*
%TD*%
D56*
%TO.C,FB1*%
X160187500Y-48750000D03*
X162312500Y-48750000D03*
%TD*%
D57*
%TO.C,D2*%
X149400000Y-75500000D03*
X146100000Y-75500000D03*
%TD*%
D47*
%TO.C,M2*%
X197250000Y-148750000D03*
D48*
X197250000Y-148750000D03*
%TD*%
D19*
%TO.C,R8*%
X157250000Y-78250000D03*
X157250000Y-80250000D03*
%TD*%
D26*
%TO.C,C11*%
X181325000Y-58150000D03*
X183400000Y-58150000D03*
%TD*%
D19*
%TO.C,R9*%
X171000000Y-49500000D03*
X171000000Y-51500000D03*
%TD*%
D58*
%TO.C,J4*%
X206000000Y-89500000D03*
D59*
X206000000Y-94500000D03*
X206000000Y-99500000D03*
%TD*%
D39*
%TO.C,U2*%
X163905000Y-57525000D03*
X162635000Y-57525000D03*
X161365000Y-57525000D03*
X160095000Y-57525000D03*
X160095000Y-62475000D03*
X161365000Y-62475000D03*
X162635000Y-62475000D03*
X163905000Y-62475000D03*
%TD*%
D60*
%TO.C,J7*%
X190650547Y-88500001D03*
D61*
X188110547Y-88500001D03*
X185570547Y-88500001D03*
X183030547Y-88500001D03*
X180490547Y-88500001D03*
X177950547Y-88500001D03*
X175410547Y-88500001D03*
X172870547Y-88500001D03*
X170330547Y-88500001D03*
X167790547Y-88500001D03*
X165250547Y-88500001D03*
X162710547Y-88500001D03*
X160170547Y-88500001D03*
X157630547Y-88500001D03*
%TD*%
D57*
%TO.C,D9*%
X168900000Y-55250000D03*
X165600000Y-55250000D03*
%TD*%
D41*
%TO.C,R4*%
X146250000Y-65837500D03*
X146250000Y-67662500D03*
%TD*%
D47*
%TO.C,M1*%
X154750000Y-148750000D03*
D48*
X154750000Y-148750000D03*
%TD*%
D62*
%TO.C,U3*%
X186362500Y-54150000D03*
X186362500Y-56050000D03*
X188237500Y-55100000D03*
%TD*%
D17*
%TO.C,C10*%
X200500000Y-72462500D03*
X200500000Y-74537500D03*
%TD*%
D63*
%TO.C,C2*%
X204000000Y-66442500D03*
X204000000Y-71557500D03*
%TD*%
D64*
%TO.C,U10*%
X173975000Y-48795000D03*
X173975000Y-50065000D03*
X173975000Y-51335000D03*
X173975000Y-52605000D03*
X178925000Y-52605000D03*
X178925000Y-51335000D03*
X178925000Y-50065000D03*
X178925000Y-48795000D03*
D65*
X176450000Y-50700000D03*
%TD*%
D43*
%TO.C,C9*%
X163785547Y-67137501D03*
X163785547Y-65062501D03*
%TD*%
D64*
%TO.C,U1*%
X195550000Y-66460000D03*
X195550000Y-67730000D03*
X195550000Y-69000000D03*
X195550000Y-70270000D03*
X200500000Y-70270000D03*
X200500000Y-69000000D03*
X200500000Y-67730000D03*
X200500000Y-66460000D03*
%TD*%
D66*
%TO.C,SW2*%
X148000000Y-110500000D03*
D67*
X148000000Y-105500000D03*
X148000000Y-108000000D03*
D68*
X140500000Y-113600000D03*
X140500000Y-102400000D03*
D67*
X133500000Y-105500000D03*
X133500000Y-110500000D03*
%TD*%
D69*
%TO.C,D3*%
X154100000Y-82500000D03*
X157400000Y-82500000D03*
%TD*%
D57*
%TO.C,D1*%
X162400000Y-54750000D03*
X159100000Y-54750000D03*
%TD*%
D60*
%TO.C,J6*%
X198000000Y-79460000D03*
D61*
X198000000Y-82000000D03*
X198000000Y-84540000D03*
%TD*%
D70*
%TO.C,Q2*%
X208700000Y-105812500D03*
X206800000Y-105812500D03*
X207750000Y-107687500D03*
%TD*%
D55*
%TO.C,R23*%
X198500000Y-64250000D03*
X200325000Y-64250000D03*
%TD*%
D71*
%TO.C,J3*%
X141680000Y-42540000D03*
X141680000Y-48320000D03*
D72*
X142820000Y-42230000D03*
X142820000Y-43030000D03*
D73*
X142820000Y-44180000D03*
X142820000Y-45180000D03*
X142820000Y-45680000D03*
X142820000Y-46680000D03*
D72*
X142820000Y-47830000D03*
X142820000Y-48630000D03*
X142820000Y-48630000D03*
X142820000Y-47830000D03*
D73*
X142820000Y-47180000D03*
X142820000Y-46180000D03*
X142820000Y-44680000D03*
X142820000Y-43680000D03*
D72*
X142820000Y-43030000D03*
X142820000Y-42230000D03*
D74*
X142180000Y-41110000D03*
D75*
X138000000Y-41110000D03*
D74*
X142180000Y-49750000D03*
D75*
X138000000Y-49750000D03*
%TD*%
M02*
