%TF.GenerationSoftware,KiCad,Pcbnew,10.0.3*%
%TF.CreationDate,2026-06-19T17:22:03+05:30*%
%TF.ProjectId,Auralab_Workstation_Vishal,41757261-6c61-4625-9f57-6f726b737461,rev?*%
%TF.SameCoordinates,Original*%
%TF.FileFunction,Copper,L1,Top*%
%TF.FilePolarity,Positive*%
%FSLAX46Y46*%
G04 Gerber Fmt 4.6, Leading zero omitted, Abs format (unit mm)*
G04 Created by KiCad (PCBNEW 10.0.3) date 2026-06-19 17:22:03*
%MOMM*%
%LPD*%
G01*
G04 APERTURE LIST*
G04 Aperture macros list*
%AMRoundRect*
0 Rectangle with rounded corners*
0 $1 Rounding radius*
0 $2 $3 $4 $5 $6 $7 $8 $9 X,Y pos of 4 corners*
0 Add a 4 corners polygon primitive as box body*
4,1,4,$2,$3,$4,$5,$6,$7,$8,$9,$2,$3,0*
0 Add four circle primitives for the rounded corners*
1,1,$1+$1,$2,$3*
1,1,$1+$1,$4,$5*
1,1,$1+$1,$6,$7*
1,1,$1+$1,$8,$9*
0 Add four rect primitives between the rounded corners*
20,1,$1+$1,$2,$3,$4,$5,0*
20,1,$1+$1,$4,$5,$6,$7,0*
20,1,$1+$1,$6,$7,$8,$9,0*
20,1,$1+$1,$8,$9,$2,$3,0*%
G04 Aperture macros list end*
%TA.AperFunction,EtchedComponent*%
%ADD10C,0.000000*%
%TD*%
%TA.AperFunction,SMDPad,CuDef*%
%ADD11RoundRect,0.250000X-0.250000X-0.475000X0.250000X-0.475000X0.250000X0.475000X-0.250000X0.475000X0*%
%TD*%
%TA.AperFunction,SMDPad,CuDef*%
%ADD12RoundRect,0.150000X-0.150000X0.512500X-0.150000X-0.512500X0.150000X-0.512500X0.150000X0.512500X0*%
%TD*%
%TA.AperFunction,SMDPad,CuDef*%
%ADD13RoundRect,0.062500X-0.325000X-0.062500X0.325000X-0.062500X0.325000X0.062500X-0.325000X0.062500X0*%
%TD*%
%TA.AperFunction,SMDPad,CuDef*%
%ADD14RoundRect,0.062500X-0.062500X-0.325000X0.062500X-0.325000X0.062500X0.325000X-0.062500X0.325000X0*%
%TD*%
%TA.AperFunction,HeatsinkPad*%
%ADD15C,0.500000*%
%TD*%
%TA.AperFunction,HeatsinkPad*%
%ADD16R,2.450000X2.450000*%
%TD*%
%TA.AperFunction,ComponentPad*%
%ADD17C,1.300000*%
%TD*%
%TA.AperFunction,SMDPad,CuDef*%
%ADD18R,1.500000X2.400000*%
%TD*%
%TA.AperFunction,SMDPad,CuDef*%
%ADD19R,4.200000X2.000000*%
%TD*%
%TA.AperFunction,SMDPad,CuDef*%
%ADD20RoundRect,0.250000X-0.475000X0.337500X-0.475000X-0.337500X0.475000X-0.337500X0.475000X0.337500X0*%
%TD*%
%TA.AperFunction,SMDPad,CuDef*%
%ADD21RoundRect,0.250000X0.350000X0.450000X-0.350000X0.450000X-0.350000X-0.450000X0.350000X-0.450000X0*%
%TD*%
%TA.AperFunction,SMDPad,CuDef*%
%ADD22RoundRect,0.250000X-0.450000X0.350000X-0.450000X-0.350000X0.450000X-0.350000X0.450000X0.350000X0*%
%TD*%
%TA.AperFunction,SMDPad,CuDef*%
%ADD23RoundRect,0.250000X0.250000X0.475000X-0.250000X0.475000X-0.250000X-0.475000X0.250000X-0.475000X0*%
%TD*%
%TA.AperFunction,SMDPad,CuDef*%
%ADD24RoundRect,0.250000X0.325000X0.450000X-0.325000X0.450000X-0.325000X-0.450000X0.325000X-0.450000X0*%
%TD*%
%TA.AperFunction,SMDPad,CuDef*%
%ADD25RoundRect,0.250000X0.450000X-0.350000X0.450000X0.350000X-0.450000X0.350000X-0.450000X-0.350000X0*%
%TD*%
%TA.AperFunction,SMDPad,CuDef*%
%ADD26RoundRect,0.250000X-0.350000X-0.450000X0.350000X-0.450000X0.350000X0.450000X-0.350000X0.450000X0*%
%TD*%
%TA.AperFunction,ComponentPad*%
%ADD27RoundRect,0.250000X-0.350000X-0.625000X0.350000X-0.625000X0.350000X0.625000X-0.350000X0.625000X0*%
%TD*%
%TA.AperFunction,ComponentPad*%
%ADD28O,1.200000X1.750000*%
%TD*%
%TA.AperFunction,SMDPad,CuDef*%
%ADD29RoundRect,0.250000X-0.337500X-0.475000X0.337500X-0.475000X0.337500X0.475000X-0.337500X0.475000X0*%
%TD*%
%TA.AperFunction,SMDPad,CuDef*%
%ADD30RoundRect,0.250000X-0.800000X-0.650000X0.800000X-0.650000X0.800000X0.650000X-0.800000X0.650000X0*%
%TD*%
%TA.AperFunction,ComponentPad*%
%ADD31O,3.000000X2.500000*%
%TD*%
%TA.AperFunction,SMDPad,CuDef*%
%ADD32RoundRect,0.250000X0.262500X0.450000X-0.262500X0.450000X-0.262500X-0.450000X0.262500X-0.450000X0*%
%TD*%
%TA.AperFunction,SMDPad,CuDef*%
%ADD33RoundRect,0.225000X0.375000X-0.225000X0.375000X0.225000X-0.375000X0.225000X-0.375000X-0.225000X0*%
%TD*%
%TA.AperFunction,SMDPad,CuDef*%
%ADD34RoundRect,0.050000X-0.387500X-0.050000X0.387500X-0.050000X0.387500X0.050000X-0.387500X0.050000X0*%
%TD*%
%TA.AperFunction,SMDPad,CuDef*%
%ADD35RoundRect,0.050000X-0.050000X-0.387500X0.050000X-0.387500X0.050000X0.387500X-0.050000X0.387500X0*%
%TD*%
%TA.AperFunction,HeatsinkPad*%
%ADD36R,3.200000X3.200000*%
%TD*%
%TA.AperFunction,SMDPad,CuDef*%
%ADD37RoundRect,0.162500X-0.650000X-0.162500X0.650000X-0.162500X0.650000X0.162500X-0.650000X0.162500X0*%
%TD*%
%TA.AperFunction,ComponentPad*%
%ADD38O,2.500000X1.600000*%
%TD*%
%TA.AperFunction,ComponentPad*%
%ADD39O,7.000000X3.500000*%
%TD*%
%TA.AperFunction,SMDPad,CuDef*%
%ADD40RoundRect,0.087500X0.662500X0.087500X-0.662500X0.087500X-0.662500X-0.087500X0.662500X-0.087500X0*%
%TD*%
%TA.AperFunction,SMDPad,CuDef*%
%ADD41RoundRect,0.250000X0.337500X0.475000X-0.337500X0.475000X-0.337500X-0.475000X0.337500X-0.475000X0*%
%TD*%
%TA.AperFunction,SMDPad,CuDef*%
%ADD42RoundRect,0.150000X-0.150000X0.825000X-0.150000X-0.825000X0.150000X-0.825000X0.150000X0.825000X0*%
%TD*%
%TA.AperFunction,SMDPad,CuDef*%
%ADD43RoundRect,0.250000X0.450000X-0.325000X0.450000X0.325000X-0.450000X0.325000X-0.450000X-0.325000X0*%
%TD*%
%TA.AperFunction,SMDPad,CuDef*%
%ADD44RoundRect,0.250000X-0.450000X0.262500X-0.450000X-0.262500X0.450000X-0.262500X0.450000X0.262500X0*%
%TD*%
%TA.AperFunction,SMDPad,CuDef*%
%ADD45RoundRect,0.150000X-0.512500X-0.150000X0.512500X-0.150000X0.512500X0.150000X-0.512500X0.150000X0*%
%TD*%
%TA.AperFunction,SMDPad,CuDef*%
%ADD46RoundRect,0.250000X0.475000X-0.337500X0.475000X0.337500X-0.475000X0.337500X-0.475000X-0.337500X0*%
%TD*%
%TA.AperFunction,SMDPad,CuDef*%
%ADD47R,1.000000X0.800000*%
%TD*%
%TA.AperFunction,SMDPad,CuDef*%
%ADD48R,0.700000X1.500000*%
%TD*%
%TA.AperFunction,ComponentPad*%
%ADD49C,2.600000*%
%TD*%
%TA.AperFunction,ConnectorPad*%
%ADD50C,3.800000*%
%TD*%
%TA.AperFunction,ComponentPad*%
%ADD51R,1.500000X1.050000*%
%TD*%
%TA.AperFunction,ComponentPad*%
%ADD52O,1.500000X1.050000*%
%TD*%
%TA.AperFunction,SMDPad,CuDef*%
%ADD53RoundRect,0.250000X0.625000X-0.375000X0.625000X0.375000X-0.625000X0.375000X-0.625000X-0.375000X0*%
%TD*%
%TA.AperFunction,ComponentPad*%
%ADD54RoundRect,0.249999X0.850001X-0.850001X0.850001X0.850001X-0.850001X0.850001X-0.850001X-0.850001X0*%
%TD*%
%TA.AperFunction,ComponentPad*%
%ADD55C,2.200000*%
%TD*%
%TA.AperFunction,SMDPad,CuDef*%
%ADD56RoundRect,0.250000X-0.262500X-0.450000X0.262500X-0.450000X0.262500X0.450000X-0.262500X0.450000X0*%
%TD*%
%TA.AperFunction,SMDPad,CuDef*%
%ADD57RoundRect,0.218750X-0.218750X-0.381250X0.218750X-0.381250X0.218750X0.381250X-0.218750X0.381250X0*%
%TD*%
%TA.AperFunction,SMDPad,CuDef*%
%ADD58RoundRect,0.225000X0.225000X0.375000X-0.225000X0.375000X-0.225000X-0.375000X0.225000X-0.375000X0*%
%TD*%
%TA.AperFunction,ComponentPad*%
%ADD59RoundRect,0.250001X-1.149999X1.149999X-1.149999X-1.149999X1.149999X-1.149999X1.149999X1.149999X0*%
%TD*%
%TA.AperFunction,ComponentPad*%
%ADD60C,2.800000*%
%TD*%
%TA.AperFunction,ComponentPad*%
%ADD61R,1.700000X1.700000*%
%TD*%
%TA.AperFunction,ComponentPad*%
%ADD62C,1.700000*%
%TD*%
%TA.AperFunction,SMDPad,CuDef*%
%ADD63RoundRect,0.150000X-0.587500X-0.150000X0.587500X-0.150000X0.587500X0.150000X-0.587500X0.150000X0*%
%TD*%
%TA.AperFunction,SMDPad,CuDef*%
%ADD64RoundRect,0.250001X-0.944999X0.872499X-0.944999X-0.872499X0.944999X-0.872499X0.944999X0.872499X0*%
%TD*%
%TA.AperFunction,SMDPad,CuDef*%
%ADD65RoundRect,0.150000X-0.825000X-0.150000X0.825000X-0.150000X0.825000X0.150000X-0.825000X0.150000X0*%
%TD*%
%TA.AperFunction,HeatsinkPad*%
%ADD66R,2.410000X3.300000*%
%TD*%
%TA.AperFunction,ComponentPad*%
%ADD67R,2.000000X2.000000*%
%TD*%
%TA.AperFunction,ComponentPad*%
%ADD68C,2.000000*%
%TD*%
%TA.AperFunction,ComponentPad*%
%ADD69R,3.200000X2.000000*%
%TD*%
%TA.AperFunction,SMDPad,CuDef*%
%ADD70RoundRect,0.225000X-0.225000X-0.375000X0.225000X-0.375000X0.225000X0.375000X-0.225000X0.375000X0*%
%TD*%
%TA.AperFunction,SMDPad,CuDef*%
%ADD71RoundRect,0.150000X-0.150000X0.587500X-0.150000X-0.587500X0.150000X-0.587500X0.150000X0.587500X0*%
%TD*%
%TA.AperFunction,SMDPad,CuDef*%
%ADD72RoundRect,0.150000X-0.500000X0.150000X-0.500000X-0.150000X0.500000X-0.150000X0.500000X0.150000X0*%
%TD*%
%TA.AperFunction,SMDPad,CuDef*%
%ADD73RoundRect,0.075000X-0.575000X0.075000X-0.575000X-0.075000X0.575000X-0.075000X0.575000X0.075000X0*%
%TD*%
%TA.AperFunction,ComponentPad*%
%ADD74O,2.100000X1.000000*%
%TD*%
%TA.AperFunction,ComponentPad*%
%ADD75O,1.600000X1.000000*%
%TD*%
%TA.AperFunction,ViaPad*%
%ADD76C,0.500000*%
%TD*%
%TA.AperFunction,ViaPad*%
%ADD77C,0.600000*%
%TD*%
%TA.AperFunction,ViaPad*%
%ADD78C,0.300000*%
%TD*%
%TA.AperFunction,Conductor*%
%ADD79C,0.200000*%
%TD*%
%TA.AperFunction,Conductor*%
%ADD80C,0.600000*%
%TD*%
%TA.AperFunction,Conductor*%
%ADD81C,0.250000*%
%TD*%
%TA.AperFunction,Conductor*%
%ADD82C,0.400000*%
%TD*%
G04 APERTURE END LIST*
D10*
%TA.AperFunction,EtchedComponent*%
%TO.C,NT1*%
G36*
X201750000Y-80250000D02*
G01*
X200450000Y-80250000D01*
X200450000Y-77650000D01*
X201750000Y-77650000D01*
X201750000Y-80250000D01*
G37*
%TD.AperFunction*%
%TD*%
D11*
%TO.P,C12,1*%
%TO.N,+3V3_DIGITAL*%
X189800000Y-83750000D03*
%TO.P,C12,2*%
%TO.N,GND*%
X191700000Y-83750000D03*
%TD*%
D12*
%TO.P,U6,1,I/O1_1*%
%TO.N,A7*%
X150450000Y-42362500D03*
%TO.P,U6,2,GND_2*%
%TO.N,GND*%
X149500000Y-42362500D03*
%TO.P,U6,3,I/O2_3*%
%TO.N,A6*%
X148550000Y-42362500D03*
%TO.P,U6,4,I/O2_4*%
%TO.N,USB_DP*%
X148550000Y-44637500D03*
%TO.P,U6,5,VBUS_5*%
%TO.N,unconnected-(U6-VBUS-Pad5)*%
X149500000Y-44637500D03*
%TO.P,U6,6,I/O1_6*%
%TO.N,USB_DM*%
X150450000Y-44637500D03*
%TD*%
D13*
%TO.P,U4,1,INP_1*%
%TO.N,VBUS_SYSTEM*%
X151262500Y-76762500D03*
%TO.P,U4,2,PGND_2*%
%TO.N,GND*%
X151262500Y-77262500D03*
%TO.P,U4,3,PGND_3*%
X151262500Y-77762500D03*
%TO.P,U4,4,VIN_4*%
%TO.N,VBUS_SYSTEM*%
X151262500Y-78262500D03*
%TO.P,U4,5,INN_5*%
X151262500Y-78762500D03*
%TO.P,U4,6,INN_6*%
X151262500Y-79262500D03*
D14*
%TO.P,U4,7,BSW_7*%
%TO.N,Net-(D2-A)*%
X152000000Y-80000000D03*
%TO.P,U4,8,ENP_8*%
%TO.N,+3V3_DIGITAL*%
X152500000Y-80000000D03*
%TO.P,U4,9,PSP_9*%
%TO.N,GND*%
X153000000Y-80000000D03*
%TO.P,U4,10,ENN_10*%
%TO.N,+3V3_DIGITAL*%
X153500000Y-80000000D03*
%TO.P,U4,11,PSN_11*%
%TO.N,GND*%
X154000000Y-80000000D03*
%TO.P,U4,12,NC_12*%
%TO.N,unconnected-(U4-NC-Pad12)*%
X154500000Y-80000000D03*
D13*
%TO.P,U4,13,OUTN_13*%
%TO.N,Net-(D3-K)*%
X155237500Y-79262500D03*
%TO.P,U4,14,OUTN_14*%
X155237500Y-78762500D03*
%TO.P,U4,15,VNEG_15*%
%TO.N,-Vout*%
X155237500Y-78262500D03*
%TO.P,U4,16,FBN_16*%
%TO.N,/FBN*%
X155237500Y-77762500D03*
%TO.P,U4,17,VREF_17*%
%TO.N,/Vref*%
X155237500Y-77262500D03*
%TO.P,U4,18,CN_18*%
%TO.N,Net-(D3-K)*%
X155237500Y-76762500D03*
D14*
%TO.P,U4,19,AGND_19*%
%TO.N,GNDA*%
X154500000Y-76025000D03*
%TO.P,U4,20,NC_20*%
%TO.N,unconnected-(U4-NC-Pad20)*%
X154000000Y-76025000D03*
%TO.P,U4,21,CP_21*%
%TO.N,GND*%
X153500000Y-76025000D03*
%TO.P,U4,22,FBP_22*%
%TO.N,/FBP*%
X153000000Y-76025000D03*
%TO.P,U4,23,VPOS_23*%
%TO.N,+Vout*%
X152500000Y-76025000D03*
%TO.P,U4,24,INP_24*%
%TO.N,VBUS_SYSTEM*%
X152000000Y-76025000D03*
D15*
%TO.P,U4,25,EP_25*%
%TO.N,GND*%
X152275000Y-77037500D03*
X152275000Y-78012500D03*
X152275000Y-78987500D03*
X153250000Y-77037500D03*
X153250000Y-78012500D03*
D16*
X153250000Y-78012500D03*
D15*
X153250000Y-78987500D03*
X154225000Y-77037500D03*
X154225000Y-78012500D03*
X154225000Y-78987500D03*
%TD*%
D17*
%TO.P,NT1,1,1_1*%
%TO.N,GND*%
X201100000Y-77650000D03*
%TO.P,NT1,2,2_2*%
%TO.N,GNDA*%
X201100000Y-80250000D03*
%TD*%
D18*
%TO.P,L1,1,1_1*%
%TO.N,Net-(D2-A)*%
X138500000Y-81250000D03*
%TO.P,L1,2,2_2*%
%TO.N,VBUS_SYSTEM*%
X144000000Y-81250000D03*
%TD*%
D19*
%TO.P,BZ1,1,+_1*%
%TO.N,+3V3_DIGITAL*%
X206500000Y-118250000D03*
%TO.P,BZ1,2,-_2*%
%TO.N,Net-(BZ1--)*%
X206500000Y-110250000D03*
%TD*%
D20*
%TO.P,C8,1*%
%TO.N,XOUT*%
X177660547Y-81662501D03*
%TO.P,C8,2*%
%TO.N,GND*%
X177660547Y-83737501D03*
%TD*%
D21*
%TO.P,R19,1*%
%TO.N,+5V_RAW*%
X166250000Y-49000000D03*
%TO.P,R19,2*%
%TO.N,Net-(J7-Pin_8)*%
X164250000Y-49000000D03*
%TD*%
D22*
%TO.P,R10,1*%
%TO.N,+5V_RAW*%
X168500000Y-49500000D03*
%TO.P,R10,2*%
%TO.N,Net-(D8-A)*%
X168500000Y-51500000D03*
%TD*%
D23*
%TO.P,C1,1*%
%TO.N,Net-(SW1-A)*%
X192200000Y-53000000D03*
%TO.P,C1,2*%
%TO.N,Net-(SW1-C)*%
X190300000Y-53000000D03*
%TD*%
D24*
%TO.P,D8,1,K_1*%
%TO.N,Net-(D8-K)*%
X166225000Y-51800000D03*
%TO.P,D8,2,A_2*%
%TO.N,Net-(D8-A)*%
X164175000Y-51800000D03*
%TD*%
D25*
%TO.P,R17,1*%
%TO.N,+3V3_DIGITAL*%
X132400000Y-93000000D03*
%TO.P,R17,2*%
%TO.N,Net-(U8-RUN)*%
X132400000Y-91000000D03*
%TD*%
D26*
%TO.P,R13,1*%
%TO.N,BUZZER_CTRL*%
X202750000Y-106250000D03*
%TO.P,R13,2*%
%TO.N,Net-(Q2-B)*%
X204750000Y-106250000D03*
%TD*%
D27*
%TO.P,J5,1,Pin_1_1*%
%TO.N,VBUS_SYSTEM*%
X154750000Y-42250000D03*
D28*
%TO.P,J5,2,Pin_2_2*%
%TO.N,GND*%
X156750000Y-42250000D03*
%TD*%
D29*
%TO.P,DF1,1*%
%TO.N,+3V3_DIGITAL*%
X179173047Y-72000001D03*
%TO.P,DF1,2*%
%TO.N,GND*%
X181248047Y-72000001D03*
%TD*%
D30*
%TO.P,Y1,1,1_1*%
%TO.N,XIN*%
X171885547Y-83750001D03*
%TO.P,Y1,2,2_2*%
%TO.N,GND*%
X174785547Y-83750001D03*
%TO.P,Y1,3,3_3*%
%TO.N,XOUT*%
X174785547Y-81450001D03*
%TO.P,Y1,4,4_4*%
%TO.N,GND*%
X171885547Y-81450001D03*
%TD*%
D31*
%TO.P,SW3,1,1_1*%
%TO.N,Net-(U8-RUN)*%
X135250000Y-91000000D03*
X147750000Y-91000000D03*
%TO.P,SW3,2,2_2*%
%TO.N,GND*%
X135250000Y-96000000D03*
X147750000Y-96000000D03*
%TD*%
D32*
%TO.P,R21,1*%
%TO.N,Net-(U1B--)*%
X189825000Y-66800000D03*
%TO.P,R21,2*%
%TO.N,GNDA*%
X188000000Y-66800000D03*
%TD*%
D26*
%TO.P,R22,1*%
%TO.N,SWEEP_PWM*%
X196500000Y-72500000D03*
%TO.P,R22,2*%
%TO.N,V_filtered*%
X198500000Y-72500000D03*
%TD*%
D33*
%TO.P,D6,1,K_1*%
%TO.N,Net-(D6-K)*%
X154750000Y-51650000D03*
%TO.P,D6,2,A_2*%
%TO.N,A4*%
X154750000Y-48350000D03*
%TD*%
D34*
%TO.P,U8,1,IOVDD_1*%
%TO.N,+3V3_DIGITAL*%
X169973047Y-69200001D03*
%TO.P,U8,2,GPIO0_2*%
%TO.N,unconnected-(U8-GPIO0-Pad2)*%
X169973047Y-69600001D03*
%TO.P,U8,3,GPIO1_3*%
%TO.N,unconnected-(U8-GPIO1-Pad3)*%
X169973047Y-70000001D03*
%TO.P,U8,4,GPIO2_4*%
%TO.N,ADC_SCLK*%
X169973047Y-70400001D03*
%TO.P,U8,5,GPIO3_5*%
%TO.N,ADC_MISO*%
X169973047Y-70800001D03*
%TO.P,U8,6,GPIO4_6*%
%TO.N,I2C_SDA*%
X169973047Y-71200001D03*
%TO.P,U8,7,GPIO5_7*%
%TO.N,I2C_SCL*%
X169973047Y-71600001D03*
%TO.P,U8,8,GPIO6_8*%
%TO.N,ADC_CS*%
X169973047Y-72000001D03*
%TO.P,U8,9,GPIO7_9*%
%TO.N,RANGE_SELECT*%
X169973047Y-72400001D03*
%TO.P,U8,10,IOVDD_10*%
%TO.N,+3V3_DIGITAL*%
X169973047Y-72800001D03*
%TO.P,U8,11,GPIO8_11*%
%TO.N,BUZZER_CTRL*%
X169973047Y-73200001D03*
%TO.P,U8,12,GPIO9_12*%
%TO.N,CURRENT_ALERT*%
X169973047Y-73600001D03*
%TO.P,U8,13,GPIO10_13*%
%TO.N,SWEEP_PWM*%
X169973047Y-74000001D03*
%TO.P,U8,14,GPIO11_14*%
%TO.N,ROT_B*%
X169973047Y-74400001D03*
D35*
%TO.P,U8,15,GPIO12_15*%
%TO.N,POT_SPI_CS*%
X170810547Y-75237501D03*
%TO.P,U8,16,GPIO13_16*%
%TO.N,POT_SPI_SCK*%
X171210547Y-75237501D03*
%TO.P,U8,17,GPIO14_17*%
%TO.N,POT_SPI_MOSI*%
X171610547Y-75237501D03*
%TO.P,U8,18,GPIO15_18*%
%TO.N,TFT_MISO*%
X172010547Y-75237501D03*
%TO.P,U8,19,TESTEN_19*%
%TO.N,unconnected-(U8-TESTEN-Pad19)*%
X172410547Y-75237501D03*
%TO.P,U8,20,XIN_20*%
%TO.N,XIN*%
X172810547Y-75237501D03*
%TO.P,U8,21,XOUT_21*%
%TO.N,XOUT*%
X173210547Y-75237501D03*
%TO.P,U8,22,IOVDD_22*%
%TO.N,+3V3_DIGITAL*%
X173610547Y-75237501D03*
%TO.P,U8,23,DVDD_23*%
%TO.N,+1.1V*%
X174010547Y-75237501D03*
%TO.P,U8,24,SWCLK_24*%
%TO.N,SWCLK*%
X174410547Y-75237501D03*
%TO.P,U8,25,SWD_25*%
%TO.N,SWD*%
X174810547Y-75237501D03*
%TO.P,U8,26,RUN_26*%
%TO.N,Net-(U8-RUN)*%
X175210547Y-75237501D03*
%TO.P,U8,27,GPIO16_27*%
%TO.N,TFT_SCLK*%
X175610547Y-75237501D03*
%TO.P,U8,28,GPIO17_28*%
%TO.N,TFT_MOSI*%
X176010547Y-75237501D03*
D34*
%TO.P,U8,29,GPIO18_29*%
%TO.N,TFT_CS*%
X176848047Y-74400001D03*
%TO.P,U8,30,GPIO19_30*%
%TO.N,TFT_DC*%
X176848047Y-74000001D03*
%TO.P,U8,31,GPIO20_31*%
%TO.N,TFT_RST*%
X176848047Y-73600001D03*
%TO.P,U8,32,GPIO21_32*%
%TO.N,ROT_A*%
X176848047Y-73200001D03*
%TO.P,U8,33,IOVDD_33*%
%TO.N,+3V3_DIGITAL*%
X176848047Y-72800001D03*
%TO.P,U8,34,GPIO22_34*%
%TO.N,ROT_SW*%
X176848047Y-72400001D03*
%TO.P,U8,35,GPIO23_35*%
%TO.N,ALERT_LED*%
X176848047Y-72000001D03*
%TO.P,U8,36,GPIO24_36*%
%TO.N,unconnected-(U8-GPIO24-Pad36)*%
X176848047Y-71600001D03*
%TO.P,U8,37,GPIO25_37*%
%TO.N,unconnected-(U8-GPIO25-Pad37)*%
X176848047Y-71200001D03*
%TO.P,U8,38,GPIO26_ADC0_38*%
%TO.N,unconnected-(U8-GPIO26_ADC0-Pad38)*%
X176848047Y-70800001D03*
%TO.P,U8,39,GPIO27_ADC1_39*%
%TO.N,unconnected-(U8-GPIO27_ADC1-Pad39)*%
X176848047Y-70400001D03*
%TO.P,U8,40,GPIO28_ADC2_40*%
%TO.N,unconnected-(U8-GPIO28_ADC2-Pad40)*%
X176848047Y-70000001D03*
%TO.P,U8,41,GPIO29_ADC3_41*%
%TO.N,unconnected-(U8-GPIO29_ADC3-Pad41)*%
X176848047Y-69600001D03*
%TO.P,U8,42,IOVDD_42*%
%TO.N,+3V3_DIGITAL*%
X176848047Y-69200001D03*
D35*
%TO.P,U8,43,ADC_AVDD_43*%
%TO.N,+3V3_ANALOG*%
X176010547Y-68362501D03*
%TO.P,U8,44,VREG_IN_44*%
%TO.N,+3V3_DIGITAL*%
X175610547Y-68362501D03*
%TO.P,U8,45,VREG_VOUT_45*%
%TO.N,+1.1V*%
X175210547Y-68362501D03*
%TO.P,U8,46,USB_DM_46*%
%TO.N,USB_D_M*%
X174810547Y-68362501D03*
%TO.P,U8,47,USB_DP_47*%
%TO.N,USB_D_P*%
X174410547Y-68362501D03*
%TO.P,U8,48,USB_VDD_48*%
%TO.N,+3V3_DIGITAL*%
X174010547Y-68362501D03*
%TO.P,U8,49,IOVDD_49*%
X173610547Y-68362501D03*
%TO.P,U8,50,DVDD_50*%
%TO.N,+1.1V*%
X173210547Y-68362501D03*
%TO.P,U8,51,QSPI_SD3_51*%
%TO.N,QSPI_IO3*%
X172810547Y-68362501D03*
%TO.P,U8,52,QSPI_SCLK_52*%
%TO.N,QSPI_CLK*%
X172410547Y-68362501D03*
%TO.P,U8,53,QSPI_SD0_53*%
%TO.N,QSPI_IO0*%
X172010547Y-68362501D03*
%TO.P,U8,54,QSPI_SD2_54*%
%TO.N,QSPI_IO2*%
X171610547Y-68362501D03*
%TO.P,U8,55,QSPI_SD1_55*%
%TO.N,QSPI_IO1*%
X171210547Y-68362501D03*
%TO.P,U8,56,QSPI_SS_56*%
%TO.N,QSPI_CS*%
X170810547Y-68362501D03*
D36*
%TO.P,U8,57,GND_57*%
%TO.N,GND*%
X173410547Y-71800001D03*
%TD*%
D29*
%TO.P,RF1,1*%
%TO.N,+3V3_DIGITAL*%
X178573047Y-69200001D03*
%TO.P,RF1,2*%
%TO.N,GND*%
X180648047Y-69200001D03*
%TD*%
D37*
%TO.P,U9,1,~{CS}_1*%
%TO.N,QSPI_CS*%
X156448047Y-69170001D03*
%TO.P,U9,2,DO/IO_{1}_2*%
%TO.N,QSPI_IO1*%
X156448047Y-70440001D03*
%TO.P,U9,3,~{WP}/IO_{2}_3*%
%TO.N,QSPI_IO2*%
X156448047Y-71710001D03*
%TO.P,U9,4,GND_4*%
%TO.N,GND*%
X156448047Y-72980001D03*
%TO.P,U9,5,DI/IO_{0}_5*%
%TO.N,QSPI_IO0*%
X163623047Y-72980001D03*
%TO.P,U9,6,CLK_6*%
%TO.N,QSPI_CLK*%
X163623047Y-71710001D03*
%TO.P,U9,7,~{HOLD}/~{RESET}/IO_{3}_7*%
%TO.N,QSPI_IO3*%
X163623047Y-70440001D03*
%TO.P,U9,8,VCC_8*%
%TO.N,+3V3_DIGITAL*%
X163623047Y-69170001D03*
%TD*%
D32*
%TO.P,R3,1*%
%TO.N,/Non-inv Input OpAmp*%
X193412500Y-71000000D03*
%TO.P,R3,2*%
%TO.N,GNDA*%
X191587500Y-71000000D03*
%TD*%
%TO.P,R20,1*%
%TO.N,Net-(U1A--)*%
X170912500Y-57600000D03*
%TO.P,R20,2*%
%TO.N,/+IN_ADC*%
X169087500Y-57600000D03*
%TD*%
D22*
%TO.P,R14,1*%
%TO.N,USB_DP*%
X173710547Y-64000001D03*
%TO.P,R14,2*%
%TO.N,USB_D_P*%
X173710547Y-66000001D03*
%TD*%
D38*
%TO.P,J1,1,In_1*%
%TO.N,Net-(J1-In)*%
X198170000Y-55080000D03*
D39*
%TO.P,J1,2,Ext_2*%
%TO.N,GNDA*%
X203250000Y-50000000D03*
D38*
X198170000Y-52540000D03*
D39*
X203250000Y-60160000D03*
%TD*%
D40*
%TO.P,U5,1,A1_1*%
%TO.N,GND*%
X156700000Y-66500000D03*
%TO.P,U5,2,A0_2*%
X156700000Y-66000000D03*
%TO.P,U5,3,~{Alert}_3*%
%TO.N,CURRENT_ALERT*%
X156700000Y-65500000D03*
%TO.P,U5,4,SDA_4*%
%TO.N,I2C_SDA*%
X156700000Y-65000000D03*
%TO.P,U5,5,SCL_5*%
%TO.N,I2C_SCL*%
X156700000Y-64500000D03*
%TO.P,U5,6,VS_6*%
%TO.N,+3V3_DIGITAL*%
X152500000Y-64500000D03*
%TO.P,U5,7,GND_7*%
%TO.N,GND*%
X152500000Y-65000000D03*
%TO.P,U5,8,Vbus_8*%
%TO.N,CURRENT_IN*%
X152500000Y-65500000D03*
%TO.P,U5,9,Vin-_9*%
%TO.N,GNDA*%
X152500000Y-66000000D03*
%TO.P,U5,10,Vin+_10*%
%TO.N,CURRENT_IN*%
X152500000Y-66500000D03*
%TD*%
D22*
%TO.P,R7,1*%
%TO.N,+Vout*%
X147000000Y-78400000D03*
%TO.P,R7,2*%
%TO.N,/FBP*%
X147000000Y-80400000D03*
%TD*%
D29*
%TO.P,CAF1,1*%
%TO.N,+3V3_ANALOG*%
X178210547Y-67000001D03*
%TO.P,CAF1,2*%
%TO.N,GND*%
X180285547Y-67000001D03*
%TD*%
D41*
%TO.P,C5,1*%
%TO.N,+3V3_DIGITAL*%
X185437500Y-46000000D03*
%TO.P,C5,2*%
%TO.N,GND*%
X183362500Y-46000000D03*
%TD*%
D42*
%TO.P,U11,1,~{CS}_1*%
%TO.N,POT_SPI_CS*%
X166810000Y-76025000D03*
%TO.P,U11,2,SCK_2*%
%TO.N,POT_SPI_SCK*%
X165540000Y-76025000D03*
%TO.P,U11,3,SI_3*%
%TO.N,POT_SPI_MOSI*%
X164270000Y-76025000D03*
%TO.P,U11,4,VSS_4*%
%TO.N,GNDA*%
X163000000Y-76025000D03*
%TO.P,U11,5,PB1_5*%
%TO.N,/FBN*%
X161730000Y-76025000D03*
%TO.P,U11,6,PW1_6*%
X160460000Y-76025000D03*
%TO.P,U11,7,PA1_7*%
%TO.N,/Vref*%
X159190000Y-76025000D03*
%TO.P,U11,8,PA0_8*%
%TO.N,/FBP*%
X159190000Y-80975000D03*
%TO.P,U11,9,PW0_9*%
X160460000Y-80975000D03*
%TO.P,U11,10,PB0_10*%
%TO.N,GNDA*%
X161730000Y-80975000D03*
%TO.P,U11,11,~{RS}_11*%
%TO.N,+3V3_DIGITAL*%
X163000000Y-80975000D03*
%TO.P,U11,12,~{SHDN}_12*%
X164270000Y-80975000D03*
%TO.P,U11,13,SO_13*%
%TO.N,unconnected-(U11-SO-Pad13)*%
X165540000Y-80975000D03*
%TO.P,U11,14,VDD_14*%
%TO.N,+3V3_DIGITAL*%
X166810000Y-80975000D03*
%TD*%
D24*
%TO.P,D7,1,K_1*%
%TO.N,Net-(D7-K)*%
X171850000Y-45400000D03*
%TO.P,D7,2,A_2*%
%TO.N,Net-(D7-A)*%
X169800000Y-45400000D03*
%TD*%
D43*
%TO.P,D5,1,K_1*%
%TO.N,Net-(D5-K)*%
X182500000Y-76525000D03*
%TO.P,D5,2,A_2*%
%TO.N,ALERT_LED*%
X182500000Y-74475000D03*
%TD*%
D44*
%TO.P,R2,1*%
%TO.N,CURRENT_IN*%
X148500000Y-65837500D03*
%TO.P,R2,2*%
%TO.N,Net-(Q1-D)*%
X148500000Y-67662500D03*
%TD*%
D22*
%TO.P,R15,1*%
%TO.N,USB_DM*%
X175710547Y-64000001D03*
%TO.P,R15,2*%
%TO.N,USB_D_M*%
X175710547Y-66000001D03*
%TD*%
D43*
%TO.P,D4,1,K_1*%
%TO.N,Net-(D4-K)*%
X190250000Y-60025000D03*
%TO.P,D4,2,A_2*%
%TO.N,+3V3_DIGITAL*%
X190250000Y-57975000D03*
%TD*%
D45*
%TO.P,U7,1,VIN_1*%
%TO.N,VBUS_SYSTEM*%
X181225000Y-54250000D03*
%TO.P,U7,2,GND_2*%
%TO.N,GND*%
X181225000Y-55200000D03*
%TO.P,U7,3,EN_3*%
%TO.N,VBUS_SYSTEM*%
X181225000Y-56150000D03*
%TO.P,U7,4,NC_4*%
%TO.N,unconnected-(U7-NC-Pad4)*%
X183500000Y-56150000D03*
%TO.P,U7,5,VOUT_5*%
%TO.N,+3V3_DIGITAL*%
X183500000Y-54250000D03*
%TD*%
D18*
%TO.P,L2,1,1_1*%
%TO.N,GND*%
X138500000Y-74000000D03*
%TO.P,L2,2,2_2*%
%TO.N,Net-(D3-K)*%
X144000000Y-74000000D03*
%TD*%
D46*
%TO.P,C6,1*%
%TO.N,+1.1V*%
X170710547Y-65537501D03*
%TO.P,C6,2*%
%TO.N,GND*%
X170710547Y-63462501D03*
%TD*%
D47*
%TO.P,SW1,*%
%TO.N,*%
X194400000Y-50100000D03*
X194400000Y-47890000D03*
X187100000Y-50100000D03*
X187100000Y-47890000D03*
D48*
%TO.P,SW1,1,A_1*%
%TO.N,Net-(SW1-A)*%
X193000000Y-50750000D03*
%TO.P,SW1,2,B_2*%
%TO.N,Net-(J1-In)*%
X190000000Y-50750000D03*
%TO.P,SW1,3,C_3*%
%TO.N,Net-(SW1-C)*%
X188500000Y-50750000D03*
%TD*%
D22*
%TO.P,R11,1*%
%TO.N,GND*%
X193750000Y-57750000D03*
%TO.P,R11,2*%
%TO.N,Net-(D4-K)*%
X193750000Y-59750000D03*
%TD*%
D49*
%TO.P,M3,1*%
%TO.N,N/C*%
X136250000Y-65250000D03*
D50*
X136250000Y-65250000D03*
%TD*%
D51*
%TO.P,Q1,1,D_1*%
%TO.N,Net-(Q1-D)*%
X151860000Y-72770000D03*
D52*
%TO.P,Q1,2,G_2*%
%TO.N,RANGE_SELECT*%
X151860000Y-71500000D03*
%TO.P,Q1,3,S_3*%
%TO.N,GNDA*%
X151860000Y-70230000D03*
%TD*%
D53*
%TO.P,F1,1*%
%TO.N,Net-(D6-K)*%
X157750000Y-51650000D03*
%TO.P,F1,2*%
%TO.N,Net-(F1-Pad2)*%
X157750000Y-48850000D03*
%TD*%
D41*
%TO.P,C3,1*%
%TO.N,GND*%
X183537500Y-52250000D03*
%TO.P,C3,2*%
%TO.N,VBUS_SYSTEM*%
X181462500Y-52250000D03*
%TD*%
%TO.P,C4,1*%
%TO.N,/Vref*%
X158037500Y-61750000D03*
%TO.P,C4,2*%
%TO.N,GNDA*%
X155962500Y-61750000D03*
%TD*%
D54*
%TO.P,J2,1,Pin_1_1*%
%TO.N,V_SWEEP*%
X206460000Y-83080000D03*
D55*
%TO.P,J2,2,Pin_2_2*%
%TO.N,CURRENT_IN*%
X206460000Y-80540000D03*
%TO.P,J2,3,Pin_3_3*%
%TO.N,GNDA*%
X206460000Y-78000000D03*
%TD*%
D26*
%TO.P,R5,1*%
%TO.N,Net-(J3-CC1)*%
X145000000Y-41000000D03*
%TO.P,R5,2*%
%TO.N,GND*%
X147000000Y-41000000D03*
%TD*%
D21*
%TO.P,R16,1*%
%TO.N,+3V3_DIGITAL*%
X180250000Y-64750000D03*
%TO.P,R16,2*%
%TO.N,+3V3_ANALOG*%
X178250000Y-64750000D03*
%TD*%
D22*
%TO.P,R12,1*%
%TO.N,GND*%
X185000000Y-74500000D03*
%TO.P,R12,2*%
%TO.N,Net-(D5-K)*%
X185000000Y-76500000D03*
%TD*%
D20*
%TO.P,C7,1*%
%TO.N,XIN*%
X169010547Y-81662501D03*
%TO.P,C7,2*%
%TO.N,GND*%
X169010547Y-83737501D03*
%TD*%
D49*
%TO.P,M4,1*%
%TO.N,N/C*%
X181250000Y-41500000D03*
D50*
X181250000Y-41500000D03*
%TD*%
D26*
%TO.P,R18,1*%
%TO.N,Net-(U10-PROG)*%
X175000000Y-45500000D03*
%TO.P,R18,2*%
%TO.N,GND*%
X177000000Y-45500000D03*
%TD*%
D22*
%TO.P,R6,1*%
%TO.N,Net-(J3-CC2)*%
X145200000Y-47200000D03*
%TO.P,R6,2*%
%TO.N,GND*%
X145200000Y-49200000D03*
%TD*%
D56*
%TO.P,R1,1*%
%TO.N,Net-(SW1-C)*%
X191587500Y-65000000D03*
%TO.P,R1,2*%
%TO.N,/Non-inv Input OpAmp*%
X193412500Y-65000000D03*
%TD*%
D57*
%TO.P,FB1,1*%
%TO.N,Net-(F1-Pad2)*%
X160187500Y-48750000D03*
%TO.P,FB1,2*%
%TO.N,+5V_RAW*%
X162312500Y-48750000D03*
%TD*%
D58*
%TO.P,D2,1,K_1*%
%TO.N,+Vout*%
X149400000Y-75500000D03*
%TO.P,D2,2,A_2*%
%TO.N,Net-(D2-A)*%
X146100000Y-75500000D03*
%TD*%
D49*
%TO.P,M2,1*%
%TO.N,N/C*%
X197250000Y-148750000D03*
D50*
X197250000Y-148750000D03*
%TD*%
D22*
%TO.P,R8,1*%
%TO.N,/FBN*%
X157250000Y-78250000D03*
%TO.P,R8,2*%
%TO.N,-Vout*%
X157250000Y-80250000D03*
%TD*%
D29*
%TO.P,C11,1*%
%TO.N,VBUS_SYSTEM*%
X181325000Y-58150000D03*
%TO.P,C11,2*%
%TO.N,GND*%
X183400000Y-58150000D03*
%TD*%
D22*
%TO.P,R9,1*%
%TO.N,+5V_RAW*%
X171000000Y-49500000D03*
%TO.P,R9,2*%
%TO.N,Net-(D7-A)*%
X171000000Y-51500000D03*
%TD*%
D59*
%TO.P,J4,1,Pin_1_1*%
%TO.N,+Vout*%
X206000000Y-89500000D03*
D60*
%TO.P,J4,2,Pin_2_2*%
%TO.N,GNDA*%
X206000000Y-94500000D03*
%TO.P,J4,3,Pin_3_3*%
%TO.N,-Vout*%
X206000000Y-99500000D03*
%TD*%
D42*
%TO.P,U2,1,Vref_1*%
%TO.N,/Vref_ADC*%
X163905000Y-57525000D03*
%TO.P,U2,2,IN+_2*%
%TO.N,/+IN_ADC*%
X162635000Y-57525000D03*
%TO.P,U2,3,IN-_3*%
%TO.N,GNDA*%
X161365000Y-57525000D03*
%TO.P,U2,4,Vss_4*%
%TO.N,GND*%
X160095000Y-57525000D03*
%TO.P,U2,5,~{CS}/SHDN_5*%
%TO.N,ADC_CS*%
X160095000Y-62475000D03*
%TO.P,U2,6,Dout_6*%
%TO.N,ADC_MISO*%
X161365000Y-62475000D03*
%TO.P,U2,7,CLK_7*%
%TO.N,ADC_SCLK*%
X162635000Y-62475000D03*
%TO.P,U2,8,Vdd_8*%
%TO.N,+3V3_DIGITAL*%
X163905000Y-62475000D03*
%TD*%
D61*
%TO.P,J7,1,Pin_1_1*%
%TO.N,+3V3_DIGITAL*%
X190650547Y-88500001D03*
D62*
%TO.P,J7,2,Pin_2_2*%
%TO.N,GND*%
X188110547Y-88500001D03*
%TO.P,J7,3,Pin_3_3*%
%TO.N,TFT_CS*%
X185570547Y-88500001D03*
%TO.P,J7,4,Pin_4_4*%
%TO.N,TFT_RST*%
X183030547Y-88500001D03*
%TO.P,J7,5,Pin_5_5*%
%TO.N,TFT_DC*%
X180490547Y-88500001D03*
%TO.P,J7,6,Pin_6_6*%
%TO.N,TFT_MOSI*%
X177950547Y-88500001D03*
%TO.P,J7,7,Pin_7_7*%
%TO.N,TFT_SCLK*%
X175410547Y-88500001D03*
%TO.P,J7,8,Pin_8_8*%
%TO.N,Net-(J7-Pin_8)*%
X172870547Y-88500001D03*
%TO.P,J7,9,Pin_9_9*%
%TO.N,TFT_MISO*%
X170330547Y-88500001D03*
%TO.P,J7,10,Pin_10_10*%
%TO.N,unconnected-(J7-Pin_10-Pad10)*%
X167790547Y-88500001D03*
%TO.P,J7,11,Pin_11_11*%
%TO.N,unconnected-(J7-Pin_11-Pad11)*%
X165250547Y-88500001D03*
%TO.P,J7,12,Pin_12_12*%
%TO.N,unconnected-(J7-Pin_12-Pad12)*%
X162710547Y-88500001D03*
%TO.P,J7,13,Pin_13_13*%
%TO.N,unconnected-(J7-Pin_13-Pad13)*%
X160170547Y-88500001D03*
%TO.P,J7,14,Pin_14_14*%
%TO.N,unconnected-(J7-Pin_14-Pad14)*%
X157630547Y-88500001D03*
%TD*%
D58*
%TO.P,D9,1,K_1*%
%TO.N,+3V3_DIGITAL*%
X168900000Y-55250000D03*
%TO.P,D9,2,A_2*%
%TO.N,/+IN_ADC*%
X165600000Y-55250000D03*
%TD*%
D44*
%TO.P,R4,1*%
%TO.N,CURRENT_IN*%
X146250000Y-65837500D03*
%TO.P,R4,2*%
%TO.N,GNDA*%
X146250000Y-67662500D03*
%TD*%
D49*
%TO.P,M1,1*%
%TO.N,N/C*%
X154750000Y-148750000D03*
D50*
X154750000Y-148750000D03*
%TD*%
D63*
%TO.P,U3,1,IN_1*%
%TO.N,+3V3_DIGITAL*%
X186362500Y-54150000D03*
%TO.P,U3,2,OUT_2*%
%TO.N,/Vref_ADC*%
X186362500Y-56050000D03*
%TO.P,U3,3,GND_3*%
%TO.N,GNDA*%
X188237500Y-55100000D03*
%TD*%
D20*
%TO.P,C10,1*%
%TO.N,V_filtered*%
X200500000Y-72462500D03*
%TO.P,C10,2*%
%TO.N,GND*%
X200500000Y-74537500D03*
%TD*%
D64*
%TO.P,C2,1*%
%TO.N,+Vout*%
X204000000Y-66442500D03*
%TO.P,C2,2*%
%TO.N,GNDA*%
X204000000Y-71557500D03*
%TD*%
D65*
%TO.P,U10,1,TEMP_1*%
%TO.N,GND*%
X173975000Y-48795000D03*
%TO.P,U10,2,PROG_2*%
%TO.N,Net-(U10-PROG)*%
X173975000Y-50065000D03*
%TO.P,U10,3,GND_3*%
%TO.N,GND*%
X173975000Y-51335000D03*
%TO.P,U10,4,V_{CC}_4*%
%TO.N,+5V_RAW*%
X173975000Y-52605000D03*
%TO.P,U10,5,BAT_5*%
%TO.N,VBUS_SYSTEM*%
X178925000Y-52605000D03*
%TO.P,U10,6,~{STDBY}_6*%
%TO.N,Net-(D8-K)*%
X178925000Y-51335000D03*
%TO.P,U10,7,~{CHRG}_7*%
%TO.N,Net-(D7-K)*%
X178925000Y-50065000D03*
%TO.P,U10,8,CE_8*%
%TO.N,+5V_RAW*%
X178925000Y-48795000D03*
D15*
%TO.P,U10,9,EPAD_9*%
%TO.N,GND*%
X175750000Y-49500000D03*
X175750000Y-50700000D03*
X175750000Y-51900000D03*
D66*
X176450000Y-50700000D03*
D15*
X177150000Y-49500000D03*
X177150000Y-50700000D03*
X177150000Y-51900000D03*
%TD*%
D46*
%TO.P,C9,1*%
%TO.N,+3V3_DIGITAL*%
X163785547Y-67137501D03*
%TO.P,C9,2*%
%TO.N,GND*%
X163785547Y-65062501D03*
%TD*%
D65*
%TO.P,U1,1,~_1*%
%TO.N,Net-(U1A--)*%
X195550000Y-66460000D03*
%TO.P,U1,2,-_2*%
X195550000Y-67730000D03*
%TO.P,U1,3,+_3*%
%TO.N,/Non-inv Input OpAmp*%
X195550000Y-69000000D03*
%TO.P,U1,4,V-_4*%
%TO.N,-Vout*%
X195550000Y-70270000D03*
%TO.P,U1,5,+_5*%
%TO.N,V_filtered*%
X200500000Y-70270000D03*
%TO.P,U1,6,-_6*%
%TO.N,Net-(U1B--)*%
X200500000Y-69000000D03*
%TO.P,U1,7,~_7*%
%TO.N,V_SWEEP*%
X200500000Y-67730000D03*
%TO.P,U1,8,V+_8*%
%TO.N,+Vout*%
X200500000Y-66460000D03*
%TD*%
D67*
%TO.P,SW2,A,A_A*%
%TO.N,ROT_A*%
X148000000Y-110500000D03*
D68*
%TO.P,SW2,B,B_B*%
%TO.N,ROT_B*%
X148000000Y-105500000D03*
%TO.P,SW2,C,C_C*%
%TO.N,GND*%
X148000000Y-108000000D03*
D69*
%TO.P,SW2,MP*%
X140500000Y-113600000D03*
X140500000Y-102400000D03*
D68*
%TO.P,SW2,S1,S1_S1*%
%TO.N,ROT_SW*%
X133500000Y-105500000D03*
%TO.P,SW2,S2,S2_S2*%
%TO.N,GND*%
X133500000Y-110500000D03*
%TD*%
D70*
%TO.P,D3,1,K_1*%
%TO.N,Net-(D3-K)*%
X154100000Y-82500000D03*
%TO.P,D3,2,A_2*%
%TO.N,-Vout*%
X157400000Y-82500000D03*
%TD*%
D58*
%TO.P,D1,1,K_1*%
%TO.N,/+IN_ADC*%
X162400000Y-54750000D03*
%TO.P,D1,2,A_2*%
%TO.N,GNDA*%
X159100000Y-54750000D03*
%TD*%
D61*
%TO.P,J6,1,Pin_1_1*%
%TO.N,SWCLK*%
X198000000Y-79460000D03*
D62*
%TO.P,J6,2,Pin_2_2*%
%TO.N,SWD*%
X198000000Y-82000000D03*
%TO.P,J6,3,Pin_3_3*%
%TO.N,GND*%
X198000000Y-84540000D03*
%TD*%
D71*
%TO.P,Q2,1,B_1*%
%TO.N,Net-(Q2-B)*%
X208700000Y-105812500D03*
%TO.P,Q2,2,E_2*%
%TO.N,GND*%
X206800000Y-105812500D03*
%TO.P,Q2,3,C_3*%
%TO.N,Net-(BZ1--)*%
X207750000Y-107687500D03*
%TD*%
D56*
%TO.P,R23,1*%
%TO.N,Net-(U1B--)*%
X198500000Y-64250000D03*
%TO.P,R23,2*%
%TO.N,V_SWEEP*%
X200325000Y-64250000D03*
%TD*%
D72*
%TO.P,J3,A1,GND_A1*%
%TO.N,GND*%
X142820000Y-42230000D03*
%TO.P,J3,A4,VBUS_A4*%
%TO.N,A4*%
X142820000Y-43030000D03*
D73*
%TO.P,J3,A5,CC1_A5*%
%TO.N,Net-(J3-CC1)*%
X142820000Y-44180000D03*
%TO.P,J3,A6,D+_A6*%
%TO.N,A6*%
X142820000Y-45180000D03*
%TO.P,J3,A7,D-_A7*%
%TO.N,A7*%
X142820000Y-45680000D03*
%TO.P,J3,A8,SBU1_A8*%
%TO.N,unconnected-(J3-SBU1-PadA8)*%
X142820000Y-46680000D03*
D72*
%TO.P,J3,A9,VBUS_A9*%
%TO.N,A4*%
X142820000Y-47830000D03*
%TO.P,J3,A12,GND_A12*%
%TO.N,GND*%
X142820000Y-48630000D03*
%TO.P,J3,B1,GND_B1*%
X142820000Y-48630000D03*
%TO.P,J3,B4,VBUS_B4*%
%TO.N,A4*%
X142820000Y-47830000D03*
D73*
%TO.P,J3,B5,CC2_B5*%
%TO.N,Net-(J3-CC2)*%
X142820000Y-47180000D03*
%TO.P,J3,B6,D+_B6*%
%TO.N,unconnected-(J3-D+-PadB6)*%
X142820000Y-46180000D03*
%TO.P,J3,B7,D-_B7*%
%TO.N,unconnected-(J3-D--PadB7)*%
X142820000Y-44680000D03*
%TO.P,J3,B8,SBU2_B8*%
%TO.N,unconnected-(J3-SBU2-PadB8)*%
X142820000Y-43680000D03*
D72*
%TO.P,J3,B9,VBUS_B9*%
%TO.N,A4*%
X142820000Y-43030000D03*
%TO.P,J3,B12,GND_B12*%
%TO.N,GND*%
X142820000Y-42230000D03*
D74*
%TO.P,J3,SH*%
X142180000Y-41110000D03*
D75*
X138000000Y-41110000D03*
D74*
X142180000Y-49750000D03*
D75*
X138000000Y-49750000D03*
%TD*%
D76*
%TO.N,+3V3_DIGITAL*%
X170000000Y-55250000D03*
X165361091Y-67861091D03*
D77*
X190362500Y-56650000D03*
X132000000Y-94500000D03*
D78*
X171250000Y-72250000D03*
D76*
X190710547Y-90600001D03*
X181500000Y-65000000D03*
X173760547Y-76500000D03*
X153500000Y-81000000D03*
X168500000Y-69000000D03*
X154000000Y-64450000D03*
X206500000Y-120000000D03*
D77*
X164000000Y-83500000D03*
D76*
X165000000Y-62900000D03*
D77*
%TO.N,GND*%
X195500000Y-84500000D03*
X169210547Y-63500001D03*
X181500000Y-64000000D03*
X159750000Y-42250000D03*
X191750000Y-85500000D03*
X183000000Y-44600000D03*
X188000000Y-85500000D03*
X147993511Y-40493511D03*
X169010547Y-84800001D03*
X154500000Y-81000000D03*
X178500000Y-45500000D03*
X171885547Y-79925001D03*
X181210547Y-73500001D03*
X182362500Y-55150000D03*
X207581055Y-106400016D03*
X153500000Y-75000000D03*
X165000000Y-65062501D03*
X151500000Y-41250000D03*
X175000000Y-70000000D03*
X157500000Y-67500000D03*
X179000000Y-59500000D03*
X158210547Y-73000001D03*
X137000000Y-74000000D03*
X177000000Y-84839274D03*
X136500000Y-41000000D03*
X177250000Y-54050000D03*
X198000000Y-75500000D03*
D76*
%TO.N,USB_DP*%
X148500000Y-46500000D03*
X173750000Y-59750000D03*
%TO.N,USB_DM*%
X150500000Y-46500000D03*
X175750000Y-59750000D03*
D78*
%TO.N,VBUS_SYSTEM*%
X150500000Y-75500000D03*
X148000000Y-72000000D03*
D77*
%TO.N,Net-(D2-A)*%
X152000000Y-81500000D03*
D78*
X151000000Y-83500000D03*
%TO.N,Net-(D3-K)*%
X156367028Y-79090283D03*
X156000000Y-76000000D03*
D77*
%TO.N,-Vout*%
X159000000Y-85000000D03*
X154500000Y-84500000D03*
D78*
X156000000Y-80500000D03*
D77*
X193300000Y-75000000D03*
D78*
X155237500Y-78262500D03*
D77*
X155135156Y-83030881D03*
X168685547Y-85639274D03*
X176500000Y-79000000D03*
%TO.N,/Vref*%
X160400000Y-65000000D03*
X158800000Y-74400000D03*
%TO.N,GNDA*%
X157500000Y-58000000D03*
X154500000Y-75000000D03*
X208000000Y-74000000D03*
X162000000Y-59000000D03*
X161500000Y-82500000D03*
X161000000Y-54750000D03*
X150500000Y-67250000D03*
X190000000Y-71000000D03*
X190000000Y-55500000D03*
X202500000Y-53250000D03*
D78*
%TO.N,+Vout*%
X153000000Y-88500000D03*
X190000000Y-95000000D03*
X151500000Y-75425000D03*
X203000000Y-92000000D03*
X200000000Y-94500000D03*
X160500000Y-90500000D03*
D77*
%TO.N,Net-(J7-Pin_8)*%
X171638219Y-89000002D03*
X184500000Y-50500000D03*
D78*
%TO.N,Net-(D8-K)*%
X178925000Y-51335000D03*
X171200000Y-52755000D03*
D77*
%TO.N,Net-(U8-RUN)*%
X173000000Y-93000000D03*
D78*
X175063531Y-76432159D03*
%TO.N,BUZZER_CTRL*%
X172753791Y-74450005D03*
X170760547Y-76375849D03*
X163000000Y-82750000D03*
X169931801Y-75931801D03*
%TO.N,SWEEP_PWM*%
X169000000Y-79500000D03*
X168500000Y-75687501D03*
X170398958Y-76898958D03*
D77*
X169000000Y-74237501D03*
D76*
%TO.N,ADC_SCLK*%
X163000000Y-64000000D03*
X171360545Y-71000000D03*
%TO.N,ADC_MISO*%
X166500000Y-66500000D03*
X168500000Y-70000000D03*
D77*
%TO.N,I2C_SDA*%
X161662522Y-70980532D03*
D78*
X166429481Y-69916728D03*
D77*
X168348528Y-73000002D03*
X170921878Y-71608338D03*
%TO.N,I2C_SCL*%
X166500000Y-72000000D03*
X162461197Y-71026605D03*
D76*
%TO.N,ADC_CS*%
X168500000Y-72000000D03*
X165799997Y-66500000D03*
D78*
%TO.N,RANGE_SELECT*%
X169000000Y-73000000D03*
X154500000Y-73000000D03*
D77*
%TO.N,CURRENT_ALERT*%
X165500000Y-73000000D03*
X162059435Y-71718408D03*
D78*
%TO.N,+1.1V*%
X175490340Y-67581142D03*
D76*
X174010547Y-74400001D03*
X173210547Y-69300001D03*
D78*
%TO.N,SWCLK*%
X176750000Y-76250000D03*
X194750000Y-79250000D03*
%TO.N,SWD*%
X174500000Y-77000000D03*
X175500000Y-74500000D03*
D77*
X178000000Y-78000000D03*
X195000000Y-82000000D03*
D78*
%TO.N,TFT_SCLK*%
X175610547Y-76500000D03*
D77*
%TO.N,ROT_A*%
X153000000Y-109500000D03*
X172250000Y-73900003D03*
D78*
%TO.N,ROT_SW*%
X178000000Y-72350001D03*
D76*
%TO.N,QSPI_IO2*%
X171210547Y-70250001D03*
D77*
X159210547Y-71750001D03*
D76*
%TO.N,QSPI_IO1*%
X171185547Y-69450001D03*
X158710547Y-70350001D03*
D77*
%TO.N,Net-(U1A--)*%
X172200000Y-57800000D03*
X194062500Y-66600000D03*
%TO.N,CURRENT_IN*%
X150500000Y-64500000D03*
%TO.N,Net-(D7-A)*%
X171000000Y-50650000D03*
X168400000Y-45400000D03*
%TO.N,V_SWEEP*%
X199150000Y-67500000D03*
%TO.N,Net-(J3-CC1)*%
X145200000Y-42380000D03*
X144400000Y-44200000D03*
%TO.N,Net-(U10-PROG)*%
X174694998Y-50485000D03*
D78*
X173500000Y-45750000D03*
%TD*%
%TO.N,+3V3_DIGITAL*%
D79*
X181250000Y-64750000D02*
X181500000Y-65000000D01*
X175406907Y-69100001D02*
X174214187Y-69100001D01*
X188112500Y-57750000D02*
X188500000Y-57750000D01*
X165199448Y-79700000D02*
X166509999Y-79700000D01*
X163623047Y-67300001D02*
X163785547Y-67137501D01*
X169973047Y-72800001D02*
X170506907Y-72800001D01*
X153950000Y-64500000D02*
X154000000Y-64450000D01*
X179098047Y-68675001D02*
X179098047Y-65901953D01*
X176848047Y-72800001D02*
X178373047Y-72800001D01*
X168700001Y-69200001D02*
X168500000Y-69000000D01*
X164270000Y-80629448D02*
X165199448Y-79700000D01*
X176314187Y-72800001D02*
X176848047Y-72800001D01*
X188112500Y-56353052D02*
X188112500Y-57750000D01*
X153500000Y-80000000D02*
X153500000Y-81000000D01*
X175610547Y-68362501D02*
X175610547Y-68896361D01*
X174010547Y-68362501D02*
X173610547Y-68362501D01*
X190650547Y-88500001D02*
X190650547Y-90540001D01*
X153500000Y-80401886D02*
X153214386Y-80687500D01*
X164637501Y-67137501D02*
X165361091Y-67861091D01*
X132000000Y-93000000D02*
X132000000Y-94500000D01*
X179098047Y-65901953D02*
X180250000Y-64750000D01*
X188725000Y-57975000D02*
X190250000Y-57975000D01*
X166509999Y-79700000D02*
X166810000Y-80000001D01*
X153500000Y-80000000D02*
X153500000Y-80401886D01*
X164270000Y-83230000D02*
X164000000Y-83500000D01*
X173610547Y-75237501D02*
X173610547Y-76350000D01*
X164270000Y-80975000D02*
X164270000Y-83230000D01*
X186262500Y-54250000D02*
X186362500Y-54150000D01*
X186062501Y-53850001D02*
X186062501Y-46625001D01*
X163905000Y-62475000D02*
X164575000Y-62475000D01*
X152500000Y-64500000D02*
X153950000Y-64500000D01*
X176848047Y-69200001D02*
X178573047Y-69200001D01*
X206500000Y-118250000D02*
X206500000Y-120000000D01*
X163000000Y-80975000D02*
X164270000Y-80975000D01*
X178373047Y-72800001D02*
X179173047Y-72000001D01*
X175610547Y-68896361D02*
X175914187Y-69200001D01*
X180250000Y-64750000D02*
X181250000Y-64750000D01*
X186362500Y-54603052D02*
X188112500Y-56353052D01*
X164575000Y-62475000D02*
X165000000Y-62900000D01*
X186062501Y-46625001D02*
X185437500Y-46000000D01*
X175914187Y-69200001D02*
X175914187Y-72400001D01*
X152785614Y-80687500D02*
X152500000Y-80401886D01*
X163623047Y-69170001D02*
X163623047Y-67300001D01*
X166810000Y-80000001D02*
X166810000Y-80975000D01*
X169973047Y-69200001D02*
X168700001Y-69200001D01*
X174010547Y-68896361D02*
X174010547Y-68362501D01*
X174214187Y-69100001D02*
X174010547Y-68896361D01*
X164270000Y-80975000D02*
X164270000Y-80629448D01*
X190650547Y-88500001D02*
X190650547Y-84600547D01*
X190362500Y-57900000D02*
X190362500Y-56650000D01*
X183500000Y-54250000D02*
X186262500Y-54250000D01*
X175914187Y-69200001D02*
X176848047Y-69200001D01*
X190650547Y-90540001D02*
X190710547Y-90600001D01*
X175914187Y-72400001D02*
X176314187Y-72800001D01*
X170506907Y-72800001D02*
X171056908Y-72250000D01*
X186362500Y-54150000D02*
X186062501Y-53850001D01*
X168900000Y-55250000D02*
X170000000Y-55250000D01*
X178573047Y-69200001D02*
X179098047Y-68675001D01*
X171056908Y-72250000D02*
X171250000Y-72250000D01*
X190650547Y-84600547D02*
X189800000Y-83750000D01*
X188500000Y-57750000D02*
X188725000Y-57975000D01*
X152500000Y-80401886D02*
X152500000Y-80000000D01*
X175610547Y-68896361D02*
X175406907Y-69100001D01*
X153214386Y-80687500D02*
X152785614Y-80687500D01*
X173610547Y-76350000D02*
X173760547Y-76500000D01*
X163785547Y-67137501D02*
X164637501Y-67137501D01*
X186362500Y-54150000D02*
X186362500Y-54603052D01*
%TO.N,GND*%
X175850000Y-50750000D02*
X176550000Y-50750000D01*
X143560000Y-39730000D02*
X155305000Y-39730000D01*
X177660547Y-83737501D02*
X177660547Y-84178727D01*
X142820000Y-48630000D02*
X144630000Y-48630000D01*
X192400000Y-59100000D02*
X184900000Y-59100000D01*
X181248047Y-73462501D02*
X181210547Y-73500001D01*
X175850000Y-50050000D02*
X176550000Y-50750000D01*
X138000000Y-41110000D02*
X136610000Y-41110000D01*
X142820000Y-41750000D02*
X142180000Y-41110000D01*
X208950000Y-111600000D02*
X204050000Y-111600000D01*
X155899568Y-66000000D02*
X156700000Y-66000000D01*
X152275000Y-77037500D02*
X153250000Y-77037500D01*
X204050000Y-108896362D02*
X206546346Y-106400016D01*
X151262500Y-77762500D02*
X152025000Y-77762500D01*
X153000000Y-79598114D02*
X153285614Y-79312500D01*
X153250000Y-78987500D02*
X154225000Y-78987500D01*
X174075000Y-51385000D02*
X175285000Y-51385000D01*
X209350000Y-111200000D02*
X208950000Y-111600000D01*
X142180000Y-49270000D02*
X142820000Y-48630000D01*
X154000000Y-79598114D02*
X154000000Y-80000000D01*
X151262500Y-77262500D02*
X151262500Y-77762500D01*
X154899568Y-65000000D02*
X155899568Y-66000000D01*
X140500000Y-102400000D02*
X142400000Y-102400000D01*
X147487022Y-41000000D02*
X147993511Y-40493511D01*
X188110547Y-88500001D02*
X188110547Y-85610547D01*
X182362500Y-53425000D02*
X182362500Y-55150000D01*
X177250000Y-54050000D02*
X177250000Y-51950000D01*
X161524448Y-64250000D02*
X160695000Y-63420552D01*
X144630000Y-48630000D02*
X145200000Y-49200000D01*
X156700000Y-66000000D02*
X156700000Y-66500000D01*
X180648047Y-69200001D02*
X180648047Y-67950001D01*
X149500000Y-42009448D02*
X150259448Y-41250000D01*
X156700000Y-66500000D02*
X156700000Y-66700000D01*
X182312500Y-57062500D02*
X182312500Y-55200000D01*
X174798047Y-83737501D02*
X174785547Y-83750001D01*
X153000000Y-80000000D02*
X153000000Y-79237500D01*
X180648047Y-71400001D02*
X181248047Y-72000001D01*
X181500000Y-62500000D02*
X181500000Y-64000000D01*
X142180000Y-41110000D02*
X143560000Y-39730000D01*
X138000000Y-42750000D02*
X138000000Y-49750000D01*
X191700000Y-85450000D02*
X191750000Y-85500000D01*
X163250432Y-64527386D02*
X163227818Y-64550000D01*
X177660547Y-83737501D02*
X174798047Y-83737501D01*
X153500000Y-76025000D02*
X153500000Y-75000000D01*
X152050000Y-77262500D02*
X151262500Y-77262500D01*
X175850000Y-49550000D02*
X175850000Y-50050000D01*
X184900000Y-59100000D02*
X181500000Y-62500000D01*
X193750000Y-57750000D02*
X192400000Y-59100000D01*
X154225000Y-78012500D02*
X154225000Y-77037500D01*
X176550000Y-50750000D02*
X176550000Y-51250000D01*
X204050000Y-111600000D02*
X204050000Y-108896362D01*
X152275000Y-78012500D02*
X152275000Y-77037500D01*
X153714386Y-79312500D02*
X154000000Y-79598114D01*
X154225000Y-78987500D02*
X154225000Y-78012500D01*
X138000000Y-49750000D02*
X142180000Y-49750000D01*
X136610000Y-41110000D02*
X136500000Y-41000000D01*
X174785547Y-83750001D02*
X174185547Y-83750001D01*
X138000000Y-41110000D02*
X142180000Y-41110000D01*
X175000000Y-70210548D02*
X175000000Y-70000000D01*
X142400000Y-102400000D02*
X148000000Y-108000000D01*
X177660547Y-84178727D02*
X177000000Y-84839274D01*
X162772182Y-64550000D02*
X162472182Y-64250000D01*
X182050000Y-59500000D02*
X179000000Y-59500000D01*
X163785547Y-65062501D02*
X165000000Y-65062501D01*
X136500000Y-41000000D02*
X136500000Y-41250000D01*
X175285000Y-51385000D02*
X175850000Y-51950000D01*
X171885547Y-79925001D02*
X171910547Y-79900001D01*
X169010547Y-83737501D02*
X169010547Y-84800001D01*
X209350000Y-100304415D02*
X209350000Y-111200000D01*
X171885547Y-81450001D02*
X171885547Y-79925001D01*
X149500000Y-42362500D02*
X149500000Y-42009448D01*
X154000000Y-80500000D02*
X154500000Y-81000000D01*
X195540000Y-84540000D02*
X195500000Y-84500000D01*
X170710547Y-63462501D02*
X169248047Y-63462501D01*
X180648047Y-69200001D02*
X180648047Y-71400001D01*
X195500000Y-84500000D02*
X195500000Y-86454415D01*
X181225000Y-55200000D02*
X182312500Y-55200000D01*
X198000000Y-84540000D02*
X195540000Y-84540000D01*
X177000000Y-45500000D02*
X178500000Y-45500000D01*
X140500000Y-113600000D02*
X142400000Y-113600000D01*
X155305000Y-39730000D02*
X156750000Y-41175000D01*
X182312500Y-55200000D02*
X182362500Y-55150000D01*
X175850000Y-51950000D02*
X175850000Y-51450000D01*
X152275000Y-78987500D02*
X152275000Y-78012500D01*
X153000000Y-80000000D02*
X153000000Y-79598114D01*
X176550000Y-50750000D02*
X177250000Y-50750000D01*
X153250000Y-78987500D02*
X152275000Y-78987500D01*
X176550000Y-50250000D02*
X177250000Y-49550000D01*
X174185547Y-83750001D02*
X171885547Y-81450001D01*
X181248047Y-72000001D02*
X181248047Y-73462501D01*
X152275000Y-78012500D02*
X153250000Y-78012500D01*
X184000001Y-73500001D02*
X185000000Y-74500000D01*
X152275000Y-77037500D02*
X152050000Y-77262500D01*
X183400000Y-58150000D02*
X182050000Y-59500000D01*
X206993539Y-105812500D02*
X207581055Y-106400016D01*
X150259448Y-41250000D02*
X151500000Y-41250000D01*
X173410547Y-71800001D02*
X175000000Y-70210548D01*
X160695000Y-63420552D02*
X160695000Y-58125000D01*
X169248047Y-63462501D02*
X169210547Y-63500001D01*
X200500000Y-74537500D02*
X198962500Y-74537500D01*
X156750000Y-41175000D02*
X156750000Y-42250000D01*
X138500000Y-74000000D02*
X137000000Y-74000000D01*
X156700000Y-66700000D02*
X157500000Y-67500000D01*
X147000000Y-41000000D02*
X147487022Y-41000000D01*
X153250000Y-77037500D02*
X153500000Y-76787500D01*
X133500000Y-110500000D02*
X136600000Y-113600000D01*
X142400000Y-113600000D02*
X148000000Y-108000000D01*
X206546346Y-106400016D02*
X207581055Y-106400016D01*
X136600000Y-113600000D02*
X140500000Y-113600000D01*
X156448047Y-72980001D02*
X158190547Y-72980001D01*
X183362500Y-44962500D02*
X183000000Y-44600000D01*
X176550000Y-50750000D02*
X176550000Y-50250000D01*
X183400000Y-58150000D02*
X182312500Y-57062500D01*
X180648047Y-67950001D02*
X179698047Y-67000001D01*
X183537500Y-52250000D02*
X182362500Y-53425000D01*
X160695000Y-58125000D02*
X160095000Y-57525000D01*
X136500000Y-41250000D02*
X138000000Y-42750000D01*
X174075000Y-48845000D02*
X175145000Y-48845000D01*
X162472182Y-64250000D02*
X161524448Y-64250000D01*
X163227818Y-64550000D02*
X162772182Y-64550000D01*
X152025000Y-77762500D02*
X152275000Y-78012500D01*
X184000001Y-73500001D02*
X181210547Y-73500001D01*
X198962500Y-74537500D02*
X198000000Y-75500000D01*
X176550000Y-51250000D02*
X177250000Y-51950000D01*
X188110547Y-85610547D02*
X188000000Y-85500000D01*
X142180000Y-49750000D02*
X142180000Y-49270000D01*
X154000000Y-80000000D02*
X154000000Y-80500000D01*
X156750000Y-42250000D02*
X159750000Y-42250000D01*
X175850000Y-51450000D02*
X176550000Y-50750000D01*
X153285614Y-79312500D02*
X153714386Y-79312500D01*
X158190547Y-72980001D02*
X158210547Y-73000001D01*
X153000000Y-79237500D02*
X153250000Y-78987500D01*
X191700000Y-83750000D02*
X191700000Y-85450000D01*
X152500000Y-65000000D02*
X154899568Y-65000000D01*
X135250000Y-96000000D02*
X147750000Y-96000000D01*
X175145000Y-48845000D02*
X175850000Y-49550000D01*
X183362500Y-46000000D02*
X183362500Y-44962500D01*
X153500000Y-76787500D02*
X153500000Y-76025000D01*
X163785547Y-65062501D02*
X163250432Y-64527386D01*
X142820000Y-42230000D02*
X142820000Y-41750000D01*
X153250000Y-77037500D02*
X154225000Y-77037500D01*
X153250000Y-78012500D02*
X154225000Y-78012500D01*
X195500000Y-86454415D02*
X209350000Y-100304415D01*
X206800000Y-105812500D02*
X206993539Y-105812500D01*
%TO.N,A7*%
X150450000Y-42715552D02*
X150450000Y-42362500D01*
X146204448Y-45680000D02*
X148559448Y-43325000D01*
X142820000Y-45680000D02*
X146204448Y-45680000D01*
X149840552Y-43325000D02*
X150450000Y-42715552D01*
X148559448Y-43325000D02*
X149840552Y-43325000D01*
%TO.N,A6*%
X145732500Y-45180000D02*
X148550000Y-42362500D01*
X142820000Y-45180000D02*
X145732500Y-45180000D01*
%TO.N,USB_DP*%
X148500000Y-46500000D02*
X148500000Y-44687500D01*
X148500000Y-44687500D02*
X148550000Y-44637500D01*
X173710547Y-60039453D02*
X173750000Y-60000000D01*
X173710547Y-64000001D02*
X173710547Y-60039453D01*
%TO.N,USB_DM*%
X150500000Y-44687500D02*
X150450000Y-44637500D01*
X150500000Y-46500000D02*
X150500000Y-44687500D01*
X175710547Y-59789453D02*
X175750000Y-59750000D01*
X175710547Y-64000001D02*
X175710547Y-59789453D01*
%TO.N,VBUS_SYSTEM*%
D80*
X154852750Y-53455000D02*
X153600000Y-52202250D01*
X150500000Y-75500000D02*
X151025000Y-76025000D01*
X179868394Y-54900000D02*
X176897918Y-54900000D01*
X180012500Y-54755894D02*
X180012500Y-55644106D01*
X151437500Y-76587500D02*
X151775000Y-76250000D01*
X144300000Y-81550000D02*
X148975000Y-81550000D01*
X181462500Y-52250000D02*
X179280000Y-52250000D01*
X180518394Y-56150000D02*
X181225000Y-56150000D01*
X144000000Y-81250000D02*
X144300000Y-81550000D01*
X151775000Y-76250000D02*
X151775000Y-76025000D01*
X181225000Y-58050000D02*
X181325000Y-58150000D01*
X181225000Y-54250000D02*
X181225000Y-52487500D01*
X181225000Y-54250000D02*
X180518394Y-54250000D01*
X151262500Y-78437500D02*
X150682062Y-78437500D01*
X153600000Y-52202250D02*
X153600000Y-43400000D01*
X142307750Y-66000000D02*
X142307750Y-66307750D01*
X180012500Y-55644106D02*
X180518394Y-56150000D01*
X151025000Y-76025000D02*
X151775000Y-76025000D01*
X181225000Y-56150000D02*
X181225000Y-58050000D01*
X150325000Y-76944562D02*
X150682062Y-76587500D01*
X150682062Y-76587500D02*
X151437500Y-76587500D01*
X180518394Y-54250000D02*
X180012500Y-54755894D01*
X142307750Y-66307750D02*
X148000000Y-72000000D01*
X154852750Y-53455000D02*
X142307750Y-66000000D01*
X175452918Y-53455000D02*
X154852750Y-53455000D01*
X151262500Y-79262500D02*
X151262500Y-78437500D01*
X179280000Y-52250000D02*
X178925000Y-52605000D01*
X180384197Y-54384197D02*
X179868394Y-54900000D01*
X181225000Y-52487500D02*
X181462500Y-52250000D01*
X148975000Y-81550000D02*
X151262500Y-79262500D01*
X150682062Y-78437500D02*
X150325000Y-78080438D01*
X150325000Y-78080438D02*
X150325000Y-76944562D01*
X153600000Y-43400000D02*
X154750000Y-42250000D01*
X176897918Y-54900000D02*
X175452918Y-53455000D01*
%TO.N,Net-(D2-A)*%
D81*
X150775000Y-83725000D02*
X151000000Y-83500000D01*
X152000000Y-81500000D02*
X152000000Y-80000000D01*
X140553249Y-83725000D02*
X150775000Y-83725000D01*
X138500000Y-81250000D02*
X140350000Y-81250000D01*
X138500000Y-81250000D02*
X138500000Y-81671752D01*
X140350000Y-81250000D02*
X146100000Y-75500000D01*
X138500000Y-81671752D02*
X140553249Y-83725000D01*
%TO.N,Net-(D3-K)*%
X155237500Y-79262500D02*
X155237500Y-78812500D01*
X155000000Y-74000000D02*
X144000000Y-74000000D01*
X154100000Y-82500000D02*
X155237500Y-81362500D01*
X155237500Y-74237500D02*
X155000000Y-74000000D01*
X155237500Y-76762500D02*
X155237500Y-74237500D01*
X156089245Y-78812500D02*
X155237500Y-78812500D01*
X156367028Y-79090283D02*
X156089245Y-78812500D01*
X155237500Y-76762500D02*
X156000000Y-76000000D01*
X155237500Y-81362500D02*
X155237500Y-79262500D01*
%TO.N,-Vout*%
D79*
X156250000Y-80250000D02*
X156000000Y-80500000D01*
X157400000Y-82500000D02*
X157400000Y-80400000D01*
D82*
X178885547Y-81007413D02*
X178885547Y-84392589D01*
X194000000Y-72192588D02*
X194000000Y-87500000D01*
X158500000Y-84500000D02*
X154500000Y-84500000D01*
X176500000Y-79000000D02*
X176878134Y-79000000D01*
X193200000Y-72992588D02*
X193200000Y-74900000D01*
X194000000Y-87500000D02*
X206000000Y-99500000D01*
D79*
X157400000Y-80400000D02*
X157250000Y-80250000D01*
D82*
X177638862Y-85639274D02*
X168685547Y-85639274D01*
X159000000Y-85000000D02*
X158500000Y-84500000D01*
X193200000Y-74900000D02*
X193300000Y-75000000D01*
X178885547Y-84392589D02*
X177638862Y-85639274D01*
X155666037Y-82500000D02*
X157400000Y-82500000D01*
X194425000Y-71767588D02*
X194000000Y-72192588D01*
X195550000Y-70270000D02*
X194425000Y-71395000D01*
X194000000Y-72192588D02*
X193200000Y-72992588D01*
X155135156Y-83030881D02*
X155666037Y-82500000D01*
X194425000Y-71395000D02*
X194425000Y-71767588D01*
D79*
X157250000Y-80250000D02*
X156250000Y-80250000D01*
D82*
X176878134Y-79000000D02*
X178885547Y-81007413D01*
%TO.N,/FBN*%
D79*
X159530552Y-77300000D02*
X158849448Y-77300000D01*
X159790000Y-77040552D02*
X159530552Y-77300000D01*
X155287500Y-77687500D02*
X155237500Y-77737500D01*
X159790000Y-77000000D02*
X159790000Y-77040552D01*
X159830552Y-77000000D02*
X159790000Y-77000000D01*
X156375000Y-77163282D02*
X155900781Y-77637500D01*
X160460000Y-76370552D02*
X159830552Y-77000000D01*
X158849448Y-77300000D02*
X158665067Y-77115619D01*
X155900781Y-77637500D02*
X155764386Y-77637500D01*
X158630685Y-77150000D02*
X157250000Y-77150000D01*
X157250000Y-77150000D02*
X156375000Y-77150000D01*
X156375000Y-77150000D02*
X156375000Y-77163282D01*
X160460000Y-76025000D02*
X161730000Y-76025000D01*
X155714386Y-77687500D02*
X155287500Y-77687500D01*
X157250000Y-78250000D02*
X157250000Y-77150000D01*
X155764386Y-77637500D02*
X155714386Y-77687500D01*
X158665067Y-77115619D02*
X158630685Y-77150000D01*
X160460000Y-76025000D02*
X160460000Y-76370552D01*
%TO.N,/Vref*%
X155262500Y-77237500D02*
X155735096Y-77237500D01*
X158465000Y-76750000D02*
X159190000Y-76025000D01*
X155975000Y-76750000D02*
X158465000Y-76750000D01*
X158037500Y-62637500D02*
X160400000Y-65000000D01*
X158800000Y-75635000D02*
X159190000Y-76025000D01*
X158037500Y-61750000D02*
X158037500Y-62637500D01*
X155735096Y-77237500D02*
X155975000Y-76997596D01*
X158800000Y-74400000D02*
X158800000Y-75635000D01*
X155237500Y-77262500D02*
X155262500Y-77237500D01*
X155975000Y-76997596D02*
X155975000Y-76750000D01*
%TO.N,GNDA*%
X147112500Y-66800000D02*
X149205456Y-66800000D01*
X155962500Y-61750000D02*
X155962500Y-59537500D01*
X206477500Y-74000000D02*
X208000000Y-74000000D01*
X152500000Y-66000000D02*
X151699568Y-66000000D01*
X150500000Y-67250000D02*
X150077728Y-67672272D01*
X203250000Y-60160000D02*
X208000000Y-64910000D01*
X206460000Y-74017500D02*
X206477500Y-74000000D01*
X151450000Y-68500000D02*
X150500000Y-68500000D01*
X161730000Y-82270000D02*
X161500000Y-82500000D01*
X148840256Y-61750000D02*
X145250000Y-65340256D01*
X151450000Y-69820000D02*
X151860000Y-70230000D01*
X200710000Y-50000000D02*
X198170000Y-52540000D01*
X163000000Y-76025000D02*
X163000000Y-76999999D01*
X188237500Y-55100000D02*
X189600000Y-55100000D01*
X205595000Y-69962500D02*
X205595000Y-71595000D01*
X191587500Y-71000000D02*
X190000000Y-71000000D01*
X154500000Y-76025000D02*
X154500000Y-75000000D01*
X205595000Y-71595000D02*
X208000000Y-74000000D01*
X188000000Y-66800000D02*
X188000000Y-69000000D01*
X161365000Y-58365000D02*
X162000000Y-59000000D01*
X206000000Y-94500000D02*
X207860000Y-92640000D01*
X159100000Y-54750000D02*
X161365000Y-57015000D01*
X161730000Y-78269999D02*
X161730000Y-80975000D01*
X206460000Y-74017500D02*
X206460000Y-78000000D01*
X145250000Y-65340256D02*
X145250000Y-66662500D01*
X204000000Y-71557500D02*
X206460000Y-74017500D01*
X150077728Y-67672272D02*
X150500000Y-68094544D01*
X203250000Y-57620000D02*
X198170000Y-52540000D01*
X203250000Y-50000000D02*
X200710000Y-50000000D01*
X208000000Y-64910000D02*
X208000000Y-74000000D01*
X161730000Y-80975000D02*
X161730000Y-82270000D01*
X207860000Y-79400000D02*
X206460000Y-78000000D01*
X155962500Y-61750000D02*
X148840256Y-61750000D01*
X163000000Y-76999999D02*
X161730000Y-78269999D01*
X151699568Y-66000000D02*
X151450000Y-66249568D01*
X159100000Y-54750000D02*
X161000000Y-54750000D01*
X189600000Y-55100000D02*
X190000000Y-55500000D01*
X188000000Y-69000000D02*
X190000000Y-71000000D01*
X149205456Y-66800000D02*
X150077728Y-67672272D01*
X201790000Y-52540000D02*
X202500000Y-53250000D01*
X204000000Y-71557500D02*
X205595000Y-69962500D01*
X150500000Y-68094544D02*
X150500000Y-68500000D01*
X198170000Y-52540000D02*
X201790000Y-52540000D01*
X146250000Y-67662500D02*
X147112500Y-66800000D01*
X145250000Y-66662500D02*
X146250000Y-67662500D01*
X161365000Y-57525000D02*
X161365000Y-58365000D01*
X151450000Y-68500000D02*
X151450000Y-69820000D01*
X151450000Y-66249568D02*
X151450000Y-68500000D01*
X155962500Y-59537500D02*
X157500000Y-58000000D01*
X161365000Y-57015000D02*
X161365000Y-57525000D01*
X203250000Y-60160000D02*
X203250000Y-57620000D01*
X207860000Y-92640000D02*
X207860000Y-79400000D01*
%TO.N,/FBP*%
X152150000Y-83750000D02*
X156250000Y-83750000D01*
X156500000Y-83500000D02*
X157890118Y-83500000D01*
X143709882Y-79700000D02*
X142571752Y-79700000D01*
X144804941Y-78604941D02*
X143709882Y-79700000D01*
X156250000Y-83750000D02*
X156500000Y-83500000D01*
X158250000Y-81915000D02*
X159190000Y-80975000D01*
X149034882Y-74375000D02*
X144804941Y-78604941D01*
X151200000Y-82800000D02*
X152150000Y-83750000D01*
X142571752Y-79700000D02*
X140750000Y-81521752D01*
X153075000Y-75352818D02*
X152950000Y-75227818D01*
X153625000Y-74375000D02*
X149034882Y-74375000D01*
X152950000Y-75227818D02*
X152950000Y-74772182D01*
X157890118Y-83500000D02*
X158250000Y-83140118D01*
X158250000Y-83140118D02*
X158250000Y-81915000D01*
X147000000Y-80400000D02*
X145204941Y-78604941D01*
X141200000Y-82800000D02*
X151200000Y-82800000D01*
X140750000Y-81521752D02*
X140750000Y-83250000D01*
X152950000Y-74772182D02*
X153272182Y-74450000D01*
X145204941Y-78604941D02*
X144804941Y-78604941D01*
X153272182Y-74450000D02*
X153550000Y-74450000D01*
X140750000Y-83250000D02*
X141200000Y-82800000D01*
X160460000Y-80975000D02*
X159190000Y-80975000D01*
X153550000Y-74450000D02*
X153625000Y-74375000D01*
X153075000Y-76487500D02*
X153075000Y-75352818D01*
%TO.N,+Vout*%
D82*
X147000000Y-78400000D02*
X147000000Y-78200000D01*
D79*
X190000000Y-95000000D02*
X190500000Y-94500000D01*
X152500000Y-75000000D02*
X152000000Y-75000000D01*
X149900000Y-75000000D02*
X149400000Y-75500000D01*
D82*
X202737412Y-69935000D02*
X203500000Y-69935000D01*
D79*
X152000000Y-75000000D02*
X151575000Y-75425000D01*
X203500000Y-92000000D02*
X206000000Y-89500000D01*
D82*
X201492499Y-66442500D02*
X204000000Y-66442500D01*
D79*
X150727818Y-74950000D02*
X150272182Y-74950000D01*
X152000000Y-75000000D02*
X150777818Y-75000000D01*
X190500000Y-94500000D02*
X200000000Y-94500000D01*
D82*
X147000000Y-78200000D02*
X149400000Y-75800000D01*
X206000000Y-89500000D02*
X203500000Y-87000000D01*
D79*
X152500000Y-76025000D02*
X152500000Y-75000000D01*
D82*
X203500000Y-73180000D02*
X202737412Y-73180000D01*
D79*
X150222182Y-75000000D02*
X149900000Y-75000000D01*
X150272182Y-74950000D02*
X150222182Y-75000000D01*
X153000000Y-88500000D02*
X155000000Y-90500000D01*
X203000000Y-92000000D02*
X203500000Y-92000000D01*
D82*
X202305000Y-72747588D02*
X202305000Y-70367412D01*
D79*
X155000000Y-90500000D02*
X160500000Y-90500000D01*
D82*
X202305000Y-70367412D02*
X202737412Y-69935000D01*
X201474999Y-66460000D02*
X201492499Y-66442500D01*
X203500000Y-87000000D02*
X203500000Y-73180000D01*
X203500000Y-69935000D02*
X203500000Y-68485001D01*
X203500000Y-68485001D02*
X201474999Y-66460000D01*
X202737412Y-73180000D02*
X202305000Y-72747588D01*
D79*
X151575000Y-75425000D02*
X151500000Y-75425000D01*
D82*
X149400000Y-75800000D02*
X149400000Y-75500000D01*
D79*
X150777818Y-75000000D02*
X150727818Y-74950000D01*
D82*
X201474999Y-66460000D02*
X200500000Y-66460000D01*
%TO.N,Net-(BZ1--)*%
D81*
X206500000Y-110250000D02*
X206500000Y-108937500D01*
X206500000Y-108937500D02*
X207750000Y-107687500D01*
%TO.N,XOUT*%
D79*
X177660547Y-81662501D02*
X173210547Y-77212501D01*
X173210547Y-77212501D02*
X173210547Y-75237501D01*
X177660547Y-81662501D02*
X174998047Y-81662501D01*
%TO.N,+5V_RAW*%
D80*
X172500000Y-49218394D02*
X172500000Y-48371606D01*
X172550000Y-49662316D02*
X172675000Y-49537316D01*
X172675000Y-48100894D02*
X173080894Y-47695000D01*
X163561702Y-50250000D02*
X165000000Y-50250000D01*
X171125000Y-49500000D02*
X172524106Y-48100894D01*
X165000000Y-50250000D02*
X166250000Y-49000000D01*
X172675000Y-49393394D02*
X172500000Y-49218394D01*
X173725000Y-52355000D02*
X173505000Y-52135000D01*
X162312500Y-49000798D02*
X163561702Y-50250000D01*
X173080894Y-47695000D02*
X178300000Y-47695000D01*
X174200000Y-52355000D02*
X173725000Y-52355000D01*
X168625000Y-49500000D02*
X171125000Y-49500000D01*
X172876606Y-52135000D02*
X172500000Y-51758394D01*
X172675000Y-50592684D02*
X172550000Y-50467684D01*
X173505000Y-52135000D02*
X172876606Y-52135000D01*
X172550000Y-50467684D02*
X172550000Y-49662316D01*
X172524106Y-48100894D02*
X172675000Y-48100894D01*
X166250000Y-49000000D02*
X168000000Y-49000000D01*
X172675000Y-50736606D02*
X172675000Y-50592684D01*
X168000000Y-49000000D02*
X168500000Y-49500000D01*
X172500000Y-50911606D02*
X172675000Y-50736606D01*
X178300000Y-47695000D02*
X179150000Y-48545000D01*
X172675000Y-48196606D02*
X172675000Y-48100894D01*
X162312500Y-48750000D02*
X162312500Y-49000798D01*
X172500000Y-48371606D02*
X172675000Y-48196606D01*
X172500000Y-51758394D02*
X172500000Y-50911606D01*
X172675000Y-49537316D02*
X172675000Y-49393394D01*
%TO.N,Net-(J7-Pin_8)*%
D81*
X171638219Y-89000002D02*
X172370546Y-89000002D01*
X164250000Y-49000000D02*
X163750000Y-48500000D01*
X172370546Y-89000002D02*
X172870547Y-88500001D01*
X163750000Y-47750000D02*
X164500000Y-47000000D01*
X163750000Y-48500000D02*
X163750000Y-47750000D01*
X164500000Y-47000000D02*
X181000000Y-47000000D01*
X181000000Y-47000000D02*
X184500000Y-50500000D01*
%TO.N,Net-(D8-A)*%
X167525000Y-52875000D02*
X168500000Y-51900000D01*
X165250000Y-52875000D02*
X167525000Y-52875000D01*
X164175000Y-51800000D02*
X165250000Y-52875000D01*
%TO.N,Net-(SW1-A)*%
X192200000Y-51550000D02*
X193000000Y-50750000D01*
X192200000Y-53000000D02*
X192200000Y-51550000D01*
%TO.N,Net-(SW1-C)*%
X188500000Y-51200000D02*
X188500000Y-50750000D01*
D79*
X194800000Y-57144544D02*
X193305456Y-55650000D01*
X189307044Y-67850000D02*
X188962500Y-67505456D01*
D81*
X190300000Y-53000000D02*
X188500000Y-51200000D01*
D79*
X194455456Y-60700000D02*
X194800000Y-60355456D01*
X190342956Y-67850000D02*
X189307044Y-67850000D01*
X188962500Y-64782044D02*
X193044544Y-60700000D01*
X191587500Y-65000000D02*
X191587500Y-66605456D01*
X188962500Y-67505456D02*
X188962500Y-64782044D01*
X194800000Y-60355456D02*
X194800000Y-57144544D01*
X190300000Y-53387562D02*
X190300000Y-53000000D01*
X193044544Y-60700000D02*
X194455456Y-60700000D01*
X193305456Y-55650000D02*
X192562438Y-55650000D01*
X192562438Y-55650000D02*
X190300000Y-53387562D01*
X191587500Y-66605456D02*
X190342956Y-67850000D01*
%TO.N,Net-(D8-K)*%
D81*
X169215810Y-50525000D02*
X169925000Y-51234190D01*
X169925000Y-51234190D02*
X169925000Y-52115810D01*
X178165000Y-51335000D02*
X178925000Y-51335000D01*
X167500000Y-50525000D02*
X169215810Y-50525000D01*
X169925000Y-52115810D02*
X170564190Y-52755000D01*
X178165000Y-51335000D02*
X178000000Y-51500000D01*
X166225000Y-51800000D02*
X167500000Y-50525000D01*
X170564190Y-52755000D02*
X171200000Y-52755000D01*
%TO.N,Net-(U8-RUN)*%
X147750000Y-91000000D02*
X148250000Y-91500000D01*
X148250000Y-91500000D02*
X171500000Y-91500000D01*
D79*
X175210547Y-75237501D02*
X175210547Y-76285143D01*
D81*
X171500000Y-91500000D02*
X173000000Y-93000000D01*
X132000000Y-91000000D02*
X135250000Y-91000000D01*
D79*
X175210547Y-76285143D02*
X175063531Y-76432159D01*
D81*
X135250000Y-91000000D02*
X147750000Y-91000000D01*
%TO.N,BUZZER_CTRL*%
D79*
X169931801Y-75931801D02*
X170316499Y-75931801D01*
X170316499Y-75931801D02*
X170760547Y-76375849D01*
X171550000Y-73772182D02*
X171400000Y-73622182D01*
X167474201Y-90050001D02*
X166400547Y-88976347D01*
X171400000Y-73622182D02*
X171400000Y-72900000D01*
X188188514Y-106250000D02*
X171988515Y-90050001D01*
X202750000Y-106250000D02*
X188188514Y-106250000D01*
X170799999Y-73200001D02*
X169973047Y-73200001D01*
X171400000Y-72900000D02*
X171250000Y-72750000D01*
X171988515Y-90050001D02*
X167474201Y-90050001D01*
X171550000Y-74048532D02*
X171550000Y-73772182D01*
X171250000Y-72750000D02*
X170799999Y-73200001D01*
X166400547Y-88023655D02*
X163000000Y-84623108D01*
X172001468Y-74500000D02*
X171550000Y-74048532D01*
X166400547Y-88976347D02*
X166400547Y-88023655D01*
X163000000Y-84623108D02*
X163000000Y-82750000D01*
X172703796Y-74500000D02*
X172001468Y-74500000D01*
X172753791Y-74450005D02*
X172703796Y-74500000D01*
%TO.N,Net-(Q2-B)*%
D81*
X208700000Y-105812500D02*
X207587500Y-104700000D01*
X207587500Y-104700000D02*
X206300000Y-104700000D01*
X206300000Y-104700000D02*
X204750000Y-106250000D01*
%TO.N,XIN*%
D79*
X169010547Y-81662501D02*
X169798047Y-81662501D01*
X169798047Y-81662501D02*
X171885547Y-83750001D01*
X172810547Y-77200001D02*
X172810547Y-75237501D01*
X169010547Y-81662501D02*
X169010547Y-81000001D01*
X169010547Y-81000001D02*
X172810547Y-77200001D01*
%TO.N,Net-(U1B--)*%
X199525001Y-69000000D02*
X200500000Y-69000000D01*
X197800000Y-63550000D02*
X198500000Y-64250000D01*
X189825000Y-65194544D02*
X191469544Y-63550000D01*
X189825000Y-66800000D02*
X189825000Y-65194544D01*
X191469544Y-63550000D02*
X197800000Y-63550000D01*
X198500000Y-67974999D02*
X199525001Y-69000000D01*
X198500000Y-64250000D02*
X198500000Y-67974999D01*
%TO.N,SWEEP_PWM*%
X168898958Y-76898958D02*
X168500000Y-76500000D01*
X169237500Y-74000001D02*
X169973047Y-74000001D01*
X173654201Y-91150001D02*
X172154201Y-89650001D01*
X169180547Y-88976347D02*
X169180547Y-87915687D01*
X190938365Y-91150001D02*
X173654201Y-91150001D01*
X172154201Y-89650001D02*
X169854201Y-89650001D01*
X168500000Y-76500000D02*
X168500000Y-75687501D01*
X169000000Y-74237501D02*
X169237500Y-74000001D01*
X169180547Y-87915687D02*
X167585547Y-86320686D01*
X167585547Y-86320686D02*
X167585547Y-80914453D01*
X194776262Y-64000000D02*
X192915256Y-64000000D01*
X169854201Y-89650001D02*
X169180547Y-88976347D01*
X170398958Y-76898958D02*
X168898958Y-76898958D01*
X192915256Y-64000000D02*
X192600000Y-64315256D01*
X192600000Y-64315256D02*
X192600000Y-89488366D01*
X167585547Y-80914453D02*
X169000000Y-79500000D01*
X196500000Y-72500000D02*
X196925000Y-72075000D01*
X196925000Y-72075000D02*
X196925000Y-66148738D01*
X192600000Y-89488366D02*
X190938365Y-91150001D01*
X196925000Y-66148738D02*
X194776262Y-64000000D01*
%TO.N,V_filtered*%
X200500000Y-72462500D02*
X200500000Y-70270000D01*
X198537500Y-72462500D02*
X198500000Y-72500000D01*
X200500000Y-72462500D02*
X198537500Y-72462500D01*
%TO.N,Net-(D6-K)*%
D81*
X154750000Y-51650000D02*
X157750000Y-51650000D01*
%TO.N,A4*%
D79*
X148600000Y-41400000D02*
X149870000Y-40130000D01*
X154460456Y-40130000D02*
X155700000Y-41369544D01*
X148209448Y-41400000D02*
X148600000Y-41400000D01*
X155700000Y-41369544D02*
X155700000Y-47400000D01*
X140400000Y-46085406D02*
X140400000Y-44200000D01*
X149870000Y-40130000D02*
X154460456Y-40130000D01*
X142144594Y-47830000D02*
X140400000Y-46085406D01*
X142820000Y-47830000D02*
X142144594Y-47830000D01*
X147950000Y-41659448D02*
X148209448Y-41400000D01*
X140400000Y-44200000D02*
X140974594Y-44200000D01*
X147950000Y-42000000D02*
X147950000Y-41659448D01*
X142820000Y-43030000D02*
X146305552Y-43030000D01*
X147335552Y-42000000D02*
X147950000Y-42000000D01*
X146305552Y-43030000D02*
X147335552Y-42000000D01*
X142144594Y-43030000D02*
X142820000Y-43030000D01*
X140974594Y-44200000D02*
X142144594Y-43030000D01*
X155700000Y-47400000D02*
X154750000Y-48350000D01*
%TO.N,ADC_SCLK*%
X171106906Y-71000000D02*
X170506907Y-70400001D01*
X163000000Y-64000000D02*
X163000000Y-62840000D01*
X171360545Y-71000000D02*
X171106906Y-71000000D01*
X163000000Y-62840000D02*
X162635000Y-62475000D01*
X170506907Y-70400001D02*
X169973047Y-70400001D01*
%TO.N,ADC_MISO*%
X161365000Y-62475000D02*
X161365000Y-62129448D01*
X166500000Y-63454448D02*
X166500000Y-66500000D01*
X162294448Y-61200000D02*
X164245552Y-61200000D01*
X169300001Y-70800001D02*
X169973047Y-70800001D01*
X161365000Y-62129448D02*
X162294448Y-61200000D01*
X164245552Y-61200000D02*
X166500000Y-63454448D01*
X168500000Y-70000000D02*
X169300001Y-70800001D01*
%TO.N,I2C_SDA*%
X166535547Y-70469861D02*
X166532843Y-70467157D01*
X166121524Y-71529946D02*
X166535547Y-71115922D01*
X170700001Y-71200001D02*
X169973047Y-71200001D01*
X168348528Y-73000002D02*
X168248526Y-72900000D01*
X166551471Y-72900000D02*
X165900000Y-72248529D01*
X165900000Y-72248529D02*
X165900000Y-71529947D01*
X166535547Y-71115922D02*
X166535547Y-70469861D01*
X170921878Y-71608338D02*
X171000000Y-71530216D01*
X156700000Y-65000000D02*
X158934314Y-65000000D01*
X165900000Y-71529947D02*
X166121524Y-71529946D01*
X166532843Y-70467157D02*
X166532843Y-70020090D01*
X158934314Y-65000000D02*
X161662522Y-67728208D01*
X161662522Y-67728208D02*
X161662522Y-70980532D01*
X166532843Y-70020090D02*
X166429481Y-69916728D01*
X171000000Y-71530216D02*
X171000000Y-71500000D01*
X171000000Y-71500000D02*
X170700001Y-71200001D01*
X168248526Y-72900000D02*
X166551471Y-72900000D01*
%TO.N,I2C_SCL*%
X167950000Y-72050000D02*
X167950000Y-71772182D01*
X167950000Y-71772182D02*
X168272182Y-71450000D01*
X168877818Y-71600000D02*
X169973047Y-71600001D01*
X162461197Y-67961197D02*
X162461197Y-71026605D01*
X166500000Y-72000000D02*
X167000000Y-72500000D01*
X156700000Y-64500000D02*
X159000000Y-64500000D01*
X168272182Y-71450000D02*
X168727818Y-71450000D01*
X159000000Y-64500000D02*
X162461197Y-67961197D01*
X168727818Y-71450000D02*
X168877818Y-71600000D01*
X167500000Y-72500000D02*
X167950000Y-72050000D01*
X167000000Y-72500000D02*
X167500000Y-72500000D01*
%TO.N,ADC_CS*%
X165549998Y-66250001D02*
X165799997Y-66500000D01*
X160095000Y-62475000D02*
X160095000Y-63449999D01*
X168500000Y-72000000D02*
X169973047Y-72000001D01*
X162895002Y-66250001D02*
X165549998Y-66250001D01*
X160095000Y-63449999D02*
X162895002Y-66250001D01*
%TO.N,RANGE_SELECT*%
X151860000Y-71500000D02*
X153000000Y-71500000D01*
X153000000Y-71500000D02*
X154500000Y-73000000D01*
X169973047Y-72400001D02*
X169439187Y-72400001D01*
X169000000Y-72839188D02*
X169000000Y-73000000D01*
X169439187Y-72400001D02*
X169000000Y-72839188D01*
%TO.N,CURRENT_ALERT*%
X168751471Y-73637501D02*
X168962500Y-73637501D01*
X161062522Y-71229061D02*
X161551869Y-71718408D01*
X168400000Y-73988972D02*
X168751471Y-73637501D01*
X161551869Y-71718408D02*
X162059435Y-71718408D01*
X168962500Y-73637501D02*
X169000000Y-73600001D01*
X168400000Y-74000000D02*
X168400000Y-73988972D01*
X165500000Y-73000000D02*
X166500000Y-74000000D01*
X169000000Y-73600001D02*
X169973047Y-73600001D01*
X156700000Y-65500000D02*
X158762522Y-65500000D01*
X161262522Y-68000000D02*
X161062522Y-68200000D01*
X166500000Y-74000000D02*
X168400000Y-74000000D01*
X158762522Y-65500000D02*
X161262522Y-68000000D01*
X161062522Y-68200000D02*
X161062522Y-71229061D01*
%TO.N,ROT_B*%
X165880552Y-74750000D02*
X166130552Y-75000000D01*
X165199448Y-74750000D02*
X165880552Y-74750000D01*
X165500000Y-79000000D02*
X163359448Y-79000000D01*
X163670000Y-77170000D02*
X163670000Y-75009448D01*
X164949448Y-75000000D02*
X165199448Y-74750000D01*
X163359448Y-79000000D02*
X162330000Y-80029448D01*
X167334933Y-74934381D02*
X167431814Y-74837501D01*
X162330000Y-86253108D02*
X164100547Y-88023655D01*
X167431814Y-74837501D02*
X169535547Y-74837501D01*
X163929448Y-74750000D02*
X164610552Y-74750000D01*
X166469448Y-74750000D02*
X167150552Y-74750000D01*
X169535547Y-74837501D02*
X169973047Y-74400001D01*
X162330000Y-80029448D02*
X162330000Y-86253108D01*
X163670000Y-75009448D02*
X163929448Y-74750000D01*
X164100547Y-89600547D02*
X165025000Y-90525000D01*
X173650000Y-92730761D02*
X173650000Y-93269239D01*
X166219448Y-75000000D02*
X166469448Y-74750000D01*
X171444239Y-90525000D02*
X173650000Y-92730761D01*
X164860552Y-75000000D02*
X164949448Y-75000000D01*
X165500000Y-79000000D02*
X163670000Y-77170000D01*
X164610552Y-74750000D02*
X164860552Y-75000000D01*
X161419239Y-105500000D02*
X148000000Y-105500000D01*
X173650000Y-93269239D02*
X161419239Y-105500000D01*
X164100547Y-88023655D02*
X164100547Y-89600547D01*
X166130552Y-75000000D02*
X166219448Y-75000000D01*
X167150552Y-74750000D02*
X167334933Y-74934381D01*
X165025000Y-90525000D02*
X171444239Y-90525000D01*
%TO.N,POT_SPI_CS*%
X166810000Y-76025000D02*
X167597499Y-75237501D01*
X167597499Y-75237501D02*
X170810547Y-75237501D01*
%TO.N,POT_SPI_SCK*%
X171210547Y-76723767D02*
X171210547Y-75237501D01*
X166040001Y-77500000D02*
X170434314Y-77500000D01*
X165540000Y-76025000D02*
X165540000Y-76999999D01*
X165540000Y-76999999D02*
X166040001Y-77500000D01*
X170434314Y-77500000D02*
X171210547Y-76723767D01*
%TO.N,POT_SPI_MOSI*%
X165270001Y-78000000D02*
X170500000Y-78000000D01*
X171610547Y-76889453D02*
X171610547Y-75237501D01*
X170500000Y-78000000D02*
X171610547Y-76889453D01*
X164270000Y-76999999D02*
X165270001Y-78000000D01*
X164270000Y-76025000D02*
X164270000Y-76999999D01*
%TO.N,TFT_MISO*%
X172010547Y-77200001D02*
X172010547Y-75237501D01*
X167985547Y-81090257D02*
X168300803Y-80775001D01*
X168435547Y-80775001D02*
X172010547Y-77200001D01*
X168300803Y-80775001D02*
X168435547Y-80775001D01*
X167985547Y-86155001D02*
X167985547Y-81090257D01*
X170330547Y-88500001D02*
X167985547Y-86155001D01*
%TO.N,+1.1V*%
X173210547Y-67084745D02*
X173210547Y-68362501D01*
X175458046Y-67581142D02*
X175210547Y-67828641D01*
X175490340Y-67581142D02*
X175458046Y-67581142D01*
X171663303Y-65537501D02*
X173210547Y-67084745D01*
X175210547Y-67828641D02*
X175210547Y-68362501D01*
X174010547Y-74400001D02*
X174010547Y-75237501D01*
X173210547Y-68362501D02*
X173210547Y-69300001D01*
X170710547Y-65537501D02*
X171663303Y-65537501D01*
%TO.N,SWCLK*%
X174997487Y-77002513D02*
X175000000Y-77000000D01*
X176000000Y-77000000D02*
X176750000Y-76250000D01*
X174900000Y-76834314D02*
X174900000Y-76905026D01*
X194960000Y-79460000D02*
X198000000Y-79460000D01*
X174410547Y-75910547D02*
X174500000Y-76000000D01*
X174410547Y-75237501D02*
X174410547Y-75910547D01*
X194750000Y-79250000D02*
X194960000Y-79460000D01*
X174900000Y-76905026D02*
X174997487Y-77002513D01*
X174665686Y-76600000D02*
X174900000Y-76834314D01*
X175000000Y-77000000D02*
X176000000Y-77000000D01*
X174500000Y-76000000D02*
X174500000Y-76600000D01*
X174500000Y-76600000D02*
X174665686Y-76600000D01*
%TO.N,SWD*%
X175500000Y-78000000D02*
X174500000Y-77000000D01*
X175000000Y-74500000D02*
X174810547Y-74689453D01*
X174810547Y-74689453D02*
X174810547Y-75237501D01*
X175500000Y-74500000D02*
X175000000Y-74500000D01*
X198000000Y-82000000D02*
X195000000Y-82000000D01*
X178000000Y-78000000D02*
X175500000Y-78000000D01*
%TO.N,TFT_SCLK*%
X175610547Y-75237501D02*
X175610547Y-76500000D01*
%TO.N,TFT_MOSI*%
X177950547Y-88500001D02*
X181210547Y-85240001D01*
X176729297Y-75237501D02*
X176010547Y-75237501D01*
X181210547Y-85240001D02*
X181210547Y-79718751D01*
X181210547Y-79718751D02*
X176729297Y-75237501D01*
%TO.N,TFT_CS*%
X185570547Y-88500001D02*
X186310547Y-87760001D01*
X186310547Y-87760001D02*
X186310547Y-83900001D01*
X176848047Y-74437501D02*
X176848047Y-74400001D01*
X186310547Y-83900001D02*
X176848047Y-74437501D01*
%TO.N,TFT_DC*%
X177381907Y-74000001D02*
X176848047Y-74000001D01*
X186666563Y-87969671D02*
X187210547Y-87425687D01*
X180490547Y-88500001D02*
X181640547Y-89650001D01*
X181640547Y-89650001D02*
X186046893Y-89650001D01*
X186720547Y-88976347D02*
X186720547Y-88023655D01*
X177585547Y-74475001D02*
X177585547Y-74203641D01*
X186046893Y-89650001D02*
X186720547Y-88976347D01*
X186720547Y-88023655D02*
X186666563Y-87969671D01*
X187210547Y-84100001D02*
X177585547Y-74475001D01*
X177585547Y-74203641D02*
X177381907Y-74000001D01*
X187210547Y-87425687D02*
X187210547Y-84100001D01*
%TO.N,TFT_RST*%
X187736893Y-90500001D02*
X180864201Y-90500001D01*
X179340547Y-88976347D02*
X179340547Y-88023655D01*
X189260547Y-85550001D02*
X189260547Y-88976347D01*
X177985547Y-74275001D02*
X189260547Y-85550001D01*
X180864201Y-90500001D02*
X179340547Y-88976347D01*
X176848047Y-73600001D02*
X177547592Y-73600001D01*
X179340547Y-88023655D02*
X180014201Y-87350001D01*
X180014201Y-87350001D02*
X181880547Y-87350001D01*
X177547592Y-73600001D02*
X177985547Y-74037955D01*
X181880547Y-87350001D02*
X183030547Y-88500001D01*
X189260547Y-88976347D02*
X187736893Y-90500001D01*
X177985547Y-74037955D02*
X177985547Y-74275001D01*
%TO.N,ROT_A*%
X175810547Y-73200001D02*
X176848047Y-73200001D01*
X152000000Y-110500000D02*
X153000000Y-109500000D01*
X148000000Y-110500000D02*
X152000000Y-110500000D01*
X172799999Y-73700001D02*
X175310547Y-73700001D01*
X175310547Y-73700001D02*
X175810547Y-73200001D01*
X172599997Y-73900003D02*
X172799999Y-73700001D01*
X172250000Y-73900003D02*
X172599997Y-73900003D01*
%TO.N,ROT_SW*%
X176848047Y-72400001D02*
X177950000Y-72400001D01*
X177950000Y-72400001D02*
X178000000Y-72350001D01*
%TO.N,ALERT_LED*%
X177575803Y-72000001D02*
X176848047Y-72000001D01*
X178600803Y-70975001D02*
X177575803Y-72000001D01*
X181337017Y-74475000D02*
X180060547Y-73198530D01*
X180060547Y-71290257D02*
X179745291Y-70975001D01*
X182500000Y-74475000D02*
X181337017Y-74475000D01*
X180060547Y-73198530D02*
X180060547Y-71290257D01*
X179745291Y-70975001D02*
X178600803Y-70975001D01*
%TO.N,+3V3_ANALOG*%
X178210547Y-67000001D02*
X177373047Y-67000001D01*
X177373047Y-67000001D02*
X176010547Y-68362501D01*
X178210547Y-67000001D02*
X178210547Y-64789453D01*
X178210547Y-64789453D02*
X178250000Y-64750000D01*
%TO.N,USB_D_M*%
X174810547Y-68362501D02*
X174810547Y-66900001D01*
X174810547Y-66900001D02*
X175710547Y-66000001D01*
%TO.N,USB_D_P*%
X174410547Y-66700001D02*
X174410547Y-68362501D01*
X173710547Y-66000001D02*
X174410547Y-66700001D01*
%TO.N,QSPI_IO3*%
X172810547Y-67497270D02*
X172810547Y-68362501D01*
X164735547Y-69264453D02*
X167174999Y-66825001D01*
X163623047Y-70440001D02*
X163623047Y-70376953D01*
X164735547Y-69528577D02*
X164735547Y-69264453D01*
X172138279Y-66825001D02*
X172810547Y-67497270D01*
X167174999Y-66825001D02*
X172138279Y-66825001D01*
X164204999Y-69795001D02*
X164469123Y-69795001D01*
X163623047Y-70376953D02*
X164204999Y-69795001D01*
X164469123Y-69795001D02*
X164735547Y-69528577D01*
%TO.N,QSPI_CLK*%
X165135547Y-69694262D02*
X165135547Y-69430139D01*
X164469123Y-71065001D02*
X164735547Y-70798577D01*
X164000000Y-71065001D02*
X164469123Y-71065001D01*
X163623047Y-71065001D02*
X164000000Y-71065001D01*
X164735547Y-70094262D02*
X165135547Y-69694262D01*
X163623047Y-71710001D02*
X163623047Y-71065001D01*
X171972593Y-67225001D02*
X172410547Y-67662955D01*
X167340685Y-67225001D02*
X171972593Y-67225001D01*
X164735547Y-70798577D02*
X164735547Y-70094262D01*
X165135547Y-69430139D02*
X167340685Y-67225001D01*
X172410547Y-67828641D02*
X172410547Y-68362501D01*
X172410547Y-67662955D02*
X172410547Y-67828641D01*
%TO.N,QSPI_IO0*%
X164469123Y-72335001D02*
X164735547Y-72068577D01*
X164735547Y-72068577D02*
X164735547Y-71364262D01*
X165135547Y-70964262D02*
X165135547Y-70259948D01*
X167506371Y-67625001D02*
X171806907Y-67625001D01*
X164735547Y-71364262D02*
X165135547Y-70964262D01*
X163623047Y-72335001D02*
X164469123Y-72335001D01*
X165135547Y-70259948D02*
X165535547Y-69859947D01*
X171806907Y-67625001D02*
X172010547Y-67828641D01*
X165535547Y-69859947D02*
X165535547Y-69595825D01*
X172010547Y-67828641D02*
X172010547Y-68600001D01*
X165535547Y-69595825D02*
X167506371Y-67625001D01*
X163623047Y-72980001D02*
X163623047Y-72335001D01*
%TO.N,QSPI_IO2*%
X171735547Y-69222183D02*
X171610547Y-69097183D01*
X171610547Y-69097183D02*
X171610547Y-68362501D01*
X159210547Y-71750001D02*
X159170547Y-71710001D01*
X159170547Y-71710001D02*
X156448047Y-71710001D01*
X171210547Y-70202819D02*
X171735547Y-69677819D01*
X171735547Y-69677819D02*
X171735547Y-69222183D01*
X171210547Y-70250001D02*
X171210547Y-70202819D01*
%TO.N,QSPI_IO1*%
X158620547Y-70440001D02*
X156448047Y-70440001D01*
X171185547Y-69450001D02*
X171210547Y-69425001D01*
X171210547Y-69425001D02*
X171210547Y-68362501D01*
X158710547Y-70350001D02*
X158620547Y-70440001D01*
%TO.N,QSPI_CS*%
X156448047Y-69170001D02*
X158341971Y-69170001D01*
X162776971Y-73605001D02*
X164469123Y-73605001D01*
X158341971Y-69170001D02*
X162776971Y-73605001D01*
X164735547Y-73338577D02*
X164735547Y-72634262D01*
X166287018Y-69422794D02*
X166287018Y-69410040D01*
X164735547Y-72634262D02*
X165135547Y-72234262D01*
X166135547Y-70950237D02*
X166135547Y-70635547D01*
X165935547Y-70435547D02*
X165935547Y-69774265D01*
X166135547Y-70635547D02*
X165935547Y-70435547D01*
X165935547Y-69774265D02*
X166287018Y-69422794D01*
X165135547Y-72234262D02*
X165135547Y-71529948D01*
X167334557Y-68362501D02*
X170810547Y-68362501D01*
X164469123Y-73605001D02*
X164735547Y-73338577D01*
X165535547Y-71129947D02*
X165955838Y-71129947D01*
X166287018Y-69410040D02*
X167334557Y-68362501D01*
X165135547Y-71529948D02*
X165535547Y-71129947D01*
X165955838Y-71129947D02*
X166135547Y-70950237D01*
%TO.N,/Non-inv Input OpAmp*%
X194000000Y-69000000D02*
X195550000Y-69000000D01*
X194575001Y-69000000D02*
X195550000Y-69000000D01*
X193412500Y-69587500D02*
X194000000Y-69000000D01*
X193412500Y-65000000D02*
X193412500Y-67837499D01*
X193412500Y-71000000D02*
X193412500Y-69587500D01*
X193412500Y-67837499D02*
X194575001Y-69000000D01*
%TO.N,Net-(U1A--)*%
D81*
X195550000Y-66460000D02*
X195410000Y-66600000D01*
X171112500Y-57800000D02*
X170912500Y-57600000D01*
X195550000Y-67730000D02*
X195550000Y-66460000D01*
X172200000Y-57800000D02*
X171112500Y-57800000D01*
X195410000Y-66600000D02*
X194062500Y-66600000D01*
%TO.N,/+IN_ADC*%
D79*
X162900000Y-55250000D02*
X162400000Y-54750000D01*
X166737500Y-55250000D02*
X169087500Y-57600000D01*
X162635000Y-57525000D02*
X162635000Y-54985000D01*
X165600000Y-55250000D02*
X162900000Y-55250000D01*
X162635000Y-54985000D02*
X162400000Y-54750000D01*
X165600000Y-55250000D02*
X166737500Y-55250000D01*
%TO.N,Net-(J1-In)*%
D81*
X190000000Y-50750000D02*
X191325000Y-52075000D01*
X191325000Y-53740810D02*
X192664190Y-55080000D01*
X191325000Y-52075000D02*
X191325000Y-53740810D01*
X192664190Y-55080000D02*
X198170000Y-55080000D01*
%TO.N,CURRENT_IN*%
D79*
X153550000Y-66250432D02*
X153300432Y-66500000D01*
X153300432Y-66500000D02*
X152500000Y-66500000D01*
X152500000Y-65500000D02*
X153300432Y-65500000D01*
X153550000Y-65749568D02*
X153550000Y-66250432D01*
X148500000Y-65837500D02*
X149162500Y-65837500D01*
X151500000Y-65500000D02*
X152500000Y-65500000D01*
X149162500Y-65837500D02*
X150500000Y-64500000D01*
X150500000Y-64500000D02*
X151500000Y-65500000D01*
X153300432Y-65500000D02*
X153550000Y-65749568D01*
X146250000Y-65837500D02*
X148500000Y-65837500D01*
%TO.N,Net-(D7-K)*%
D81*
X185175000Y-50779595D02*
X184779595Y-51175000D01*
X185175000Y-50220405D02*
X185175000Y-50779595D01*
X171850000Y-45400000D02*
X172825000Y-44425000D01*
X179379595Y-44425000D02*
X185175000Y-50220405D01*
X172825000Y-44425000D02*
X179379595Y-44425000D01*
X184220405Y-51175000D02*
X183110405Y-50065000D01*
D79*
X178925000Y-50065000D02*
X183110405Y-50065000D01*
D81*
X184779595Y-51175000D02*
X184220405Y-51175000D01*
%TO.N,Net-(D7-A)*%
X171000000Y-50650000D02*
X171000000Y-51500000D01*
X169800000Y-45400000D02*
X168400000Y-45400000D01*
%TO.N,Net-(D5-K)*%
X184975000Y-76525000D02*
X185000000Y-76500000D01*
X182500000Y-76525000D02*
X184975000Y-76525000D01*
%TO.N,Net-(Q1-D)*%
D79*
X151635000Y-72770000D02*
X151860000Y-72770000D01*
X148500000Y-69635000D02*
X151635000Y-72770000D01*
X148500000Y-67662500D02*
X148500000Y-69635000D01*
%TO.N,Net-(D4-K)*%
X190250000Y-60025000D02*
X193475000Y-60025000D01*
X193475000Y-60025000D02*
X193750000Y-59750000D01*
D81*
X190337500Y-59925000D02*
X190362500Y-59900000D01*
%TO.N,Net-(F1-Pad2)*%
X157850000Y-48750000D02*
X157750000Y-48850000D01*
X160187500Y-48750000D02*
X157850000Y-48750000D01*
%TO.N,V_SWEEP*%
D79*
X199125000Y-65450000D02*
X199125000Y-67475000D01*
X199150000Y-67500000D02*
X200270000Y-67500000D01*
X199125000Y-67475000D02*
X199150000Y-67500000D01*
X200270000Y-67500000D02*
X200500000Y-67730000D01*
X200325000Y-64250000D02*
X199125000Y-65450000D01*
%TO.N,Net-(J3-CC1)*%
D81*
X142840000Y-44200000D02*
X142820000Y-44180000D01*
X145000000Y-41000000D02*
X145000000Y-42180000D01*
X145000000Y-42180000D02*
X145200000Y-42380000D01*
X144400000Y-44200000D02*
X142840000Y-44200000D01*
%TO.N,Net-(U10-PROG)*%
X173975000Y-50065000D02*
X174274998Y-50065000D01*
X174274998Y-50065000D02*
X174694998Y-50485000D01*
X174750000Y-45750000D02*
X175000000Y-45500000D01*
X173500000Y-45750000D02*
X174750000Y-45750000D01*
%TO.N,Net-(J3-CC2)*%
D79*
X145180000Y-47180000D02*
X142820000Y-47180000D01*
X145200000Y-47200000D02*
X145180000Y-47180000D01*
%TO.N,/Vref_ADC*%
X186362500Y-56784744D02*
X183147244Y-60000000D01*
X186362500Y-56050000D02*
X186362500Y-56784744D01*
X173025803Y-64900001D02*
X172710547Y-64584745D01*
X181295292Y-60000000D02*
X176395291Y-64900001D01*
X176395291Y-64900001D02*
X173025803Y-64900001D01*
X183147244Y-60000000D02*
X181295292Y-60000000D01*
X167469860Y-57525000D02*
X163905000Y-57525000D01*
X172710547Y-62765687D02*
X167469860Y-57525000D01*
X172710547Y-64584745D02*
X172710547Y-62765687D01*
%TD*%
M02*
