%TF.GenerationSoftware,KiCad,Pcbnew,10.0.3*%
%TF.CreationDate,2026-06-19T17:22:03+05:30*%
%TF.ProjectId,Auralab_Workstation_Vishal,41757261-6c61-4625-9f57-6f726b737461,rev?*%
%TF.SameCoordinates,Original*%
%TF.FileFunction,Soldermask,Bot*%
%TF.FilePolarity,Negative*%
%FSLAX46Y46*%
G04 Gerber Fmt 4.6, Leading zero omitted, Abs format (unit mm)*
G04 Created by KiCad (PCBNEW 10.0.3) date 2026-06-19 17:22:03*
%MOMM*%
%LPD*%
G01*
G04 APERTURE LIST*
G04 Aperture macros list*
%AMRoundRect*
0 Rectangle with rounded corners*
0 $1 Rounding radius*
0 $2 $3 $4 $5 $6 $7 $8 $9 X,Y pos of 4 corners*
0 Add a 4 corners polygon primitive as box body*
4,1,4,$2,$3,$4,$5,$6,$7,$8,$9,$2,$3,0*
0 Add four circle primitives for the rounded corners*
1,1,$1+$1,$2,$3*
1,1,$1+$1,$4,$5*
1,1,$1+$1,$6,$7*
1,1,$1+$1,$8,$9*
0 Add four rect primitives between the rounded corners*
20,1,$1+$1,$2,$3,$4,$5,0*
20,1,$1+$1,$4,$5,$6,$7,0*
20,1,$1+$1,$6,$7,$8,$9,0*
20,1,$1+$1,$8,$9,$2,$3,0*%
G04 Aperture macros list end*
%ADD10RoundRect,0.250000X-0.350000X-0.625000X0.350000X-0.625000X0.350000X0.625000X-0.350000X0.625000X0*%
%ADD11O,1.200000X1.750000*%
%ADD12O,3.000000X2.500000*%
%ADD13O,2.500000X1.600000*%
%ADD14O,7.000000X3.500000*%
%ADD15C,0.900000*%
%ADD16C,2.600000*%
%ADD17C,3.800000*%
%ADD18R,1.500000X1.050000*%
%ADD19O,1.500000X1.050000*%
%ADD20C,1.100000*%
%ADD21RoundRect,0.249999X0.850001X-0.850001X0.850001X0.850001X-0.850001X0.850001X-0.850001X-0.850001X0*%
%ADD22C,2.200000*%
%ADD23RoundRect,0.250001X-1.149999X1.149999X-1.149999X-1.149999X1.149999X-1.149999X1.149999X1.149999X0*%
%ADD24C,2.800000*%
%ADD25R,1.700000X1.700000*%
%ADD26C,1.700000*%
%ADD27R,2.000000X2.000000*%
%ADD28C,2.000000*%
%ADD29R,3.200000X2.000000*%
%ADD30C,0.650000*%
%ADD31O,2.100000X1.000000*%
%ADD32O,1.600000X1.000000*%
G04 APERTURE END LIST*
D10*
%TO.C,J5*%
X154750000Y-42250000D03*
D11*
X156750000Y-42250000D03*
%TD*%
D12*
%TO.C,SW3*%
X135250000Y-91000000D03*
X147750000Y-91000000D03*
X135250000Y-96000000D03*
X147750000Y-96000000D03*
%TD*%
D13*
%TO.C,J1*%
X198170000Y-55080000D03*
D14*
X203250000Y-50000000D03*
D13*
X198170000Y-52540000D03*
D14*
X203250000Y-60160000D03*
%TD*%
D15*
%TO.C,SW1*%
X192250000Y-48990000D03*
X189250000Y-48990000D03*
%TD*%
D16*
%TO.C,M3*%
X136250000Y-65250000D03*
D17*
X136250000Y-65250000D03*
%TD*%
D18*
%TO.C,Q1*%
X151860000Y-72770000D03*
D19*
X151860000Y-71500000D03*
X151860000Y-70230000D03*
%TD*%
D20*
%TO.C,J2*%
X209000000Y-83080000D03*
X209000000Y-80540000D03*
X209000000Y-78000000D03*
D21*
X206460000Y-83080000D03*
D22*
X206460000Y-80540000D03*
X206460000Y-78000000D03*
%TD*%
D16*
%TO.C,M4*%
X181250000Y-41500000D03*
D17*
X181250000Y-41500000D03*
%TD*%
D16*
%TO.C,M2*%
X197250000Y-148750000D03*
D17*
X197250000Y-148750000D03*
%TD*%
D23*
%TO.C,J4*%
X206000000Y-89500000D03*
D24*
X206000000Y-94500000D03*
X206000000Y-99500000D03*
%TD*%
D25*
%TO.C,J7*%
X190650547Y-88500001D03*
D26*
X188110547Y-88500001D03*
X185570547Y-88500001D03*
X183030547Y-88500001D03*
X180490547Y-88500001D03*
X177950547Y-88500001D03*
X175410547Y-88500001D03*
X172870547Y-88500001D03*
X170330547Y-88500001D03*
X167790547Y-88500001D03*
X165250547Y-88500001D03*
X162710547Y-88500001D03*
X160170547Y-88500001D03*
X157630547Y-88500001D03*
%TD*%
D16*
%TO.C,M1*%
X154750000Y-148750000D03*
D17*
X154750000Y-148750000D03*
%TD*%
D27*
%TO.C,SW2*%
X148000000Y-110500000D03*
D28*
X148000000Y-105500000D03*
X148000000Y-108000000D03*
D29*
X140500000Y-113600000D03*
X140500000Y-102400000D03*
D28*
X133500000Y-105500000D03*
X133500000Y-110500000D03*
%TD*%
D25*
%TO.C,J6*%
X198000000Y-79460000D03*
D26*
X198000000Y-82000000D03*
X198000000Y-84540000D03*
%TD*%
D30*
%TO.C,J3*%
X141680000Y-42540000D03*
X141680000Y-48320000D03*
D31*
X142180000Y-41110000D03*
D32*
X138000000Y-41110000D03*
D31*
X142180000Y-49750000D03*
D32*
X138000000Y-49750000D03*
%TD*%
M02*
